<?xml version="1.0" encoding="UTF-8" standalone="no"?>
<!-- Created with Inkscape (http://www.inkscape.org/) -->

<svg
   xmlns:dc="http://purl.org/dc/elements/1.1/"
   xmlns:cc="http://creativecommons.org/ns#"
   xmlns:rdf="http://www.w3.org/1999/02/22-rdf-syntax-ns#"
   xmlns:svg="http://www.w3.org/2000/svg"
   xmlns="http://www.w3.org/2000/svg"
   xmlns:sodipodi="http://sodipodi.sourceforge.net/DTD/sodipodi-0.dtd"
   xmlns:inkscape="http://www.inkscape.org/namespaces/inkscape"
   width="400"
   height="266.58112"
   id="svg2"
   version="1.1"
   inkscape:version="0.48.4 r9939"
   sodipodi:docname="drawing.svg">
  <defs
     id="defs4" />
  <sodipodi:namedview
     id="base"
     pagecolor="#ffffff"
     bordercolor="#666666"
     borderopacity="1.0"
     inkscape:pageopacity="0.0"
     inkscape:pageshadow="2"
     inkscape:zoom="1.4"
     inkscape:cx="269.14936"
     inkscape:cy="121.04928"
     inkscape:document-units="px"
     inkscape:current-layer="g2989"
     showgrid="false"
     inkscape:window-width="1920"
     inkscape:window-height="1017"
     inkscape:window-x="-8"
     inkscape:window-y="162"
     inkscape:window-maximized="1"
     fit-margin-top="0"
     fit-margin-left="0"
     fit-margin-right="0"
     fit-margin-bottom="0" />
  <metadata
     id="metadata7">
    <rdf:RDF>
      <cc:Work
         rdf:about="">
        <dc:format>image/svg+xml</dc:format>
        <dc:type
           rdf:resource="http://purl.org/dc/dcmitype/StillImage" />
        <dc:title></dc:title>
      </cc:Work>
    </rdf:RDF>
  </metadata>
  <g
     inkscape:label="Layer 1"
     inkscape:groupmode="layer"
     id="layer1"
     transform="translate(-9e-6,-785.78107)">
    <g
       id="g2989"
       transform="translate(96.642858,379.24433)">
      <path
         id="path2991"
         d="m 164.95878,519.57575 16.94046,-1.02669 2.61807,4.36345 1.64271,-4.82546 8.31622,-0.41068 0,13.44969 -8.16222,0 0,3.6961 -4.67146,2.77208 4.51746,2.87474 0,30.80082 -12.52567,-0.82136 0,-38.09034 -8.26489,0 -0.41068,-12.78235 m 32.64887,-2.56673 14.16838,-0.77002 0,41.73511 3.79877,3.64477 3.79877,-3.28542 0,-43.17249 12.21766,-0.66735 0,37.62834 -4.10678,4.15811 3.95277,2.20739 -1.38603,7.44353 -5.69816,6.31417 -6.5195,2.56673 -8.26489,-0.35934 -6.72485,-4.46612 -3.64476,-6.93018 -1.59138,-46.04723 m 37.11499,59.34292 1.07803,-51.23204 3.74744,-3.13141 -4.31212,-2.05339 -0.35934,-6.41684 22.33059,-1.43737 7.13553,4.15811 4.05544,7.59754 0,13.70636 -3.08008,5.49281 -5.18481,3.79877 6.2115,6.31417 2.72074,8.26489 0,17.6078 -13.24435,-0.41068 -0.92403,-17.96714 -5.1848,-8.36756 0,25.35934 -14.98974,-1.28336 m 14.11705,-51.74538 -0.15401,12.731 5.18481,0 3.43942,-3.59343 0,-6.2115 -3.79876,-2.92607 -4.67146,0 m 23.9733,-15.24641 29.56879,-1.84805 -0.46201,16.4271 -15.70842,-0.41067 0.41068,13.70636 16.2731,-1.12936 0,17.55647 -16.73511,-0.41068 -0.82136,12.98768 4.46612,0 2.10472,3.95277 2.41273,-4.26078 9.03491,0 -0.61601,16.47844 -29.46612,-2.15606 -0.15401,-60.16427 4.46612,-3.43942 -4.82546,0 0.0513,-7.28953 m -37.01232,76.23203 13.24436,0.30801 -0.30801,4.67146 -7.80288,-0.30801 0,4.20945 4.51746,0 -0.30801,4.41478 -4.20945,0 0,4.46612 7.3922,0 0,3.74743 -12.52567,0 0,-21.50924 m -32.90554,21.86859 0,-12.47434 4.72279,-8.57289 3.59343,0.30801 4.20945,8.52156 0.308,12.01232 -4.41478,0 -1.1807,-7.03286 -2.10472,0 -0.87269,7.44353 -4.26078,-0.20533 m 17.50513,-0.25668 0,-20.84189 6.87885,0 5.13347,6.41684 0,8.11088 -5.39014,6.31417 -6.62218,0 m -46.3039,-8.16222 0,4.20945 3.23409,-2.10472 -3.23409,-2.10473 m -0.10267,-4.36345 3.33676,-2.10472 -3.33676,-2.5154 0,4.62012 m -12.21766,-74.79466 -0.71868,27.87475 -4.92813,2.36139 5.80082,3.02875 0,17.19713 -11.44764,-0.61602 -13.50103,-25.71869 1.12936,25.97536 -13.39835,0 -0.25668,-49.74332 10.98563,0.41067 13.09035,23.71664 0,-24.12731 13.24435,-0.35935 m 23.92197,66.2731 5.28748,-0.154 -0.61602,16.17043 7.95688,0 -0.30801,5.33881 -12.32033,-0.30801 0,-21.04723 m -16.22176,-0.35934 8.62423,0.15401 4.15811,3.79876 0.0513,4.36345 -3.28542,2.92608 3.28542,2.56674 -0.20534,3.95277 -4.15811,3.59343 -8.47022,0 0,-21.35524 m 55.39014,4.8768 0,10.98562 2.72074,-2.05338 0,-6.2115 -2.72074,-2.72074 m -17.55647,4.62012 3.74744,-0.10267 -2.00206,-4.26078 -1.74538,4.36345 M 97.607656,412.23489 q 2.104723,-2.10472 5.133474,-2.10472 3.02874,0 5.13346,2.10472 1.95072,1.95072 2.05339,4.67146 -3.59343,2.92608 -7.18685,2.92608 -3.593433,0 -7.186862,-2.92608 0.154004,-2.72074 2.053388,-4.67146 m -0.718685,-0.71868 q -2.258727,2.36139 -2.361397,5.59548 l 0,0.20534 q 0,3.43942 2.361397,5.80082 2.412731,2.41273 5.852159,2.41273 3.43942,0 5.85215,-2.41273 2.3614,-2.3614 2.3614,-5.80082 l 0,-0.20534 q -0.0513,-3.23409 -2.3614,-5.59548 -2.41273,-2.41274 -5.85215,-2.41274 -3.439428,0 -5.852159,2.41274 m 5.852159,-4.97947 q 8.11088,0 16.17043,6.77618 l -7.44354,16.01643 q -4.82546,-1.54004 -8.67556,-1.43737 l -0.10267,0 q -3.850101,-0.10267 -8.675563,1.43737 L 86.62203,413.31292 q 8.008214,-6.77618 16.1191,-6.77618 m 0.0513,25.46201 q 3.43942,-0.0513 7.75154,1.3347 l 0,6.51951 q -3.28542,-1.4887 -7.75154,-1.38604 l -0.0513,0 q -4.517457,-0.10266 -7.802878,1.38604 l 0,-6.51951 q 4.312115,-1.38603 7.751538,-1.3347 l 0.10267,0 m -52.772073,42.24846 10.831622,0 q 1.694046,3.43943 6.10883,6.31417 -6.160164,5.0308 -5.338809,10.67762 0.77002,5.54415 8.316222,11.60164 -2.361397,3.5421 -3.028748,8.82957 -8.778234,-4.8768 -11.755647,-14.21971 -3.131416,-9.85626 3.696099,-14.73306 l 1.283368,-1.0267 -1.437372,-0.77002 q -5.441479,-2.72074 -8.675565,-6.67351 m 23.870637,24.53799 q -1.950719,1.38604 -3.336756,3.23409 -7.135524,-5.74949 -7.905544,-10.88296 -0.718686,-5.39014 5.492813,-10.21561 l 0.564682,-0.46201 -0.564682,-0.35934 q -4.312115,-2.72074 -6.10883,-5.85216 l 81.519503,0 q -2.00205,3.79877 -6.10883,5.80082 l -0.71868,0.35935 0.61601,0.51334 q 6.2115,4.82547 5.49282,10.21561 -0.77002,5.13347 -7.85421,10.88296 -1.43737,-1.84805 -3.33676,-3.23409 -5.59548,-4.00411 -16.4271,-3.79877 l -24.948666,0 q -10.831622,-0.20534 -16.37577,3.79877 m -95.533882,15.75975 22.22792658,2.15606 6.57084192,4.97947 4.3634495,8.05955 0.308008,30.59548 -4.3121146,7.28953 -7.75154006,6.46817 -8.36755654,0.51335 -2.6180698,-5.18481 -2.566735,5.95483 -7.289528,0.82135 0.308008,-47.43326 4.158111,-2.56674 -4.517454,-2.10472 -0.513347,-9.54826 m 13.8090354,14.21972 -0.359343,31.72484 5.184805,-1.3347 3.28542096,-5.1848 0,-17.96715 -2.41273106,-4.97947 -5.6981519,-2.25872 m 44.8151956,-9.59959 11.909651,0.97536 0,20.94456 -4.158111,4.10677 5.030801,2.05339 0,11.3963 -4.158111,8.21356 -7.084189,4.15811 -12.422998,0.20534 -6.724846,-5.39015 -3.439425,-9.29158 0,-38.6037 13.449692,0.82136 0,36.85832 3.901437,3.23408 3.542095,-4.0041 0.154004,-35.67762 m 37.268994,1.23203 12.371663,0 -10.677618,49.38398 -6.365503,0 -2.053388,-4.10677 -1.591376,4.31211 -3.593429,0 -8.62423,-50.20534 10.677618,0 5.184805,25.87269 4.671458,-25.25667 m 47.125253,-40.86242 q 5.54415,0.51334 9.13758,5.1848 -4.82546,1.69405 -9.13758,1.0267 l 0,-6.2115 m -1.02669,-1.12937 0,13.03902 0.51334,0 q 6.72485,0.30801 10.88296,-6.16017 l 0.0513,-0.20534 0,-0.20533 0,-0.0513 -0.15401,-0.20534 -0.0513,-0.0513 q -4.10678,-5.74949 -10.67762,-6.10883 l -0.56468,-0.0513 m 35.31827,-4.15811 q -3.23408,4.41479 -8.77823,6.67351 l -1.64271,0.66735 1.43737,1.12937 q 6.77618,4.8768 3.64476,14.73306 -2.97741,9.34291 -11.75564,14.21971 -0.66735,-5.28747 -2.97742,-8.82957 7.49487,-6.05749 8.26489,-11.60164 0.82136,-5.59548 -5.23614,-10.62628 4.15811,-2.25873 6.10883,-6.36551 l 10.93429,0 m -52.87474,-34.75359 q 4.51745,-0.15401 7.75154,1.48871 l 0,7.49486 q -3.33676,-1.4887 -7.80287,-1.59137 -4.466123,0.10267 -7.802878,1.59137 l 0,-7.49486 q 3.234086,-1.64272 7.802878,-1.48871 l 0.0513,0 m -0.0513,8.41889 q 4.51745,0.10267 7.80287,1.69405 l 0,7.03285 q -3.02875,-1.23203 -7.75154,-1.43737 l -0.0513,0 q -4.774131,0.20534 -7.802878,1.43737 l 0,-7.03285 q 3.285421,-1.59138 7.802878,-1.69405 m 0.0513,8.31622 q 4.77413,0.25668 7.75154,1.59138 l 0,7.7002 q -3.02875,-1.28336 -7.75154,-1.43737 l -0.0513,0 q -4.774131,0.15401 -7.802878,1.43737 l 0,-7.7002 q 2.977413,-1.38604 7.854208,-1.59138 m -17.659136,35.21561 0,-13.03902 -0.513347,0.0513 Q 77.9978,478.816 73.942358,484.56549 l -0.05133,0.0513 -0.154004,0.20534 -0.05133,0.0513 0,0.20533 0.102669,0.20534 q 4.106777,6.46818 10.882957,6.16017 l 0.462013,0 m -1.026694,-11.90965 0,6.2115 q -4.312115,0.66735 -9.086243,-1.0267 3.542095,-4.67146 9.086243,-5.1848 m 26.437371,-7.34087 -15.605749,0 0,-5.59548 q 2.977413,-1.38604 7.854209,-1.4887 4.77413,0.154 7.75154,1.4887 l 0,5.59548 m -12.936345,6.57085 q 2.104723,-2.10473 5.133475,-2.10473 3.02874,0 5.13346,2.10473 1.95072,1.95071 2.05339,4.67145 -3.59343,2.92608 -7.18685,2.92608 -3.593434,0 -7.186863,-2.92608 0.10267,-2.72074 2.053388,-4.67145 m -0.718685,-0.71869 q -2.310062,2.3614 -2.361397,5.59548 l 0,0.0513 0,0.154 q 0,3.43943 2.361397,5.85216 2.412731,2.41273 5.85216,2.41273 3.43942,0 5.85215,-2.41273 2.3614,-2.41273 2.3614,-5.85216 l 0,-0.154 0,-0.0513 q -0.0513,-3.23408 -2.3614,-5.59548 -2.41273,-2.41273 -5.85215,-2.41273 -3.439429,0 -5.85216,2.41273 m 6.3655,19.76386 11.96099,1.79672 0,19.50718 -5.23614,0 -0.71869,2.41273 -1.79671,-2.56673 -4.20945,-0.0513 0,-21.09856 m 16.32444,71.91992 -28.850105,0 0,-7.34086 4.004107,-2.46407 -4.414784,-3.02875 0.410677,-36.65297 15.451745,0.25667 3.33676,4.41478 1.64271,-4.26078 9.08624,0 -0.25668,8.16222 -0.154,3.79877 -0.10267,0 -16.22176,-0.41068 0.20534,8.67557 15.96509,-0.41068 0.308,0 -0.41067,8.98357 -0.20534,0 -15.65708,-0.41068 0.41067,8.67557 0.46202,0 15.4004,-0.61602 -0.41067,12.62834 m -29.312117,-70.1232 11.960987,-1.79672 0,21.09856 -11.960987,-0.154 0,-19.14784 m 15.143737,39.11704 -0.20534,-4.46612 10.01027,0.30801 0,3.90144 -9.80493,0.25667 m -168.069816,41.47844 -12.063655,0.61601 -1.540041,-11.03696 -6.416838,0 -2.053388,11.80699 -11.909651,0.41067 1.74538,-15.81109 5.184805,-4.15811 -4.517454,-1.89938 7.85421,-52.25873 13.65503,1.38604 10.061602,70.94456 m 16.786448,-55.90349 -0.05134,11.55031 5.13347,0 2.874744,-3.13142 0,-4.97947 -2.772074,-3.13141 -5.184805,-0.30801 m -13.141684,-13.86037 7.75154,0.71868 3.080082,4.67146 2.412731,-4.67146 9.856263,0.77002 6.416838,3.95278 3.439425,6.72484 -0.05133,14.57906 -3.336755,6.31417 -5.287475,3.02874 5.544148,5.85216 2.720739,8.62423 0.821356,15.91376 -13.039015,0.97536 -1.848049,-16.68378 -4.517454,-7.95688 0,25.35934 -12.782341,0.77002 -1.180698,-68.9425 m 20.687885,75.66735 13.501027,-0.0513 0,5.03081 -3.644764,0 0.308008,16.17043 -6.519507,0 0.308008,-16.17043 -3.952772,0 0,-4.97947 m -40.965093,-46.81725 -3.542094,17.76181 6.87885,0 -3.336756,-17.76181 m 182.5462,53.28542 2.00205,0 0,15.70842 8.16222,0.10267 0.15401,-15.70842 1.64271,0 0,50.87269 q -0.0513,1.0267 -5.69815,14.57906 l -6.26284,14.9384 0,-80.49282 m -7.23819,65.70842 q -5.698152,-13.70636 -5.749487,-14.73306 l 0,-72.07392 11.960987,0 0,12.88501 -2.977414,0 0.667351,8.21355 2.310063,0 0,80.54415 -6.2115,-14.83573 m 39.78439,-72.68994 13.24436,0.30801 -0.30801,4.67146 -7.80288,-0.30801 0,4.20945 4.51746,0 -0.30801,4.41478 -4.20945,0 0,4.46612 7.3922,0 0,3.74743 -12.52567,0 0,-21.50924 m -20.58521,-14.11704 0,12.88501 -11.96099,0 0,-12.88501 11.96099,0 m 4.10677,14.42505 5.13347,0.0513 0,7.5462 3.23409,0.308 0,-8.16221 4.82546,0 0.30801,21.35523 -4.67146,0 -0.30801,-7.85421 -3.13141,0 0,8.05955 -5.39015,0 0,-21.3039 m -13.70636,-34.80493 9.59959,0.30801 0,4.26078 -9.49692,0.20534 -0.10267,-4.77413 m -126.796716,35.0616 9.445585,0.10267 2.926078,3.43943 0,4.82546 -2.823409,2.92608 3.0800825,3.74743 0.7700206,5.90349 -4.3121151,0 -1.488706,-4.87679 -2.053388,-2.31007 -0.616017,7.34087 -4.928131,0 0,-21.09857 m 5.441478,4.15811 -0.102669,4.56879 2.823408,-2.25872 -2.720739,-2.31007 m 116.478438,-4.56878 16.17043,0 -0.30801,5.54414 -4.36345,0 -0.308,15.60575 -5.18481,-0.0513 0,-15.55442 -5.69815,0 -0.30801,-5.54414 m -31.57084,0.154 13.244353,-0.30801 0,5.08214 -7.494866,-0.61602 0.308008,4.05544 4.209446,0.61602 0,3.49076 -4.158111,0 0,8.00821 -4.928132,0 -1.180698,-20.32854 m -7.186858,0.41068 4.004107,4.46612 -0.308009,12.06365 -3.182751,3.6961 -6.262834,-0.10267 -3.182751,-3.8501 -0.308009,-12.52567 4.158111,-3.79877 5.082136,0.0513 m -66.6324441,20.53388 0,-12.47433 4.72279265,-8.5729 3.59342915,0.30801 4.2094456,8.52156 0.3080083,12.01232 -4.4147845,0 -1.1806981,-7.03285 -2.10472283,0 -0.87268994,7.44353 -4.26078033,-0.20534 m 24.8459961,-20.73922 5.287474,-0.154 -0.616016,16.17043 7.956879,0 -0.308008,4.72279 -12.320329,-0.30801 0,-20.43121 m -8.110883,20.84189 0,-20.84189 3.952772,0 0,20.84189 -3.952772,0 m 45.687885,-14.42505 0.205339,8.47022 1.899384,1.43737 1.848049,-1.95071 0,-7.44354 -2.002053,-2.20739 -1.950719,1.69405 m -58.00821366,2.15605 3.74743326,-0.10266 -2.0020534,-4.26079 -1.74537986,4.36345"
         inkscape:connector-curvature="0"
         style="fill:#000000;fill-opacity:1;stroke:none" />
    </g>
  </g>
</svg>
