<?xml version="1.0" encoding="UTF-8" standalone="no"?>
<svg
   xmlns:dc="http://purl.org/dc/elements/1.1/"
   xmlns:cc="http://creativecommons.org/ns#"
   xmlns:rdf="http://www.w3.org/1999/02/22-rdf-syntax-ns#"
   xmlns:svg="http://www.w3.org/2000/svg"
   xmlns="http://www.w3.org/2000/svg"
   xmlns:sodipodi="http://sodipodi.sourceforge.net/DTD/sodipodi-0.dtd"
   xmlns:inkscape="http://www.inkscape.org/namespaces/inkscape"
   width="448.05469pt"
   height="709.91797pt"
   viewBox="0 0 448.05469 709.91797"
   version="1.2"
   id="svg4141"
   inkscape:version="0.91+devel+osxmenu r12922"
   sodipodi:docname="hero.svg">
  <metadata
     id="metadata4256">
    <rdf:RDF>
      <cc:Work
         rdf:about="">
        <dc:format>image/svg+xml</dc:format>
        <dc:type
           rdf:resource="http://purl.org/dc/dcmitype/StillImage" />
        <dc:title></dc:title>
      </cc:Work>
    </rdf:RDF>
  </metadata>
  <defs
     id="defs4254" />
  <sodipodi:namedview
     pagecolor="#ffffff"
     bordercolor="#666666"
     borderopacity="1"
     objecttolerance="10"
     gridtolerance="10"
     guidetolerance="10"
     inkscape:pageopacity="0"
     inkscape:pageshadow="2"
     inkscape:window-width="1116"
     inkscape:window-height="800"
     id="namedview4252"
     showgrid="false"
     fit-margin-top="0"
     fit-margin-left="0"
     fit-margin-right="0"
     fit-margin-bottom="0"
     inkscape:zoom="0.64930556"
     inkscape:cx="243.36559"
     inkscape:cy="439.40104"
     inkscape:window-x="399"
     inkscape:window-y="148"
     inkscape:window-maximized="0"
     inkscape:current-layer="svg4141" />
  <g
     id="surface4033"
     transform="translate(-1193.3047,-159.63281)">
    <path
       style="fill:#000000;fill-opacity:1;fill-rule:nonzero;stroke:none"
       d="m 1334.8164,416.02734 c -1.2891,-0.33984 -2.6445,0.17578 -3.3867,1.27735 -2.1563,3.1875 -6.5195,9.86328 -8.0977,13.86328 -1.5898,4.03515 -2.1992,15.09765 -2.4062,20.41015 -0.062,1.63282 1.1289,3.04297 2.75,3.23829 6.1328,0.75 21.0039,2.95703 32.582,7.79296 14.961,6.25 31.4102,10.89844 46.0742,26.89454 C 1417,505.5 1433.168,527.5 1439.332,540 c 4.1875,8.48437 18.4063,32.86719 27.1055,47.65625 1.6953,2.87891 6.1172,1.46875 5.8359,-1.85938 l -1.5898,-37.29296 c -1.293,-5.15625 -2.2813,-9.07422 -2.5586,-9.50391 l -43.1406,-65.26172 c -0.1016,-0.15625 -0.2149,-0.30469 -0.3438,-0.44141 -2.3125,-2.47656 -25.082,-26.52734 -48.4687,-39.79687 -19.7461,-11.20703 -35.7539,-16.00391 -41.3555,-17.47266"
       id="path4144"
       inkscape:connector-curvature="0" />
    <path
       style="fill:#000000;fill-opacity:1;fill-rule:nonzero;stroke:none"
       d="m 1310.6172,566.25781 c -0.6055,0.73047 -0.1797,1.83594 0.7617,1.96875 4.8828,0.69141 17.2852,3.40625 23.6211,13.51172 8,12.76172 37.168,53.06641 43.832,71.66406 C 1385.5,672 1389,676.5 1382.5,693 c -6.5,16.5 -20.4883,30 -26.2422,32.5 -4.6211,2.00391 -13.3633,5.92578 -16.6406,7.39844 -0.6836,0.30468 -0.9258,1.14062 -0.5117,1.76562 2.6289,3.97656 11.5703,16.8711 20.3945,22.33594 10.5,6.5 66.832,28.5 86.418,25.5 19.582,-3 39.6289,-10 47.3554,-15 7.7266,-5 15.3946,-16.5 17.5586,-20 1.8985,-3.0625 -0.2578,-8.80469 -0.8281,-10.19141 -0.082,-0.19922 -0.2148,-0.375 -0.3906,-0.5039 -4.4219,-3.32032 -63.7656,-47.92188 -84.7813,-65.27344 -21.832,-18.03125 -59.5664,-55.38672 -70,-69.69922 -5.832,-8 -14.5781,-30.83203 -22.2031,-34.33594 -7.6289,-3.5039 -16.4726,-6.0664 -19.1289,-4.02734 -1.2109,0.92578 -2.1836,1.94922 -2.8828,2.78906"
       id="path4146"
       inkscape:connector-curvature="0" />
    <path
       style="fill:#000000;fill-opacity:1;fill-rule:nonzero;stroke:none"
       d="m 1555.3594,673.47656 c -2,-18.17187 -3.793,-15.97656 -11.2852,-27.26953 -7.4961,-11.28906 -8.8437,-15.3125 -11.7422,-17.46875 -2.0742,-1.54687 -7.0664,-5.60547 -9.7382,-7.79297 -0.6836,-0.55859 -1.711,-0.0469 -1.6758,0.83985 l 0.4492,12.01953 c 0.031,0.8789 -0.9727,1.39453 -1.6602,0.85156 -16.2461,-12.78516 -34.4179,-26.36328 -42.2812,-32.20313 -0.8906,-0.66015 -2.0469,0.35938 -1.5078,1.32813 5.6289,10.12109 18.4687,35.67187 12.5586,48.71875 -7.4766,16.5 -30.1446,17.16797 -49.1446,9.16797 -19,-8 -50.0625,-34 -63.8632,-48 -9.4375,-9.57422 -16.7852,-20.98047 -20.4883,-27.23828 -0.5703,-0.96875 -2.0547,-0.44141 -1.8985,0.67187 0.4571,3.27344 1.8789,6.33594 4.0821,8.79688 17.9531,20.03125 47.3906,53.53906 63.8359,65.97656 19.8203,14.99219 52.4414,41.45703 52.4414,41.45703 l 39.1406,31.97266 c 0.125,0.10156 0.2657,0.17187 1.1602,0.48047 l 16.8594,2.29687 c 3.2578,1.47266 11.1992,-1.63672 11.5078,-1.77734 8.7695,-3.97266 6.1406,-9.72266 10.1406,-18.30469 4.5625,-9.78125 5.1094,-26.35156 3.1094,-44.52344"
       id="path4148"
       inkscape:connector-curvature="0" />
    <path
       style="fill:#000000;fill-opacity:1;fill-rule:nonzero;stroke:none"
       d="m 1427.4609,520.42578 c 0,0 7.9375,17.92969 10.9375,40.46875 3,22.53906 3.3321,52.65625 2.168,60.59766 -1.168,7.9414 5.9922,-33.2461 4.4141,-51.32032 -1.5821,-18.07031 -3.8867,-36.74609 -6.5821,-41.73828 -2.6953,-4.99218 -10.9375,-8.00781 -10.9375,-8.00781"
       id="path4150"
       inkscape:connector-curvature="0" />
    <path
       style="fill:#000000;fill-opacity:1;fill-rule:nonzero;stroke:none"
       d="m 1323.625,414.5 c 0,0 -10.293,8.66016 -11.625,13.66016 -1.332,4.99609 -1,23.52734 -1,24.35156 0,0.82031 2,0 2,0 0,0 0.5859,-12.15625 4.3125,-23.50781 2.3555,-7.17188 7.3555,-14.00391 8.3555,-14.50391 1,-0.5 -2.043,0 -2.043,0"
       id="path4152"
       inkscape:connector-curvature="0" />
    <path
       style="fill:#000000;fill-opacity:1;fill-rule:nonzero;stroke:none"
       d="m 1312.332,343.41797 c 0,0 -2.832,-3.41016 -5.664,-2.41406 -2.836,0.99609 -5.168,4.82812 -5.168,6.82812 0,2 5.332,8.5 6.5,11 1.168,2.5 1.668,7.33594 3,9 1.332,1.66797 7.8672,3.33594 7.4336,0.66797 -0.4336,-2.66797 -3.9336,-4.01172 -4.9336,-3.08984 -1,0.92187 -2.3789,-4.74219 -3.5234,-6.74219 -1.1446,-2 -3.1875,-10.5 0,-9.66797 3.1914,0.83203 5.0234,-2.16797 4.0234,-3.5 -1,-1.33203 -1.668,-2.08203 -1.668,-2.08203"
       id="path4154"
       inkscape:connector-curvature="0" />
    <path
       style="fill:#000000;fill-opacity:1;fill-rule:nonzero;stroke:none"
       d="m 1365,462.60937 c 0,0 -32.668,-9.9375 -50.332,9.39454 -17.668,19.32812 -17,40.32812 -16.836,42.99609 0.168,2.66797 -6.164,-33.32813 0,-41.49609 C 1304,465.33203 1317.0703,453.33203 1325.8672,451 1334.668,448.66797 1365,462.60937 1365,462.60937"
       id="path4156"
       inkscape:connector-curvature="0" />
    <path
       style="fill:#000000;fill-opacity:1;fill-rule:nonzero;stroke:none"
       d="m 1421.332,280.00391 c 0,0 5,-2 7,-1 2,1 6,3 6,4 0,1 -4,-10 -4,-10 z m 0,0"
       id="path4158"
       inkscape:connector-curvature="0" />
    <path
       style="fill:#000000;fill-opacity:1;fill-rule:nonzero;stroke:none"
       d="m 1381.332,274.00391 c 0,0 -5,5 -4,7 1,2 4,4 7,5 3,1 4,2 6,2 l 6,0 c 0,0 -2,1 -4,1 -2,0 -10,-1 -12,-2 -2,-1 -9,-3 -10,-4 -1,-1 0,-2 1,-3 1,-1 10,-6 10,-6"
       id="path4160"
       inkscape:connector-curvature="0" />
    <path
       style="fill:#000000;fill-opacity:1;fill-rule:nonzero;stroke:none"
       d="m 1319.332,324.00391 c 0,0 -6,-5 -6,-12 0,-7 1,-11 3,-13 2,-2 5,-5 9,-6 4,-1 6,-1 9,0 3,1 4,2 4,2 0,0 -3,-4 -9,-4 -6,0 -12,2 -14,4 -2,2 -4,4 -5,7 -1,3 -2,5 -1,8 1,3 1,5 3,7 z m 0,0"
       id="path4162"
       inkscape:connector-curvature="0" />
    <path
       style="fill:#000000;fill-opacity:1;fill-rule:nonzero;stroke:none"
       d="m 1436.332,288.00391 c 0,0 2,11 7,13 5,2 9,3 12,0 3,-3 5,-7 5,-7 l 2,4 -6,9 -3,6 -5,4 -3.9218,8 -0.078,-1 c 0,0 -2,-13 -3,-18 -1,-5 -5,-18 -5,-18"
       id="path4164"
       inkscape:connector-curvature="0" />
    <path
       style="fill:#000000;fill-opacity:1;fill-rule:nonzero;stroke:none"
       d="m 1398,400.50391 c 0,0 5.418,0.33203 6.918,1.25 1.5,0.91796 6.914,1.08203 7.914,0.75 1,-0.33204 2.586,-0.83204 2.668,-2 0.082,-1.16797 -0.668,-3 -0.668,-3 0,0 -5.9101,1.69531 -8.0781,2.01562 -2.1719,0.31641 -8.7539,0.98438 -8.7539,0.98438"
       id="path4166"
       inkscape:connector-curvature="0" />
    <path
       style="fill:#000000;fill-opacity:1;fill-rule:nonzero;stroke:none"
       d="m 1415.2695,335.00391 c 0,0 -0.3125,7.5 0,9.875 0.3125,2.375 0.875,11.25 1.0625,12.8125 0.1875,1.5625 1.125,4.9375 1.625,5.1875 0.5,0.25 3,1.125 2.9375,2.1875 -0.062,1.0625 1.5625,-0.5625 1.125,-1.75 -0.4375,-1.1875 -4.3125,-2.125 -4.625,-3.125 -0.3125,-1 -2.125,-25.1875 -2.125,-25.1875"
       id="path4168"
       inkscape:connector-curvature="0" />
    <path
       style="fill:#000000;fill-opacity:1;fill-rule:nonzero;stroke:none"
       d="m 1389.832,331.00391 c 0,0 6.5,0.5 8.168,2.33203 1.668,1.83593 3.332,8.66797 3.332,8.66797 0,0 -2.164,-3.89063 -5,-4.61329 -2.832,-0.71875 -3.9531,-0.86328 -7.5,-0.88671 -3.5429,-0.0234 -6.332,0 -6.332,0 z m 0,0"
       id="path4170"
       inkscape:connector-curvature="0" />
    <path
       style="fill:#000000;fill-opacity:1;fill-rule:nonzero;stroke:none"
       d="m 1435.1641,448.33203 c 0,0 3.5039,-0.32812 5.1679,2.33984 1.668,2.66407 2.168,3.83204 1.5,5.5 -0.664,1.66407 -1.1054,3.34766 -1.1054,3.34766 l 7.1054,-5.01562 -5,-9 z m 0,0"
       id="path4172"
       inkscape:connector-curvature="0" />
    <path
       style="fill:#000000;fill-opacity:1;fill-rule:nonzero;stroke:none"
       d="m 1453.3711,484.42578 c 0,0 24.4609,34.07813 26.4609,36.91016 2,2.83593 5,4.33593 3.836,6.66797 -1.168,2.33203 0.832,5.33203 2.164,3.33203 1.336,-2 7.5,-13.49219 7.5,-13.49219 l -6.5,6.66016 -7,-7.5 -10.8359,-20.5 -10.1641,-20 z m 0,0"
       id="path4174"
       inkscape:connector-curvature="0" />
    <path
       style="fill:#000000;fill-opacity:1;fill-rule:nonzero;stroke:none"
       d="m 1542.3555,457.30078 c 0,0 0.3125,4.03516 -0.8555,5.86719 -1.168,1.83594 -2.9102,3.83594 -5.168,4.5 l -2.2539,0.66797 6.7539,5.16797 6,-11 z m 0,0"
       id="path4176"
       inkscape:connector-curvature="0" />
    <path
       style="fill:#000000;fill-opacity:1;fill-rule:nonzero;stroke:none"
       d="m 1519.332,490.47656 c 0,0 -25.332,47.52344 -26,48.85547 -0.664,1.33594 -0.059,15.99219 -0.059,15.99219 l 8.8399,0.91406 0.2187,-15.54687 12.8203,-24.71875 12.6797,-21.46875 z m 0,0"
       id="path4178"
       inkscape:connector-curvature="0" />
    <path
       style="fill:#000000;fill-opacity:1;fill-rule:nonzero;stroke:none"
       d="m 1503.1211,603.60156 c 0,0 3.3789,-0.0976 4.7109,1.90235 1.336,2 3,4.16406 1.668,5.66406 -1.332,1.5 2.5,-0.5 5,1.33594 2.5,1.83203 3.332,7.16406 2.832,8.66406 -0.5,1.5 -1.2226,2.83594 0.1407,2.83594 1.3593,0 4.5273,0.16406 4.8593,3.16406 0.336,3 2.336,6.33594 1.5,7.33594 -0.832,1 -0.664,2.5 0,2.5 0.668,0 1.0703,2.33203 0.2032,4.5 -0.8672,2.16406 -2.2188,4.46875 -2.2188,4.46875 l 2.0156,1.53125 3.1602,-6.33594 -1.5156,-4.86719 0.9961,-6.98047 c 0,0 -1.8477,-4.83594 -2.6407,-5.53906 -0.789,-0.70313 -3.3047,-2.17188 -3,-4.27734 0.3047,-2.10547 1.5352,-4.00391 1.2657,-5.50391 -0.2657,-1.49609 -0.1954,-1.66797 -0.7618,-2.15234 -0.5703,-0.48438 -4.9296,-3.32813 -4.9296,-3.32813 l -3.6368,-4.66016 -4.5859,-3.69921 -1.3516,-0.65625 0,3.5 z m 0,0"
       id="path4180"
       inkscape:connector-curvature="0" />
    <path
       style="fill:#000000;fill-opacity:1;fill-rule:nonzero;stroke:none"
       d="m 1435.332,391.00391 c 2,-6 10,-29 10,-31 0,-2 0.586,-15 0.586,-15 l -1.586,-21 -1,-8 -2,-13 -8.832,-23.17188 c 0,0 3.168,20.08594 2.6641,24 -0.4024,3.13672 -3.6563,12.11328 -5.9883,13.87109 -1.7852,1.34766 14.1562,3.30079 14.1562,3.30079 0,0 -4,3.79687 -7,5.79687 -3,2 3.5,1.60156 4.5,5.60156 1,4 0,13.42969 -1,16.42969 -1,3 -7.5,8.17188 -7.5,12.17188 0,2.82031 -1.9414,16.24218 -2,25.16406 -0.023,3.73047 -1.6445,8.11328 -1.9375,9 -1,3 1.9375,3.83594 -0.062,4.83594 -2,1 -10,4 -12,4 l -14,0 26,3 c 0,0 5,-10 7,-16"
       id="path4182"
       inkscape:connector-curvature="0" />
    <path
       style="fill:#000000;fill-opacity:1;fill-rule:nonzero;stroke:none"
       d="m 1358.332,398.50391 c -2,-0.83204 -2.332,-7.50391 -3.664,-12.83594 -1.336,-5.33594 -7.668,-5.33594 -15.336,-9.25 -7.664,-3.91797 -13.4648,-15.41406 -13.4648,-15.41406 0,0 -1.5352,1.99609 -2.2422,6.99609 -0.707,5 0,25.70703 0,25.70703 0,0 36.707,5.625 34.707,4.79688"
       id="path4184"
       inkscape:connector-curvature="0" />
    <path
       style="fill:#000000;fill-opacity:1;fill-rule:nonzero;stroke:none"
       d="m 1449.332,411.66797 c -3.5,0.33594 -20,-0.5 -24.5,-1 -4.5,-0.5 -39.664,-5.33203 -44.332,-6.16406 -4.668,-0.83594 -66.168,-10.79688 -66.168,-10.79688 -4.6132,0.65234 -5.332,0.46094 -10.332,9.96094 -5,9.5 -10.668,3.33594 -10.668,3.33594 l 4.5,7.19921 c 0,0 -1.8125,0.53516 7.0547,-1.53515 8.8672,-2.07031 30.3047,-4.1875 53.9336,5.48047 23.6289,9.66406 59.3242,44.46093 59.3242,44.46093 0,0 0.1875,-3.4414 0.4688,-8.10546 0.2812,-4.66797 5.8867,-14.33594 7.8867,-17.16797 2,-2.83203 28.168,-26.66797 28.168,-26.66797 0,0 -1.836,0.66797 -5.336,1"
       id="path4186"
       inkscape:connector-curvature="0" />
    <path
       style="fill:#000000;fill-opacity:1;fill-rule:nonzero;stroke:none"
       d="m 1430.832,469.00391 17.875,-12.75 -4.75,4.25 5.375,-3.20313 -2,2.21875 2.875,0 -1.25,3.10938 2.875,0.625 -3.125,3.75 4.25,-2.125 -0.625,2.125 1.5,-0.5 -3,3.75 3.836,-2.125 -1.586,2.875 2.25,-1.5 -3.5,4 4.3555,-2.375 -1.5195,2.875 2.789,-0.5 0.625,1.375 -16,12.875 z m 0,0"
       id="path4188"
       inkscape:connector-curvature="0" />
    <path
       style="fill:#000000;fill-opacity:1;fill-rule:nonzero;stroke:none"
       d="m 1539.332,474.75391 -16.375,-12.14454 3.625,3.89454 -4.375,-2.375 1.625,2.375 -2.625,-1.10157 0.875,2.72657 -2.75,0.55078 1.875,2.32422 -2.75,-0.5 4.75,3 -5.375,-1.5 0,2.75 -1.625,0 3.125,3 -4.625,-1.25 3.5,4.25 -4.125,-2.125 0.75,2.125 -2.0625,-0.5 2.1875,2.75 -4.125,-0.875 17.875,10.875 z m 0,0"
       id="path4190"
       inkscape:connector-curvature="0" />
    <path
       style="fill:#000000;fill-opacity:1;fill-rule:nonzero;stroke:none"
       d="m 1306.793,389.54297 c -2.875,-2.32031 -5.7383,-4.64063 -8.625,-6.92969 -2.8828,-2.28906 -5.7696,-4.55859 -8.7032,-6.74609 -1.4687,-1.09375 -2.9453,-2.16407 -4.4492,-3.17578 -1.4922,-1.02344 -3.0117,-2 -4.5429,-2.80079 -0.7852,-0.39453 -1.4883,-0.69531 -2.25,-0.90625 -0.9493,-0.27734 -1.8907,-0.59765 -2.8047,-1.08984 -0.918,-0.46875 -1.8242,-1.06641 -2.5821,-1.97266 -0.7226,-0.90234 -1.4218,-2.14453 -0.8476,-3.69921 l 0.164,-0.44922 0.2383,-0.043 c 1.2735,-0.73828 2.543,-1.69922 3.586,-2.77344 1.0429,-1.07812 1.9023,-2.34375 2.1718,-3.71484 0.055,-0.34375 0.098,-0.6875 0.07,-1.03125 0,-0.17188 -0.031,-0.34375 -0.051,-0.51563 l -0.094,-0.60156 c -0.1289,-0.81641 -0.2109,-1.66016 -0.1836,-2.50781 0.012,-0.86719 0.1914,-1.62891 0,-2.20703 -0.1875,-0.63282 -0.6211,-1.30079 -1.0508,-1.94532 -1.8164,-2.5664 -3.8945,-5.02734 -5.9296,-7.48828 -2.0508,-2.45312 -4.129,-4.88672 -6.2227,-7.30859 l -0.6875,-0.79688 0.9258,0.48438 0,0 c 2.7265,1.17969 5.5547,2.3125 8.4336,2.77344 0.7109,0.0937 1.4414,0.13671 2.0664,-0.004 0.3555,-0.0898 0.4258,-0.14844 0.5195,-0.33984 0.086,-0.19141 0.1055,-0.51172 0.074,-0.83204 -0.1601,-1.33203 -0.7812,-2.72656 -1.4023,-4.04296 -0.6367,-1.32813 -1.3594,-2.625 -2.1211,-3.90235 -0.3789,-0.63672 -0.7695,-1.27344 -1.1719,-1.89062 -0.3672,-0.53125 -0.8789,-1.19141 -1.3047,-1.78125 -1.7851,-2.42578 -3.4804,-4.92188 -5.1328,-7.44532 -1.6484,-2.52734 -3.2383,-5.09765 -4.6758,-7.78906 -0.7187,-1.34375 -1.3906,-2.72265 -1.9414,-4.19922 -0.5898,-1.49609 -0.8554,-3.01562 -1.1211,-4.52734 -0.4687,-3.03906 -0.5468,-6.08594 -0.4882,-9.12109 0.031,-1.51563 0.1171,-3.03125 0.2773,-4.54297 0.1367,-1.51563 0.3359,-3.02344 0.7109,-4.53907 0.09,-0.3789 0.2149,-0.7539 0.3633,-1.13281 0.1485,-0.36719 0.3789,-0.77734 0.6016,-1.08203 0.4414,-0.64844 0.9414,-1.23828 1.4101,-1.8125 0.9375,-1.15234 1.8086,-2.30078 2.293,-3.63281 1.0234,-2.63672 0.8984,-5.60156 0.3633,-8.4375 -1.0899,-5.73828 -3.6602,-11.17188 -4.8242,-17.40235 -0.2813,-1.57031 -0.4649,-3.21875 -0.2774,-5.0039 0.086,-0.88672 0.2969,-1.82813 0.6914,-2.75 0.1993,-0.46094 0.4414,-0.92188 0.75,-1.34766 0.1485,-0.22656 0.3008,-0.41797 0.4453,-0.57812 0.1485,-0.17188 0.2969,-0.34375 0.4532,-0.5 2.5039,-2.55469 5.4453,-3.91407 8.2812,-5.11719 2.8281,-1.19922 5.7266,-2.09375 8.2696,-3.24219 0.6445,-0.30469 1.164,-0.58594 1.7578,-0.98047 0.6054,-0.39062 1.1914,-0.80859 1.7656,-1.23828 0.5703,-0.43359 1.1328,-0.875 1.6562,-1.34765 0.5079,-0.45313 1.0664,-1 1.4024,-1.42579 l 0.082,0.91797 -3.4453,-5.42187 c -1.1445,-1.8125 -2.3164,-3.58594 -3.3008,-5.53906 -0.1172,-0.25 -0.2344,-0.50391 -0.3242,-0.78516 -0.047,-0.14063 -0.086,-0.28906 -0.1055,-0.47656 0,-0.0977 -0.016,-0.19922 0.039,-0.35547 0.031,-0.14844 0.2383,-0.34766 0.4023,-0.36328 0.3243,-0.0586 0.4688,0.0469 0.6133,0.082 l 0.3711,0.11719 0.7383,0.24218 c 0.5039,0.13282 1.0156,0.25 1.5234,0.35938 0.5157,0.082 1.0313,0.18359 1.5508,0.24609 2.082,0.25781 4.1953,0.28906 6.3008,0.1875 2.1094,-0.0977 4.207,-0.36719 6.2734,-0.76562 2.0586,-0.40625 4.1211,-0.91407 6.0078,-1.71485 3.8243,-1.64062 6.9766,-4.45703 10.3399,-7.13281 0.8476,-0.65234 1.793,-1.32031 2.8281,-1.80859 1.0235,-0.50391 2.086,-0.84766 3.1211,-1.16016 2.0742,-0.60156 4.0703,-1.15234 6.0039,-1.93359 3.6836,-1.3711 6.5547,-4.67969 8.4375,-8.38282 0.2305,-0.46484 0.4375,-0.94531 0.6328,-1.42578 0.1992,-0.47265 0.336,-0.97656 0.5742,-1.53125 0.07,-0.14843 0.1094,-0.27343 0.2774,-0.47656 0.078,-0.0625 0.086,-0.10937 0.2578,-0.18359 0.094,-0.0742 0.4453,-0.0586 0.5547,0.0469 0.2656,0.20313 0.2656,0.32422 0.3203,0.41797 0.1406,0.37109 0.168,0.625 0.2188,0.91406 0.086,0.55469 0.1367,1.09375 0.1835,1.63282 0.039,0.53906 0.055,1.07421 0.055,1.60937 -0.016,0.46875 0.059,0.92578 0.1446,1.41406 0.1953,0.96094 0.4804,1.95703 0.9336,2.86719 0.2226,0.45313 0.4726,0.89844 0.7773,1.27734 0.2773,0.36719 0.7617,0.6836 0.8633,0.56641 0.078,-0.0312 0.1719,-0.18359 0.2969,-0.45703 l 0.375,-0.71875 c 0.2578,-0.47656 0.5195,-0.94531 0.8007,-1.40625 1.1055,-1.84766 2.3711,-3.60156 3.8047,-5.23438 0.7227,-0.8125 1.4961,-1.58593 2.3321,-2.30078 0.8476,-0.71875 1.6992,-1.33984 2.5703,-1.98047 1.7343,-1.26953 3.5156,-2.47656 5.3437,-3.61328 3.668,-2.25781 7.5196,-4.29687 11.75,-5.62109 2.0899,-0.66406 4.375,-1.11328 6.6328,-1.14453 2.1055,-0.0469 4.1914,-0.14063 6.2891,-0.3125 2.0742,-0.16797 4.3281,-0.3711 6.6055,-0.1875 1.1172,0.0781 2.25,0.2539 3.2812,0.41406 0.9883,0.17188 1.9961,0.26172 3.0039,0.32813 2.0117,0.10156 4.043,0.0586 6.0196,-0.25391 0.9882,-0.14453 1.9648,-0.35938 2.8867,-0.66797 0.4648,-0.15234 0.9101,-0.32422 1.3398,-0.52344 l 0.6289,-0.32812 c 0.2617,-0.14063 0.5196,-0.30078 0.7891,-0.42188 2.1562,-1.02734 4.4492,-1.26953 6.625,-1.29687 2.1914,0.0117 4.2969,0.13672 6.4297,0.20312 l 3.1953,0.0664 1.5937,0.0352 c 0.5,-0.004 1.0118,-0.0664 1.5196,-0.15625 1.0234,-0.1875 2.0351,-0.46875 3.0234,-0.82422 0.4922,-0.1836 0.9766,-0.38282 1.4531,-0.59766 l 0.7071,-0.33594 c 0.2461,-0.1289 0.5546,-0.24218 0.8437,-0.29687 1.1836,-0.21485 2.2852,0.0781 3.3125,0.27344 0.5078,0.0937 1.0352,0.19531 1.4258,0.125 0.1953,-0.043 0.2734,-0.0937 0.3594,-0.21485 0.1015,-0.15234 0.2031,-0.3789 0.289,-0.60547 0.3516,-0.92968 0.543,-1.98047 0.7305,-3.00781 0.1836,-1.03125 0.3359,-2.08594 0.4258,-3.125 l 0.1797,-1.73047 1.2773,1.26172 7.0469,6.94922 0,0 0.2305,0.22266 0.043,0.4375 c 0.2071,2.09375 0.7735,4.33203 1.8828,6.01562 0.4688,0.77344 1.2813,1.36328 2.168,2.01172 0.8906,0.61719 1.8555,1.1875 2.8399,1.73047 1.9726,1.09765 4.0312,2.10547 6.1054,3.09375 l 3.1328,1.50781 c 1.0625,0.53516 1.9766,0.94141 3.0625,1.36328 1.0508,0.42578 2.1953,0.84766 3.3555,1.5 1.1523,0.65625 2.2773,1.625 3.0195,2.76172 0.1875,0.28516 0.3828,0.56641 0.5274,0.85938 0.164,0.29687 0.3203,0.58593 0.4258,0.82421 l 0.7343,1.52735 c 0.4766,1.03515 0.9493,2.09765 1.3907,3.17969 0.8632,2.18359 1.8164,4.30859 2.6054,6.58203 0.086,0.29687 0.168,0.59765 0.1875,0.94531 l 0.031,0.88281 c 0.039,0.57813 0.094,1.16016 0.1914,1.73828 0.2031,1.15625 0.4805,2.31641 1.0898,3.47266 l 0,0.004 -0.6054,-1.29297 c 1.9179,1.67187 3.75,3.33984 5.5273,5.25 0.4453,0.5039 0.8789,0.97265 1.3125,1.60547 0.1055,0.13671 0.2227,0.33593 0.332,0.52734 0.1016,0.16406 0.2305,0.43359 0.3086,0.67969 0.1563,0.48828 0.2071,0.92578 0.2227,1.32812 0.027,1.58594 -0.3047,2.82422 -0.5977,4.08203 -0.6289,2.46875 -1.3672,4.79297 -1.8711,7.14844 -0.5117,2.58203 -1.7148,4.95703 -1.9804,7.03125 -0.1289,1.04688 0.016,2.08594 0.3554,3.14453 0.3399,1.00391 0.918,2.24219 1.3477,3.39844 0.8984,2.34766 1.6875,4.70312 2.5,7.03516 0.8242,2.3125 1.6289,4.66406 2.7422,6.71875 0.5273,0.96093 1.3203,1.96484 2.0469,2.92578 0.75,0.96484 1.5273,1.92578 2.3164,2.85156 l 0,0.004 0.9296,1.05078 -1.4609,0.35547 c -2.3437,0.57031 -4.707,1.16015 -7,1.83203 -1.1445,0.35156 -2.2891,0.67968 -3.3867,1.08593 -1.1055,0.40625 -2.1133,0.84375 -3.2344,1.34766 -2.1758,0.99219 -4.2265,2.06641 -6.1133,3.33203 -1.8632,1.30078 -3.5625,2.78906 -5.039,4.50391 -0.7383,0.86719 -1.3946,1.76172 -2.0703,2.73047 -0.6758,0.96484 -1.3164,1.94531 -1.9024,2.94531 -1.1406,1.99219 -2.2148,4.0625 -2.6015,6.09375 -0.2071,1.00391 -0.2188,1.96484 0.062,2.76172 0.07,0.20312 0.1601,0.39062 0.2617,0.57812 0.098,0.19532 0.3008,0.47266 0.4492,0.70703 0.3242,0.48047 0.668,0.96094 1.0273,1.42969 1.418,1.89453 3.0313,3.70313 4.6993,5.45313 l 0,0.004 0.2812,0.27735 -0.1758,0.30859 c -1.3086,2.31641 -2.6289,4.625 -3.9922,6.90234 l -2.0117,3.42969 -1.9922,3.50781 c -0.8554,1.2461 -1.8945,2.14844 -2.9062,3.03516 -1.0117,0.87891 -2.0391,1.72266 -2.9102,2.60547 -0.8086,0.82812 -1.5117,1.94531 -2.207,3.02734 l -2.0898,3.35938 -0.5196,-0.20703 c 0.2891,-1.33594 0.7383,-2.60938 1.3008,-3.85157 0.5664,-1.24218 1.2148,-2.45312 2.2305,-3.5664 0.9883,-1.01563 2.0273,-1.85156 3.0195,-2.71875 0.9766,-0.86328 1.9688,-1.72656 2.6328,-2.66797 0.2774,-0.40234 0.6289,-1.11328 0.9727,-1.67188 0.3437,-0.57812 0.707,-1.14062 1.0625,-1.70312 l 2.1679,-3.35547 c 1.4493,-2.23437 2.961,-4.42187 4.5,-6.59766 l 0.1094,0.58985 0,-0.004 c -2.1836,-1.25 -4.1523,-2.78515 -5.9961,-4.53125 -0.4531,-0.4414 -0.8984,-0.89844 -1.332,-1.36719 -0.2188,-0.25781 -0.4141,-0.4414 -0.6563,-0.75781 -0.2539,-0.30859 -0.4648,-0.65234 -0.6406,-1.01172 -0.7148,-1.44922 -0.8164,-3.02343 -0.6953,-4.42578 0.1484,-1.41406 0.5273,-2.72656 0.9766,-3.96875 0.4453,-1.24609 0.9961,-2.42578 1.6132,-3.55078 1.2344,-2.25 2.5704,-4.37891 4.3047,-6.39453 3.375,-4.05859 8.1446,-6.82031 12.8321,-8.48438 1.1328,-0.4375 2.4062,-0.875 3.6367,-1.17578 1.2383,-0.3164 2.4609,-0.58203 3.6992,-0.77734 2.4687,-0.40625 4.9219,-0.66797 7.418,-0.75 l -0.5352,1.41016 0,-0.004 c -0.8398,-0.94141 -1.6484,-1.88281 -2.4414,-2.85938 -0.7891,-0.99218 -1.5742,-1.91406 -2.2812,-3.09765 -1.3086,-2.28516 -2.1563,-4.62891 -3.0586,-6.95313 -0.8789,-2.32422 -1.7227,-4.64453 -2.6524,-6.90234 -0.4648,-1.15625 -0.9765,-2.14453 -1.4805,-3.47266 -0.4648,-1.27734 -0.7187,-2.74218 -0.582,-4.16406 0.1328,-1.42187 0.5469,-2.69531 0.9024,-3.86719 0.3632,-1.17968 0.6875,-2.30468 0.8984,-3.44922 0.4609,-2.50781 1.1523,-4.9375 1.668,-7.28125 0.25,-1.15625 0.4765,-2.36328 0.4179,-3.26171 -0.016,-0.21485 -0.055,-0.39454 -0.094,-0.49219 -0.016,-0.0508 -0.024,-0.0625 -0.09,-0.15625 -0.047,-0.0781 -0.082,-0.14844 -0.1718,-0.25391 -0.2774,-0.38281 -0.6914,-0.82031 -1.0782,-1.23437 -1.6523,-1.67188 -3.5312,-3.29297 -5.3906,-4.82032 l -0.4297,-0.35156 -0.1797,-0.9414 0,-0.004 c 0.6094,-1.15625 0.8829,-2.31641 1.0899,-3.47266 0.094,-0.57812 0.1523,-1.16015 0.1875,-1.73828 0.012,-0.28125 0.027,-0.59375 0.023,-0.85156 -0.012,-0.22656 -0.078,-0.49219 -0.1562,-0.75 -0.7617,-2.10156 -2.2774,-3.94531 -3.6563,-5.79688 -0.7031,-0.92968 -1.3867,-1.8789 -2.0234,-2.86718 -0.3203,-0.4961 -0.6211,-1.00782 -0.9024,-1.53516 l -0.3945,-0.71094 c -0.1133,-0.22265 -0.2539,-0.41406 -0.3867,-0.61718 -0.5391,-0.79297 -1.2305,-1.36329 -2.0859,-1.84766 -0.8672,-0.47656 -1.9024,-0.85938 -3,-1.28516 -1.0743,-0.41797 -2.2735,-0.96484 -3.2735,-1.47656 l -3.1172,-1.52734 c -2.0781,-1.05078 -4.1601,-2.12891 -6.1992,-3.34766 -1.0156,-0.62109 -2.0195,-1.27734 -3,-2.01953 -0.4883,-0.37891 -0.9765,-0.77344 -1.4375,-1.24609 -0.2305,-0.23047 -0.4609,-0.48438 -0.6797,-0.76563 -0.1093,-0.13281 -0.2148,-0.30078 -0.3203,-0.44922 l -0.2461,-0.42578 c -1.2578,-2.32031 -1.707,-4.75391 -1.6719,-7.26562 l 0.2735,0.65625 0,0 -6.9453,-7.04688 1.457,-0.46875 0,0.004 c -0.5625,2.10937 -1.0195,4.17578 -1.9063,6.25 -0.125,0.26172 -0.25,0.51953 -0.4648,0.79687 -0.2383,0.31641 -0.6719,0.51172 -1,0.53516 -0.6758,0.0547 -1.207,-0.0937 -1.7383,-0.21094 -1.0351,-0.24609 -2.0547,-0.55469 -2.9922,-0.37891 -0.2382,0.043 -0.4336,0.11329 -0.664,0.22266 l -0.7383,0.33984 c -0.4961,0.21875 -1,0.41407 -1.5078,0.59375 -1.0156,0.375 -2.0508,0.6836 -3.125,0.89454 -0.5352,0.10156 -1.0821,0.17187 -1.6485,0.18359 l -4.7929,0.10547 c -2.1211,0.0977 -4.2813,0.0977 -6.3399,0.33203 -2.0586,0.23047 -4.0742,0.70312 -5.6914,1.70312 l -1.3203,0.89063 c -0.5117,0.30469 -1.0312,0.57422 -1.5625,0.80859 -1.0625,0.46094 -2.1523,0.80078 -3.25,1.0586 -2.2031,0.50781 -4.4531,0.71484 -6.6953,0.64062 -1.1172,-0.0508 -2.2383,-0.13281 -3.3477,-0.30469 -1.0742,-0.15625 -2.0429,-0.32812 -3.0507,-0.40625 -1.9766,-0.19531 -3.9844,-0.004 -6.1563,0.10547 -2.1484,0.10547 -4.3203,0.15625 -6.4726,0.1211 -2.0079,-0.0742 -3.961,0.19922 -5.9571,0.71484 -3.9726,1.02344 -7.8242,2.77734 -11.5312,4.75391 -1.8555,1 -3.6719,2.07422 -5.4492,3.21875 -0.875,0.57422 -1.7696,1.16797 -2.5821,1.79297 -0.8125,0.6289 -1.582,1.32812 -2.3125,2.07421 -1.4492,1.5 -2.7304,3.1836 -3.875,4.94532 -0.289,0.4414 -0.5625,0.89062 -0.8242,1.34375 l -0.3867,0.68359 c -0.1172,0.1875 -0.2344,0.57813 -0.6485,0.79297 -0.2031,0.11328 -0.4453,0.11719 -0.6406,0.082 -0.1914,-0.043 -0.3594,-0.11719 -0.4961,-0.20312 -0.2851,-0.16797 -0.5039,-0.36719 -0.707,-0.57813 -0.4023,-0.41406 -0.7461,-0.86328 -1.0469,-1.33203 -0.6015,-0.94141 -1.1172,-1.94141 -1.4258,-3.05078 -0.1523,-0.54688 -0.25,-1.14844 -0.2539,-1.74219 0,-0.53516 0.016,-1.0625 0.043,-1.58984 0.031,-0.52344 0.062,-1.05078 0.062,-1.55469 0,-0.24219 -0.016,-0.51953 -0.043,-0.66016 0.01,-0.0273 -0.043,-0.0391 0.1133,0.0898 0.047,0.0234 0.1016,0.0469 0.1875,0.0586 0.094,0 0.1445,-0.0156 0.1797,-0.0273 0.1055,-0.0586 0.074,-0.043 0.098,-0.0703 -0.01,0 -0.086,0.11719 -0.1329,0.20704 -0.2031,0.41796 -0.3554,0.9414 -0.539,1.46093 -0.1875,0.51172 -0.3906,1.01563 -0.6055,1.51563 -0.8633,1.99219 -1.9062,3.93359 -3.3086,5.66797 -1.3711,1.72265 -3.2422,3.25 -5.4023,4.00781 -2.0313,0.78906 -4.1563,1.33984 -6.1758,1.89453 -1.0078,0.28516 -1.9805,0.58984 -2.875,1.01563 -0.9023,0.41406 -1.7148,0.96484 -2.5664,1.59765 -3.3516,2.4961 -6.75,5.35156 -10.8594,6.96875 -4.1406,1.51172 -8.4336,1.9961 -12.7226,2.20703 -2.1485,0.0742 -4.3047,0.0156 -6.4454,-0.28125 -0.5351,-0.0703 -1.0664,-0.18359 -1.6015,-0.27343 -0.5274,-0.125 -1.0547,-0.25 -1.582,-0.39844 l -1.3243,-0.44531 c 0.027,0 0.1328,-0.0859 0.125,-0.10938 0.01,-0.0352 0,0.004 0.01,0.0352 0.01,0.0781 0.031,0.1914 0.07,0.30078 0.074,0.22265 0.1836,0.45703 0.2968,0.6875 0.9453,1.84375 2.2032,3.58594 3.4493,5.29297 1.2656,1.69922 2.6054,3.36328 4.0039,4.95312 l 0.3281,0.3711 -0.2461,0.54687 0,0.004 c -0.2188,0.48047 -0.4063,0.78515 -0.6328,1.14843 -0.2188,0.34766 -0.4492,0.67969 -0.6992,0.99219 -0.4922,0.62891 -1.0079,1.23438 -1.5625,1.79688 -0.5586,0.55468 -1.125,1.10156 -1.7149,1.61328 -0.5898,0.53906 -1.3476,1.05469 -2.0195,1.46094 -1.3828,0.84765 -2.7813,1.5039 -4.1602,2.13671 l -4.0547,1.85547 c -1.3242,0.61328 -2.5937,1.28516 -3.7851,1.98047 -1.1836,0.70703 -2.2813,1.49219 -3.1133,2.38281 -0.4492,0.49219 -0.6914,0.80469 -0.9023,1.25391 -0.211,0.44922 -0.3672,0.98438 -0.4414,1.58984 -0.1485,1.19922 -0.082,2.57422 0.078,3.96485 0.7304,5.64453 2.6523,11.5039 3.2265,17.68359 0.1133,1.55469 0.1563,3.11719 -0.035,4.69141 -0.1602,1.5625 -0.5313,3.14062 -1.2227,4.58203 -0.6797,1.44922 -1.6797,2.70703 -2.6914,3.82031 -0.5078,0.5625 -1.0078,1.10156 -1.4375,1.67578 -0.4375,0.53125 -0.6484,1.16016 -0.8476,1.8711 -0.7305,2.8164 -0.7032,5.85937 -0.5821,8.80859 0.1368,2.96875 0.5039,5.92578 1.0352,8.80859 0.2617,1.4375 0.5703,2.88282 1.0508,4.19532 0.4765,1.34375 1.0976,2.68359 1.7695,3.99609 1.3516,2.62891 2.8828,5.19141 4.4688,7.72266 1.582,2.52734 3.2578,5.00781 4.9414,7.48047 0.4296,0.64062 0.8281,1.17578 1.2929,1.89453 0.3946,0.65234 0.7696,1.30859 1.1367,1.97265 0.7305,1.33203 1.4258,2.6836 2.043,4.07813 0.5938,1.41406 1.207,2.8164 1.3594,4.48437 0.02,0.42188 0.016,0.88672 -0.2188,1.375 -0.1211,0.24219 -0.3281,0.47657 -0.5742,0.6211 -0.2656,0.15625 -0.4922,0.1875 -0.6992,0.23828 -0.8555,0.14062 -1.6445,0.0351 -2.4102,-0.0977 -3.0351,-0.64844 -5.7851,-1.91015 -8.4687,-3.29297 l 0,0 0.2383,-0.3164 c 2.1836,2.34765 4.3476,4.70703 6.4883,7.08984 2.1328,2.39844 4.2812,4.75781 6.2578,7.34766 0.4726,0.66797 0.9765,1.33203 1.2851,2.23047 0.1563,0.44531 0.1914,0.96484 0.1758,1.38281 -0.012,0.42187 -0.039,0.80469 -0.031,1.17969 0,0.7539 0.1054,1.50781 0.25,2.26562 l 0.1132,0.58203 c 0.035,0.22266 0.082,0.44531 0.09,0.67578 0.047,0.45313 0.012,0.91016 -0.047,1.35938 -0.2891,1.80859 -1.2891,3.32031 -2.4062,4.57422 -1.1485,1.25781 -2.418,2.30078 -3.879,3.22265 l 0,0 0.4063,-0.49218 c 0.062,-0.0274 0.09,0.17187 0.1601,0.26171 0.055,0.11719 0.1446,0.22657 0.2266,0.33985 0.1797,0.21875 0.4141,0.42578 0.6836,0.63281 0.543,0.41016 1.2617,0.74609 2,1.06641 0.7422,0.3125 1.5586,0.5664 2.3711,0.83593 1.0039,0.3125 1.9766,0.80079 2.8164,1.27735 3.3594,1.98437 6.2148,4.34375 9.0547,6.7539 2.8203,2.42579 5.5351,4.94141 8.1758,7.53125 1.3281,1.28516 2.6211,2.60938 3.9062,3.9375 1.2852,1.32813 2.5625,2.66407 3.7969,4.04297 z m 0,0"
       id="path4192"
       inkscape:connector-curvature="0" />
    <path
       style="fill:#000000;fill-opacity:1;fill-rule:nonzero;stroke:none"
       d="m 1310.6445,336.36719 c 1.4219,-2.55078 3.1055,-4.92578 5.0664,-7.125 0.4961,-0.55469 1.0196,-1.07813 1.5899,-1.58203 0.2812,-0.25391 0.5859,-0.5 0.9101,-0.73047 0.1875,-0.13672 0.25,-0.19922 0.3633,-0.28125 l 0.1524,-0.11719 0.098,-0.13281 c 0.5821,-0.58985 0.1328,-1.96094 -0.6172,-3.10157 -0.7382,-1.17187 -1.707,-2.25781 -2.7617,-3.21875 -0.5195,-0.5 -1.0937,-0.92968 -1.6562,-1.375 l -0.8477,-0.71875 -0.7461,-0.8164 c -0.914,-1.15235 -1.6445,-2.44141 -2.2109,-3.79688 -0.6094,-1.34765 -0.9805,-2.79297 -1.2227,-4.26562 -0.4258,-2.9375 -0.1367,-6.10547 1.211,-8.88281 1.3007,-2.8086 3.4921,-5.08204 5.9336,-6.83204 1.2382,-0.875 2.5937,-1.58203 3.9921,-2.16406 1.4297,-0.5039 2.8829,-0.9414 4.3829,-1.11328 1.4921,-0.23828 3.0078,-0.20312 4.4921,-0.0781 1.4883,0.17578 2.9454,0.52734 4.3477,1.03515 1.3828,0.5586 2.7148,1.24219 3.8984,2.16016 1.1641,1.02344 2.1133,1.92187 3.3594,2.64453 2.418,1.46875 5.1367,2.46875 7.8633,3.29297 5.4844,1.60156 11.2109,2.44531 16.8516,2.29687 2.8125,-0.11718 5.6132,-0.49218 8.1835,-1.41015 1.2618,-0.42969 2.5938,-1.07813 3.8711,-1.67969 1.3008,-0.58984 2.5782,-1.22656 3.8633,-1.85547 2.5625,-1.27734 5.0274,-2.74609 7.5274,-4.22266 1.2539,-0.72265 2.539,-1.46093 3.9648,-1.83203 0.7031,-0.1875 1.4024,-0.35156 2.0352,-0.67968 0.3086,-0.16407 0.6172,-0.35157 0.832,-0.58594 0.094,-0.11719 0.1875,-0.25 0.1797,-0.33594 0.01,-0.0781 -0.094,-0.0977 -0.074,-0.0117 l 0,0.004 0.414,0.14453 c -4.4648,0.125 -8.9101,0.0352 -13.2187,-1.08203 l -6.3164,-1.96094 c -1.0547,-0.33203 -2.1016,-0.6875 -3.1446,-1.07422 -1.0429,-0.40625 -2.082,-0.80469 -3.0625,-1.51953 -0.2382,-0.19141 -0.4843,-0.40625 -0.6835,-0.71484 -0.2032,-0.29688 -0.3204,-0.79688 -0.1641,-1.21485 0.3164,-0.71093 0.75,-1.10937 1.1797,-1.5039 0.8672,-0.77344 1.789,-1.41016 2.7187,-2.03516 1.8594,-1.23828 3.7969,-2.32422 5.7383,-3.37891 l 2.9414,-1.53125 c 0.9844,-0.49609 1.8672,-0.98437 2.8281,-1.5625 1.9063,-1.09765 3.9063,-2.18359 6.0743,-2.89453 1.0781,-0.375 2.2031,-0.62109 3.3398,-0.75781 1.1445,-0.0859 2.3047,-0.0977 3.4297,0.14063 2.2812,0.41015 4.2656,1.65625 6.043,2.95703 1.8007,1.3125 3.4843,2.75781 5.2109,4.10156 1.7227,1.33594 3.4805,2.62891 5.3711,3.41016 1.8828,0.82812 3.8711,0.92578 5.7656,0.34765 1.9531,-0.58984 3.8633,-1.58203 5.5977,-2.78515 1.7461,-1.1875 3.4609,-2.73829 5.6172,-3.66016 2.1484,-0.91406 4.4804,-1.07031 6.6718,-0.82031 l 0,0.0859 c -2.1953,0.23438 -4.332,0.75391 -6.1523,1.78516 -1.8164,1.04297 -3.2891,2.625 -5.0977,4.01953 -0.8828,0.71485 -1.8554,1.34766 -2.8672,1.89844 -0.5117,0.25781 -1.0156,0.55078 -1.5468,0.76172 -0.5274,0.22656 -1.043,0.46875 -1.6446,0.61719 -2.3046,0.75 -5.0078,0.51171 -7.082,-0.61719 -4.2109,-2.21094 -6.8789,-5.84375 -10.332,-8.5 -0.8672,-0.64844 -1.75,-1.28906 -2.6953,-1.79688 -0.4883,-0.20703 -0.9414,-0.5 -1.4571,-0.625 l -0.7578,-0.24218 c -0.2539,-0.0586 -0.5234,-0.082 -0.7812,-0.125 -2.0977,-0.35157 -4.2227,0.21484 -6.168,1.03125 -1.9609,0.83203 -3.7617,2.02734 -5.6328,3.17968 -0.918,0.5625 -1.9453,1.17188 -2.9414,1.64063 l -2.9492,1.46094 c -1.961,0.97265 -3.9102,1.96484 -5.8047,3.02734 -0.9336,0.53906 -1.8711,1.10156 -2.6875,1.74609 -0.4141,0.30078 -0.7891,0.69922 -0.9492,0.97657 -0.047,0.10156 -0.055,0.19531 0.031,0.36328 0.086,0.16015 0.2461,0.33593 0.4219,0.5 0.7617,0.64453 1.7617,1.13672 2.7422,1.58984 0.9883,0.45703 2.0156,0.84766 3.0429,1.23438 2.0586,0.7539 4.1524,1.48437 6.2344,2.14453 2.1055,0.59375 4.3008,0.84375 6.4922,0.88672 2.1836,0.0469 4.3906,-0.11719 6.5234,-0.4961 l 0.2539,-0.043 0.1602,0.1875 0,0.004 c 0.2617,0.36328 0.1953,0.76172 0.047,1.00781 -0.1485,0.25 -0.3399,0.35938 -0.5117,0.48047 -0.3516,0.21094 -0.7071,0.32813 -1.0586,0.45703 -0.6953,0.24219 -1.4141,0.39063 -2.0899,0.61328 -1.3633,0.42578 -2.5781,1.21094 -3.7422,2.04297 -2.3203,1.69141 -4.6132,3.5 -7.0859,5.05469 -1.2227,0.79297 -2.4883,1.53125 -3.7812,2.21094 -0.6407,0.34765 -1.3008,0.66015 -1.9571,0.98047 -0.6328,0.33984 -1.3515,0.59765 -2.0703,0.86328 -2.8633,1.03906 -5.8633,1.38281 -8.8164,1.42578 -5.9062,-0.0859 -11.6914,-1.23438 -17.2031,-3.125 -2.7539,-0.94531 -5.4649,-2.03906 -7.9883,-3.57031 -1.2656,-0.73047 -2.4063,-1.84375 -3.4336,-2.69532 -1.1133,-0.83984 -2.3828,-1.45312 -3.707,-1.89843 -2.6719,-0.83594 -5.543,-0.89844 -8.2383,-0.3125 -2.7109,0.55859 -5.2344,1.76953 -7.4258,3.40625 -2.2148,1.6289 -4.1328,3.6289 -5.4414,5.98828 -0.6641,1.17578 -1.1367,2.45703 -1.4727,3.78906 -0.2851,1.33594 -0.4375,2.72656 -0.3554,4.12109 0.1289,2.77735 0.9804,5.6211 2.6758,7.90235 l 0.6875,0.80468 c 0.2617,0.23438 0.5156,0.47657 0.7851,0.70313 l 1.7344,1.32031 c 1.1328,0.90625 2.3164,1.77344 3.3398,2.89453 0.5235,0.55078 0.9883,1.19141 1.3203,1.98047 0.078,0.20313 0.1524,0.40625 0.1836,0.64063 0.043,0.23047 0.086,0.45703 0.055,0.71484 -0.01,0.25 -0.039,0.5 -0.1445,0.74219 l -0.1445,0.35937 -0.2149,0.3086 -0.2226,0.30078 -0.2618,0.23047 c -0.1679,0.14453 -0.3789,0.32031 -0.4882,0.39453 -0.2618,0.17969 -0.5274,0.38281 -0.7852,0.60937 -0.5195,0.4375 -1.0078,0.94141 -1.5156,1.42969 -1.9805,2.01563 -3.8633,4.19531 -5.8399,6.30469 z m 0,0"
       id="path4194"
       inkscape:connector-curvature="0" />
    <path
       style="fill:#000000;fill-opacity:1;fill-rule:nonzero;stroke:none"
       d="m 1420.8555,389.59766 c -3.5586,1.05078 -7.1485,1.96093 -10.7617,2.79687 -1.8008,0.44141 -3.625,0.79297 -5.4493,1.15234 -1.8281,0.34766 -3.6601,0.67579 -5.5507,0.88672 -3.7657,0.3125 -7.4649,0.33203 -11.1758,0.3125 l -5.5586,-0.10937 -5.5274,-0.21485 0,-1.83593 c 3.7383,-0.0742 7.4102,0.0195 11.1055,0.0469 3.6797,0.0234 7.3906,0.13281 11,-0.0937 3.6055,-0.23047 7.2695,-0.86719 10.9141,-1.40234 l 10.9609,-1.73047 z m 0,0"
       id="path4196"
       inkscape:connector-curvature="0" />
    <path
       style="fill:#000000;fill-opacity:1;fill-rule:nonzero;stroke:none"
       d="m 1378.8477,389.51953 c -0.3164,0.83594 -0.6485,1.57813 -0.8868,2.30469 -0.2461,0.73828 -0.3867,1.38281 -0.3164,2.01953 0.07,0.6875 0.3008,1.44531 0.5274,2.21875 0.2344,0.77344 0.4961,1.55859 0.7031,2.41406 l -0.086,0.0547 c -0.6993,-0.55078 -1.2461,-1.22656 -1.7149,-1.96484 -0.4648,-0.74219 -0.8398,-1.5586 -0.9922,-2.53125 -0.1523,-1.03125 0.1993,-2.0625 0.7149,-2.80079 0.5234,-0.75781 1.1914,-1.375 2.0195,-1.74609 z m 0,0"
       id="path4198"
       inkscape:connector-curvature="0" />
    <path
       style="fill:#000000;fill-opacity:1;fill-rule:nonzero;stroke:none"
       d="m 1389.832,400.44141 6.3125,-0.35938 c 2.1016,-0.13281 4.2032,-0.27734 6.293,-0.45703 1.043,-0.0937 2.082,-0.21094 3.1133,-0.36719 1.0117,-0.16797 2.043,-0.375 3.0703,-0.59375 l 6.1797,-1.26562 0.066,0.20703 c -1.957,0.83984 -3.9922,1.44531 -6.0508,1.9414 -1.0312,0.23438 -2.0664,0.46875 -3.1367,0.60938 -1.0586,0.14062 -2.1172,0.23828 -3.1719,0.3125 -2.1133,0.16406 -4.2305,0.21875 -6.3437,0.22656 -2.1094,0.0195 -4.2227,-0.0273 -6.3321,-0.1289 z m 0,0"
       id="path4200"
       inkscape:connector-curvature="0" />
    <path
       style="fill:#000000;fill-opacity:1;fill-rule:nonzero;stroke:none"
       d="m 1405.332,373.00391 14,-2 c 0,0 -3,4 -5,5 -2,1 -4,0 -6,-1 -2,-1 -3,-2 -3,-2"
       id="path4202"
       inkscape:connector-curvature="0" />
    <path
       style="fill:#000000;fill-opacity:1;fill-rule:nonzero;stroke:none"
       d="m 1386.332,336.00391 6,-7 c 0,0 -1,-1 -3,-1 -2,0 -9,1 -15,1 -6,0 -12,-3 -16,-2 -4,1 -19,11 -19,11 l 2,0 c 0,0 15,-6 18,-6 3,0 10,1 15,2 5,1 12,2 12,2"
       id="path4204"
       inkscape:connector-curvature="0" />
    <path
       style="fill:#000000;fill-opacity:1;fill-rule:nonzero;stroke:none"
       d="m 1416.332,331.00391 -3,-3 c 0,0 1.6602,0.0234 3,-1 3.2344,-2.46485 8.4688,-7.58594 12,-9 5,-2 13.8907,-1.22657 13.8907,-1.22657 l 1.2304,5.50782 c 0,0 -9.1211,-1.28125 -13.1211,0.71875 -4,2 -14,8 -14,8"
       id="path4206"
       inkscape:connector-curvature="0" />
    <path
       style="fill:#000000;fill-opacity:1;fill-rule:nonzero;stroke:none"
       d="m 1387.332,335.00391 c 0,0 -11,0 -17,1 -6,1 -15,2 -14,3 1,1 10,2 13,2 3,0 13,-3 15,-4 2,-1 3,-2 3,-2"
       id="path4208"
       inkscape:connector-curvature="0" />
    <path
       style="fill:#000000;fill-opacity:1;fill-rule:nonzero;stroke:none"
       d="m 1417.332,330.00391 c 0,0 9,-3 16,-4 7,-1 10,-1 10,-1 0,0 -5,5 -10,6 -5,1 -14,0 -15,0 -1,0 -1,-1 -1,-1"
       id="path4210"
       inkscape:connector-curvature="0" />
    <path
       style="fill:#000000;fill-opacity:1;fill-rule:nonzero;stroke:none"
       d="m 1321.2813,369.72656 c -0.379,1.47266 -1.1758,2.78516 -2.4102,3.83985 -1.2266,1.05859 -2.9648,1.6914 -4.7227,1.58203 -0.8828,-0.0586 -1.8476,-0.28907 -2.6562,-0.79688 -0.8164,-0.48437 -1.4453,-1.14062 -1.9492,-1.79297 -0.9922,-1.32031 -1.5391,-2.65625 -2.0703,-3.91015 -0.5118,-1.27344 -0.9688,-2.47657 -1.5079,-3.61328 -0.5468,-1.15235 -1.1953,-2.28125 -1.9062,-3.39844 -1.4063,-2.24219 -3.0859,-4.39063 -4.6328,-6.63281 -0.8203,-1.125 -1.4844,-2.42579 -1.8281,-3.82032 -0.3438,-1.40625 -0.2618,-2.85547 -0.039,-4.21875 0.2539,-1.37109 0.5742,-2.64843 0.9062,-4.0039 0.3985,-1.375 1.1563,-2.65625 2.1758,-3.71094 1.0274,-1.05078 2.3125,-1.84375 3.6758,-2.36328 1.2695,-0.52735 3.043,-0.85547 4.5625,-0.39453 1.5274,0.41015 2.8203,1.25781 3.8789,2.25 1.0586,1.00781 1.9024,2.15234 2.4922,3.48437 l -0.832,0.55469 c -1.9414,-1.73828 -3.9688,-3.41797 -6.1407,-4.05078 -1.0976,-0.30469 -2.1093,-0.26563 -3.3945,0.0195 -1.2187,0.24609 -2.3906,0.70312 -3.3789,1.45703 -0.9766,0.75781 -1.6992,1.84375 -2.082,3.04688 -0.3555,1.2539 -0.7305,2.58203 -0.9531,3.86718 -0.2305,1.28907 -0.2266,2.58985 0.1132,3.80469 0.3555,1.21875 1.0235,2.31641 1.8477,3.32422 1.6914,2.07422 3.5664,3.98828 5.4101,6.04687 0.9102,1.03907 1.8008,2.12891 2.5899,3.32032 0.8125,1.19922 1.4492,2.46093 2.0625,3.64062 0.6016,1.1875 1.1914,2.32031 1.8281,3.15625 0.6875,0.82031 1.2539,1.22656 2.1524,1.37891 0.9336,0.15625 1.9375,0.0391 2.9531,-0.41406 1.0117,-0.4336 2.0351,-1.22266 2.9609,-2.09766 z m 0,0"
       id="path4212"
       inkscape:connector-curvature="0" />
    <path
       style="fill:none;stroke:#000000;stroke-width:1;stroke-linecap:butt;stroke-linejoin:miter;stroke-miterlimit:10;stroke-opacity:1"
       d="m 0.0019125,-0.00190625 c 0,0 9.0117185,-25.37499975 11.0117185,-36.37499975 2,-11 6,-42 3,-52 -3,-10 -10,-33.000004 -12,-37.000004 -1.9999997,-4 -4.4375,-8.34765 -4.4375,-8.34765"
       transform="matrix(1,0,0,-1,1430.8184,273.127)"
       id="path4214"
       inkscape:connector-curvature="0" />
    <path
       style="fill:#000000;fill-opacity:1;fill-rule:nonzero;stroke:none"
       d="m 1413.332,328.00391 4,33 c 0,0 -2,-21 -1,-24 1,-3 2,-4 3,-5 1,-1 1,-2 1,-2 z m 0,0"
       id="path4216"
       inkscape:connector-curvature="0" />
    <path
       style="fill:#000000;fill-opacity:1;fill-rule:nonzero;stroke:none"
       d="m 1530.9414,450.27734 -6.6875,10.4961 -0.3359,0.52343 -0.4375,-0.4414 -0.055,-0.0508 -0.9453,-0.94922 0.7812,-0.0937 -0.043,0.0664 -9.0821,14.94532 -2.2695,3.73437 -1.1367,1.86719 -0.5664,0.9375 -0.2852,0.46484 c -0.051,0.0859 -0.074,0.17188 -0.082,0.26953 0,0.1875 0.09,0.375 0.2461,0.48047 l 0.2265,0.125 c 0.1133,0.0703 0.2227,0.15625 0.3164,0.25391 0.1875,0.19531 0.3164,0.44141 0.3868,0.70312 0.066,0.26172 0.066,0.54297 -0.01,0.80469 -0.09,0.29297 -0.1679,0.39844 -0.2421,0.57813 l -0.4571,0.99609 -9.1601,19.86328 -1.836,3.97656 c -0.6914,1.33204 -1.4804,2.56641 -2.2851,3.79297 -1.625,2.44532 -3.3516,4.81641 -5.211,7.08985 -0.9414,1.13281 -1.8984,2.25 -3.0234,3.26953 -0.2852,0.25781 -0.5898,0.5 -0.9375,0.72656 -0.1836,0.10938 -0.3828,0.21484 -0.6367,0.29297 -0.332,0.0898 -0.582,0.0195 -0.8399,-0.0312 -0.9336,-0.33594 -1.4375,-0.94531 -1.9531,-1.50391 -1.9375,-2.32422 -3.3437,-4.87109 -5.0039,-7.24218 -0.4062,-0.60938 -0.8359,-1.14063 -1.2578,-1.78125 -0.4414,-0.63282 -0.7891,-1.26563 -1.1758,-1.89844 -0.7344,-1.26563 -1.4453,-2.54297 -2.1445,-3.82422 -1.3945,-2.56641 -2.7617,-5.14453 -4.1133,-7.73047 -2.7031,-5.16797 -5.3594,-10.35937 -8,-15.55859 l -3.9648,-7.85938 c -0.2071,-0.52734 -0.1133,-1.16015 0.2382,-1.60156 0.1563,-0.21875 0.4375,-0.41016 0.625,-0.49609 0.1094,-0.0508 0.1485,-0.0937 0.2071,-0.16407 0.094,-0.13281 0.1211,-0.32031 0.051,-0.46875 l -0.4688,-0.94531 -1.957,-3.91016 -3.918,-7.8164 -1.957,-3.91016 -0.9766,-1.95312 -0.4922,-0.98047 -0.2422,-0.48828 c -0.051,-0.0977 -0.074,-0.14063 -0.09,-0.16407 -0.023,-0.0351 -0.051,-0.0625 -0.078,-0.0898 -0.1211,-0.10156 -0.3008,-0.14453 -0.4532,-0.0898 -0.016,0.004 -0.035,0.0156 -0.055,0.0234 l -0.168,0.0703 c -0.1328,0.0508 -0.2735,0.0859 -0.4141,0.0976 -0.2851,0.0312 -0.5742,-0.0117 -0.8359,-0.125 -0.2617,-0.10937 -0.4961,-0.29297 -0.668,-0.52343 -0.086,-0.11329 -0.1523,-0.23829 -0.2109,-0.36719 l -0.1055,-0.25391 -0.418,-1 c -0.5703,-1.32422 -1.1796,-2.63672 -1.8711,-3.8789 -0.3437,-0.6211 -0.7187,-1.22266 -1.1328,-1.75391 -0.2031,-0.25781 -0.4297,-0.50391 -0.6367,-0.64453 -0.047,-0.0274 -0.1094,-0.0781 -0.1406,-0.0899 -0.031,0.0156 0,-0.0117 -0.07,-0.008 -0.1055,-0.008 -0.2461,0.004 -0.3985,0.0274 -1.2773,0.23046 -2.6406,0.85156 -3.9296,1.4375 -2.5977,1.23046 -5.1211,2.66796 -7.5235,4.25781 -1.1992,0.79687 -2.3672,1.64062 -3.4336,2.5664 -0.5234,0.46485 -1.0312,0.95704 -1.4062,1.47266 -0.1758,0.24609 -0.336,0.54297 -0.3282,0.67188 -0.016,0.21875 0.051,0.55468 0.1329,0.85546 0.3984,1.26563 1.1445,2.51954 1.9101,3.71094 0.7891,1.19922 1.6445,2.36328 2.5352,3.4961 l 0.6797,0.85156 c 0.3671,0.45312 0.4648,1.10547 0.2539,1.64453 -0.078,0.25781 -0.3125,0.54687 -0.4493,0.66797 l -0.3867,0.38672 -0.1914,0.19531 -0.098,0.0937 -0.035,0.043 c -0.043,0.0586 -0.07,0.1289 -0.082,0.20312 -0.024,0.16407 0.016,0.22266 0.2461,0.61719 l 0.5429,0.94922 1.086,1.89453 8.6836,15.17969 0.5429,0.94922 0.2579,0.44922 c 0.039,0.0625 0.094,0.11328 0.1562,0.14453 0.07,0.0351 0.1289,0.0547 0.2188,0.0547 l 0.5468,-0.004 c 0.1367,0 0.4649,-0.0117 0.7422,0.0859 0.2774,0.0937 0.5352,0.25781 0.7305,0.47656 0.094,0.0976 0.1953,0.26172 0.2344,0.33203 l 0.1406,0.23828 0.2695,0.47266 0.5469,0.94531 1.0976,1.89453 4.375,7.57813 17.4727,30.32421 4.3711,7.58204 1.0898,1.89453 c 0.1836,0.30859 0.375,0.625 0.5235,1.03515 0.1367,0.38282 0.2422,0.75782 0.3203,1.13282 0.3242,1.49609 0.4375,2.97265 0.5039,4.45312 0.2461,5.80078 0.6211,11.64453 0.9258,17.46094 l 1.9258,34.94531 0.1171,2.1875 0.031,0.54297 c 0.016,0.16016 0.016,0.22656 0.055,0.33594 0.062,0.1875 0.2305,0.38281 0.4648,0.55468 0.9961,0.6875 2.4844,0.95313 3.8672,1.16016 2.832,0.375 5.7422,0.40234 8.6445,0.41797 2.8985,0.10156 5.711,-0.3125 8.5469,-0.91797 1.4141,-0.29687 2.8203,-0.64453 4.2149,-1.02734 l 2.0859,-0.59766 0.5156,-0.16016 c 0.082,-0.0234 0.1485,-0.0664 0.2071,-0.1289 0.055,-0.0586 0.094,-0.13281 0.1132,-0.21094 0.02,-0.0898 0.02,-0.12109 -0.01,-0.34375 l -3.5312,-34.79687 -1.7735,-17.4375 c -0.031,-1.48047 0.027,-2.96094 0.1602,-4.42969 0.07,-0.73438 0.1523,-1.46875 0.2539,-2.19922 0.031,-0.36328 0.1719,-0.74609 0.2578,-1.12109 0.1016,-0.3711 0.1836,-0.76172 0.332,-1.09375 1.0235,-2.80469 2.3633,-5.39454 3.668,-8.01563 5.3711,-10.38281 11.2774,-20.44141 17.2227,-30.47656 l 2.2461,-3.75391 1.1289,-1.87109 0.5664,-0.9375 c 0.1094,-0.16797 0.1484,-0.27735 0.3437,-0.52735 0.1758,-0.21093 0.4102,-0.37109 0.6641,-0.46484 0.2617,-0.0977 0.5391,-0.12109 0.8125,-0.0781 0.2773,0.0391 0.5273,0.18359 0.6562,0.24609 0.1993,0.10937 0.375,0.0937 0.543,0.008 0.082,-0.0469 0.1445,-0.11328 0.1953,-0.1914 l 0.8438,-1.40625 2.25,-3.7461 4.5039,-7.49609 2.25,-3.7461 1.125,-1.875 c 0.082,-0.13671 0.2187,-0.35937 0.25,-0.42187 0.039,-0.0859 0.059,-0.17969 0.051,-0.27344 0,-0.0469 -0.012,-0.0937 -0.031,-0.13672 l -0.023,-0.0625 -0.062,-0.12109 -0.2422,-0.48828 c -0.078,-0.17188 -0.168,-0.28906 -0.2617,-0.58203 -0.078,-0.26172 -0.086,-0.54297 -0.024,-0.8086 0.047,-0.25781 0.2344,-0.53515 0.3125,-0.65234 l 0.2969,-0.45703 1.168,-1.83594 c 0.7695,-1.23047 1.5234,-2.47266 2.2304,-3.73047 0.3477,-0.63281 0.6954,-1.26562 1.0079,-1.90625 0.3007,-0.63281 0.6289,-1.3125 0.7539,-1.90234 0.1836,-0.30078 -0.375,-0.96094 -0.7813,-1.48438 -0.4453,-0.54297 -0.9375,-1.07031 -1.4375,-1.58203 -2.0234,-2.05078 -4.2226,-3.96094 -6.4883,-5.7539 -1.1367,-0.89454 -2.3008,-1.75782 -3.5,-2.53907 -0.6015,-0.39062 -1.2148,-0.75781 -1.8359,-1.05859 -0.1563,-0.0625 -0.3125,-0.14844 -0.4649,-0.19922 l -0.2265,-0.082 c -0.043,-0.0117 -0.09,-0.0195 -0.1328,-0.0195 -0.1758,-0.008 -0.375,0.0976 -0.4766,0.26562 m -0.8555,-0.54297 c 0.2852,-0.44921 0.8008,-0.75 1.3555,-0.73437 0.1406,0.004 0.2734,0.0234 0.4063,0.0664 l 0.2851,0.10156 c 0.1953,0.0664 0.3633,0.15234 0.543,0.23047 0.6953,0.33203 1.3281,0.71875 1.9531,1.12109 1.2422,0.80859 2.4219,1.68359 3.5781,2.58984 2.3047,1.82032 4.5196,3.73829 6.5938,5.83594 0.5156,0.52735 1.0234,1.06641 1.5,1.64844 0.2422,0.28906 0.4726,0.59766 0.6914,0.93359 0.1016,0.17969 0.207,0.36719 0.293,0.60547 0.031,0.1211 0.078,0.33594 0.055,0.44141 l -0.043,0.35156 c -0.1836,0.83594 -0.5196,1.47656 -0.836,2.16016 -0.3242,0.67187 -0.6796,1.3125 -1.0351,1.95703 -0.7188,1.28515 -1.4766,2.53515 -2.25,3.77734 L 1542,472.67187 c -0.1797,0.29688 -0.4648,0.66797 -0.4687,0.78125 -0.043,0.20313 0,0.29297 0.2031,0.6836 l 0.2422,0.48828 0.062,0.125 c 0.031,0.0586 0.059,0.12109 0.082,0.1875 0.043,0.12891 0.07,0.26172 0.082,0.39453 0.02,0.27344 -0.031,0.54688 -0.1445,0.79297 -0.1328,0.26172 -0.1992,0.34375 -0.3008,0.52344 l -1.125,1.875 -2.2461,3.75 -4.4961,7.5 -2.25,3.75 -0.5586,0.9375 -0.2812,0.46875 c -0.1406,0.23047 -0.3399,0.43359 -0.582,0.5664 -0.461,0.28125 -1.1055,0.26953 -1.5469,0.0234 -0.1953,-0.0977 -0.2696,-0.14062 -0.3555,-0.14844 -0.09,-0.0156 -0.1836,-0.008 -0.2656,0.0274 -0.1875,0.0664 -0.2383,0.16406 -0.4649,0.54297 l -0.5625,0.93359 -1.125,1.875 -2.2421,3.75 c -5.9297,10.02734 -11.8243,20.09375 -17.1602,30.42969 -1.2891,2.59375 -2.6289,5.19922 -3.5977,7.88281 -0.1484,0.33594 -0.2148,0.66406 -0.3046,0.99219 -0.074,0.33984 -0.1993,0.64062 -0.2344,1.00781 -0.1016,0.71094 -0.1797,1.42578 -0.2461,2.14062 -0.1289,1.4375 -0.1836,2.8711 -0.1485,4.30469 l 1.7813,17.34766 3.5664,34.79297 c 0.02,0.13672 0.055,0.47656 -0.02,0.74218 -0.07,0.27735 -0.2071,0.53125 -0.3985,0.73829 -0.1953,0.20703 -0.4414,0.36328 -0.7109,0.44921 l -0.5273,0.16016 -2.1172,0.61328 c -1.4141,0.38672 -2.8399,0.74219 -4.2813,1.04688 -2.8515,0.61718 -5.8515,1.05078 -8.7969,0.94922 -2.9179,-0.0156 -5.8515,-0.0312 -8.8046,-0.42188 -0.7383,-0.10156 -1.4805,-0.23047 -2.2188,-0.42578 -0.7383,-0.20703 -1.4883,-0.44141 -2.2031,-0.95313 -0.3477,-0.25781 -0.7031,-0.61718 -0.8828,-1.11718 -0.094,-0.23438 -0.1133,-0.53516 -0.125,-0.74219 l -0.031,-0.54297 -0.1211,-2.18359 -1.957,-34.89844 c -0.3086,-5.82031 -0.6875,-11.61719 -0.9414,-17.46094 -0.062,-1.42969 -0.1797,-2.87109 -0.4766,-4.22656 -0.074,-0.33984 -0.1679,-0.66406 -0.2734,-0.96875 -0.098,-0.27734 -0.2774,-0.58984 -0.4688,-0.91016 l -1.0937,-1.89062 -4.3711,-7.56641 -17.4805,-30.26953 -4.3633,-7.57031 -2.1211,-3.66406 c -0.043,-0.0508 -0.1054,-0.0899 -0.1757,-0.11329 -0.066,-0.0234 -0.1094,-0.0234 -0.336,-0.0234 l -0.5468,0 c -0.2735,0.004 -0.5821,-0.0664 -0.8321,-0.20703 -0.2578,-0.14063 -0.4765,-0.34766 -0.6328,-0.59375 l -0.2851,-0.4961 -0.543,-0.94922 -8.668,-15.1914 -1.082,-1.89844 -0.543,-0.94922 c -0.094,-0.18359 -0.164,-0.25 -0.2969,-0.5625 -0.1093,-0.27344 -0.1406,-0.57031 -0.1015,-0.85547 0.043,-0.28515 0.1523,-0.5625 0.332,-0.79297 0.043,-0.0586 0.094,-0.11328 0.1406,-0.16406 l 0.6797,-0.67969 c 0.1289,-0.125 0.125,-0.13281 0.1641,-0.21875 0.055,-0.14453 0.031,-0.30468 -0.062,-0.42187 l -0.6836,-0.85547 c -0.9063,-1.16016 -1.7774,-2.34766 -2.5899,-3.58984 -0.7968,-1.25391 -1.582,-2.52344 -2.0625,-4.04688 -0.1015,-0.39844 -0.1992,-0.78516 -0.1757,-1.29297 0.062,-0.60937 0.3281,-0.94922 0.5547,-1.30078 0.4843,-0.66016 1.039,-1.18359 1.6015,-1.68359 1.1367,-0.98438 2.336,-1.84766 3.5664,-2.66407 2.461,-1.625 5.0156,-3.07421 7.6875,-4.33593 1.3633,-0.60938 2.668,-1.23828 4.2735,-1.53516 0.207,-0.0312 0.4257,-0.0547 0.6875,-0.0312 0.1093,-0.008 0.3125,0.0625 0.457,0.10938 0.1367,0.0586 0.2187,0.1289 0.3281,0.19531 0.3906,0.27734 0.6524,0.58203 0.9024,0.89062 0.4804,0.6211 0.875,1.26563 1.2382,1.91797 0.7227,1.30469 1.3399,2.64063 1.9219,3.9961 l 0.4219,1.01562 0.1055,0.25 c 0.016,0.0391 0.031,0.0742 0.059,0.10547 0.047,0.0625 0.1093,0.10937 0.1835,0.14062 0.074,0.0352 0.1524,0.0469 0.2344,0.0352 0.039,0 0.074,-0.0117 0.1133,-0.0234 l 0.082,-0.0351 c 0.066,-0.0312 0.1289,-0.0586 0.1993,-0.0781 0.5429,-0.18359 1.1679,-0.0508 1.6015,0.32031 0.1055,0.0977 0.207,0.19922 0.2813,0.32032 0.09,0.125 0.1445,0.24609 0.1757,0.30859 l 0.2461,0.48828 0.4844,0.98047 0.9805,1.95313 1.9531,3.91406 3.9024,7.82031 1.9531,3.91406 0.5,1.01563 c 0.2265,0.51953 0.1523,1.14844 -0.1797,1.60547 -0.1602,0.22656 -0.4102,0.42187 -0.6328,0.52734 -0.1406,0.0664 -0.1641,0.0937 -0.2266,0.16797 -0.1055,0.12891 -0.1289,0.30859 -0.07,0.46094 l 3.9023,7.76172 c 2.6368,5.19531 5.2852,10.39062 7.9805,15.55468 1.3438,2.58203 2.707,5.15625 4.0938,7.71485 0.6914,1.27734 1.3945,2.55078 2.1211,3.80078 0.3711,0.61328 0.7265,1.25781 1.125,1.82422 0.375,0.57422 0.8593,1.1875 1.2578,1.78906 1.6758,2.40625 3.1172,4.98437 4.9179,7.14453 0.4414,0.51563 0.9805,1.03125 1.4375,1.17969 0.2227,0.19531 0.8829,-0.32422 1.375,-0.75781 1.0391,-0.92969 1.9883,-2.03516 2.9102,-3.14063 1.832,-2.23437 3.5469,-4.58203 5.1523,-6.99219 0.793,-1.20312 1.5782,-2.43359 2.2266,-3.68359 l 1.8359,-3.96094 7.3399,-15.86328 1.832,-3.96484 0.461,-0.99219 c 0.1875,-0.39453 0.2343,-0.49609 0.1875,-0.69922 -0.024,-0.0898 -0.07,-0.17578 -0.1329,-0.24219 -0.035,-0.0351 -0.074,-0.0625 -0.1093,-0.0898 l -0.078,-0.043 c -0.055,-0.0312 -0.1171,-0.0625 -0.1757,-0.0977 -0.4571,-0.30078 -0.7305,-0.83984 -0.7071,-1.38281 0.012,-0.26953 0.094,-0.53906 0.2305,-0.76562 l 0.2852,-0.46875 0.5703,-0.9336 1.1367,-1.86718 2.2734,-3.73047 9.1055,-14.9336 0.039,-0.0664 0.332,-0.54297 0.4492,0.44922 0.9453,0.94922 0.055,0.0508 -0.7773,0.0859 z m 0,0"
       id="path4218"
       inkscape:connector-curvature="0" />
    <path
       style="fill:none;stroke:#000000;stroke-width:1;stroke-linecap:butt;stroke-linejoin:miter;stroke-miterlimit:10;stroke-opacity:1"
       d="M -9.6875e-4,-5.0625e-4 15.999031,12.999494"
       transform="matrix(1,0,0,-1,1442.833,489.5034)"
       id="path4220"
       inkscape:connector-curvature="0" />
    <path
       style="fill:none;stroke:#000000;stroke-width:1;stroke-linecap:butt;stroke-linejoin:miter;stroke-miterlimit:10;stroke-opacity:1"
       d="M -9.6875e-4,-5.0625e-4 16.999031,11.999494"
       transform="matrix(1,0,0,-1,1430.833,466.5034)"
       id="path4222"
       inkscape:connector-curvature="0" />
    <path
       style="fill:none;stroke:#000000;stroke-width:1;stroke-linecap:butt;stroke-linejoin:miter;stroke-miterlimit:10;stroke-opacity:1"
       d="M -9.6875e-4,-5.0625e-4 16.999031,-13.000506"
       transform="matrix(1,0,0,-1,1523.833,460.5034)"
       id="path4224"
       inkscape:connector-curvature="0" />
    <path
       style="fill:none;stroke:#000000;stroke-width:1;stroke-linecap:butt;stroke-linejoin:miter;stroke-miterlimit:10;stroke-opacity:1"
       d="M -9.6875e-4,-5.0625e-4 16.999031,-11.000506"
       transform="matrix(1,0,0,-1,1510.833,483.5034)"
       id="path4226"
       inkscape:connector-curvature="0" />
    <path
       style="fill:#000000;fill-opacity:1;fill-rule:nonzero;stroke:none"
       d="m 1474.1445,548.11328 c 0.9844,0.625 2.0743,1.21484 3.168,1.71875 1.0977,0.51563 2.207,1 3.3516,1.41406 2.2773,0.82422 4.5976,1.55469 6.9765,2.0586 2.3711,0.5 4.8125,0.96875 7.2188,1.40625 1.2031,0.22656 2.414,0.4375 3.6211,0.60937 1.1953,0.1875 2.4453,0.35156 3.5898,0.41797 l 0,0 0.4922,0.0156 0.043,0.43359 1.0078,9.86719 0,0.004 0.047,0.45703 -0.4766,0.0898 c -2.3984,0.44922 -4.8047,0.74219 -7.2344,0.93359 -2.4297,0.19531 -4.875,0.24219 -7.3515,0.0586 -0.6172,-0.0391 -1.2422,-0.125 -1.8633,-0.20704 -0.6094,-0.10546 -1.2149,-0.21484 -1.8125,-0.34765 -1.2031,-0.25 -2.3867,-0.56641 -3.5586,-0.90235 -2.3359,-0.71484 -4.6289,-1.51562 -6.8555,-2.54687 l -0.01,-0.004 0.6797,-0.49609 0.6992,12.14062 0,0.008 -0.6562,-0.44532 4.289,-1.5039 c 1.4336,-0.4961 2.8711,-0.98047 4.25,-1.59766 0.6914,-0.30078 1.375,-0.61328 2.0352,-0.96484 0.6562,-0.33985 1.2734,-0.77344 1.9336,-1.17578 1.3008,-0.80469 2.6172,-1.57422 3.9922,-2.26172 l 0.2109,0.42187 c -1.3203,0.71094 -2.6133,1.51563 -3.8789,2.34766 -0.6289,0.40625 -1.2461,0.87109 -1.9336,1.25391 -0.6719,0.38281 -1.3633,0.72656 -2.0586,1.05078 -1.3828,0.66797 -2.8164,1.19531 -4.2422,1.73828 l -4.2851,1.64062 -0.6133,0.23438 -0.043,-0.67969 0,-0.008 -0.6953,-12.14063 -0.043,-0.71484 0.7227,0.21875 0.01,0.004 c 2.293,0.66015 4.6055,1.32031 6.9258,1.87109 2.3047,0.55469 4.6601,1.09375 6.9531,1.31641 2.3359,0.23828 4.7305,0.16406 7.1172,0.13671 2.3867,-0.0742 4.793,-0.20312 7.1797,-0.36718 l -0.4297,0.54687 0,-0.004 -1.0039,-9.8711 0.5351,0.44531 0,0 c -2.6093,0.23438 -5.0586,-0.0547 -7.5507,-0.33203 -2.4766,-0.33984 -4.9141,-0.73437 -7.3672,-1.30859 -2.4414,-0.60156 -4.875,-1.30469 -7.1758,-2.34766 -2.3164,-1.01172 -4.5391,-2.19531 -6.5313,-3.85156 z m 0,0"
       id="path4228"
       inkscape:connector-curvature="0" />
    <path
       style="fill:#000000;fill-opacity:1;fill-rule:nonzero;stroke:none"
       d="m 1504.707,582.23828 c -2.164,0.0234 -4.3086,-0.10156 -6.4531,-0.33594 -2.1484,-0.23047 -4.2812,-0.6289 -6.3867,-1.26562 -1.0508,-0.33985 -2.1055,-0.72266 -3.0625,-1.41406 -0.9375,-0.64454 -1.6953,-1.35547 -2.5078,-2.07813 -0.7969,-0.72266 -1.5742,-1.46094 -2.3399,-2.21484 l -1.1562,-1.11719 -0.5703,-0.56641 -0.2813,-0.28906 c -0.09,-0.10156 -0.1836,-0.19141 -0.4687,-0.10156 l 0.707,-0.70703 c -0.098,0.27734 0,0.375 0.1016,0.45703 l 0.2968,0.26953 0.5977,0.52734 1.2109,1.03516 c 0.8321,0.66406 1.6758,1.3125 2.5313,1.9375 l 1.293,0.92969 c 0.4257,0.28906 0.8632,0.66015 1.2812,0.8789 0.8125,0.51172 1.793,0.85938 2.7656,1.17969 1.9766,0.60547 4.0664,0.93359 6.1485,1.24219 2.0898,0.27344 4.207,0.48437 6.3125,0.63281 z m 0,0"
       id="path4230"
       inkscape:connector-curvature="0" />
    <path
       style="fill:#000000;fill-opacity:1;fill-rule:nonzero;stroke:none"
       d="m 1476.2344,590.1875 c 2.3789,-0.26172 4.7383,-0.60156 7.0625,-0.98438 2.3242,-0.41406 4.625,-0.89843 6.8047,-1.67968 2.1992,-0.76172 4.3554,-1.75782 6.5039,-2.75782 2.1445,-1.02734 4.289,-2.07421 6.4336,-3.14843 l 0.1601,0.24609 c -1.8867,1.50781 -3.8828,2.86719 -5.9726,4.08203 -2.086,1.21485 -4.2578,2.3086 -6.5703,3.14844 -2.3243,0.85156 -4.754,1.29687 -7.168,1.53125 -2.4219,0.23437 -4.8477,0.22266 -7.2578,-0.0469 z m 0,0"
       id="path4232"
       inkscape:connector-curvature="0" />
    <path
       style="fill:#000000;fill-opacity:1;fill-rule:nonzero;stroke:none"
       d="m 1479.9688,590.36719 c 0.9921,0.64843 2.125,1.18359 3.2226,1.71093 1.1016,0.53516 2.2188,1.03907 3.3359,1.53516 2.2461,0.99219 4.4688,1.87109 6.8086,2.69141 2.3047,0.87109 4.5977,1.75781 6.8594,2.72656 1.1367,0.47656 2.2656,0.98437 3.3906,1.49219 1.125,0.52343 2.2852,0.96093 3.4063,1.5039 l -0.3164,0.94922 c -1.2188,-0.2539 -2.4258,-0.53125 -3.6133,-0.88672 -1.1836,-0.375 -2.3633,-0.75781 -3.5312,-1.16797 -2.3477,-0.80859 -4.668,-1.6914 -6.9805,-2.59765 -2.2969,-0.89063 -4.6328,-1.94141 -6.7852,-3.21094 -1.0898,-0.625 -2.1445,-1.30078 -3.1718,-2.01953 -1.0118,-0.74609 -2.0352,-1.46484 -2.8946,-2.45703 z m 0,0"
       id="path4234"
       inkscape:connector-curvature="0" />
    <path
       style="fill:#000000;fill-opacity:1;fill-rule:nonzero;stroke:none"
       d="m 1343.2227,548.50391 c 0,0 20.6679,16.49609 35.6679,19.82812 15,3.33594 22.5078,4.25781 32.7539,3.12891 10.2461,-1.12891 -8.8359,5.11328 -23.6289,5.66015 -14.7929,0.54688 -37.457,-7.96484 -43.7929,-14.3789 -6.3321,-6.41016 -1,-14.23828 -1,-14.23828"
       id="path4236"
       inkscape:connector-curvature="0" />
    <path
       style="fill:#000000;fill-opacity:1;fill-rule:nonzero;stroke:none"
       d="m 1370.2734,541.67578 c -0.7343,-1.02734 -2.3632,-3.98828 -3.6132,-6.57422 -1.2539,-2.58984 -3.4844,-6.86328 -4.9532,-9.49609 l -2.6718,-4.79297 -6.2266,4.44922 c -3.4258,2.44531 -6.2852,4.35547 -6.3555,4.24609 -0.6992,-1.14062 -5.2422,-13.8125 -5.1484,-14.37109 0.07,-0.40625 2.8242,-2.06641 6.1289,-3.6875 7.6211,-3.7461 14.0664,-8.34375 18.8555,-13.46094 2.0664,-2.21094 4.0898,-3.96094 4.4922,-3.89453 0.5507,0.0898 11.0703,8.50781 11.914,9.53125 0.082,0.10156 -2.4531,2.04297 -5.6367,4.31641 -3.1836,2.27343 -5.6016,4.39453 -5.3789,4.71093 0.2305,0.32032 4.0273,4.4375 8.4453,9.15235 4.418,4.71093 7.9922,8.8125 7.9414,9.11718 -0.051,0.30469 -1.8984,1.3086 -4.1055,2.22657 -3.7265,1.55859 -9.5781,6.19531 -11.5195,9.13672 -0.5976,0.90234 -1.2148,0.72656 -2.1719,-0.61329 z m 19.4141,-8.05859 c -0.75,-3.76563 -2.707,-6.42578 -10.6875,-14.53516 l -2.5273,-2.56641 4.2265,-3.01953 c 4.1524,-2.96093 4.2149,-3.08593 3.4531,-6.91015 -0.7421,-3.72657 -1.0312,-4.10938 -6.5937,-8.79297 -3.1992,-2.69531 -6.1797,-4.96094 -6.625,-5.03516 -0.4453,-0.0742 -2.9375,2.01563 -5.543,4.64063 -5.9375,5.99609 -9.375,8.44922 -18.2226,13.01953 -3.8711,1.99609 -7.1016,3.99609 -7.1758,4.4414 -0.074,0.44141 1.1016,3.9961 2.6094,7.89454 2.625,6.78515 2.8945,7.17968 6.1797,9.08984 3.4101,1.98437 3.4648,1.97656 7.9453,-1.22656 2.9922,-2.13282 4.7343,-2.91016 5.1718,-2.29688 0.3633,0.50781 2.2852,4.07422 4.2735,7.92188 3.2031,6.19922 4.0078,7.23047 7.0586,9.0039 l 3.4453,2.00391 6.8828,-4.91797 6.8867,-4.91406 z m -17.1172,13.21875 c -3.8515,-2 -5.8203,-4.70313 -10.5469,-14.46485 l -1.5742,-3.24609 -4.3281,3.09375 c -4.3125,3.07812 -4.3477,3.08203 -8.3164,1.01953 -3.9453,-2.04687 -4.0117,-2.13281 -6.7813,-8.84766 -4.3398,-10.51953 -4.3984,-10.19531 2.6055,-14.07812 7.6758,-4.26172 16.3203,-10.42578 22.2188,-15.85547 5.5156,-5.07031 5.2617,-5.11719 13.9453,2.52344 5.6484,4.97265 5.6758,5.01562 6.0898,9.05078 0.3867,3.76172 0.1445,4.27344 -3.4062,7.14062 -3.793,3.0625 -3.8086,3.10157 -1.7657,5.01172 6.7618,6.34375 10.0508,11.01953 10.6602,15.15235 l 0.6094,4.14843 -7.8047,5.66407 -7.8008,5.66406 z m 0,0"
       id="path4238"
       inkscape:connector-curvature="0" />
    <path
       style="fill:#000000;fill-opacity:1;fill-rule:nonzero;stroke:none"
       d="m 1541.3086,477.96094 c -0.2109,3.53906 -0.5781,7.01953 -1.0313,10.46875 -0.4453,3.45312 -0.9726,6.87109 -1.5429,10.26953 -1.1446,6.79687 -2.4883,13.51562 -3.8555,20.15234 l -1.0156,4.95703 c -0.3555,1.64063 -0.6875,3.27344 -1,4.89453 -0.6055,3.20313 -1.25,6.51172 -1.3242,8.98047 -0.082,2.70313 0.2461,5.75782 0.8164,8.84375 0.5351,3.09766 1.2812,6.26172 2.1562,9.41797 1.7188,6.33985 3.8711,12.67969 6.1485,19.0586 l 0.8671,2.41015 0.9102,2.61328 c 0.8047,2.55469 0.9336,4.6211 0.9492,6.76172 0,2.11719 -0.2695,4.20313 -0.8086,6.32031 -0.5625,2.10547 -1.3789,4.28125 -2.9218,6.34375 -0.7774,1.01563 -1.711,2.00782 -2.8829,2.79688 -1.1562,0.79687 -2.4882,1.37891 -3.8281,1.69531 -1.3437,0.3086 -2.6484,0.33985 -3.8711,0.23828 -1.1992,-0.14843 -2.3281,-0.39843 -3.3437,-0.7539 -3.9961,-1.39063 -7.1328,-3.67969 -9.875,-6.20313 -2.711,-2.55859 -4.9688,-5.39844 -6.9102,-8.38672 -1.957,-2.97656 -3.6172,-6.08984 -4.9219,-9.36718 l 0.8711,-0.48829 c 4.3203,5.28907 9.2227,10.16016 14.6133,13.58204 2.6563,1.69531 5.5586,2.96093 8.2031,3.41406 0.6368,0.11719 1.2149,0.11328 1.7305,0.0898 0.4961,-0.0625 0.918,-0.15234 1.2305,-0.30078 0.6094,-0.32812 0.9765,-0.71094 1.3867,-1.52344 0.4102,-0.77343 0.7461,-1.91406 0.8945,-3.15625 0.168,-1.24609 0.1485,-2.61328 0.024,-3.92968 -0.1133,-1.28125 -0.4375,-2.66797 -0.7891,-3.35547 l -2.0781,-4.53125 c -2.8789,-6.35938 -5.5469,-12.91016 -7.7227,-19.75 -2.0976,-6.89844 -4,-13.92578 -3.9258,-22.23047 0.039,-1.0625 0.1055,-2.13281 0.2461,-3.14453 0.1328,-0.9961 0.2774,-1.95703 0.4493,-2.86719 0.332,-1.85156 0.6992,-3.61328 1.1406,-5.34766 0.4414,-1.73437 0.8867,-3.44922 1.3633,-5.14062 0.5,-1.6875 1.0156,-3.35938 1.5429,-5.02735 2.1485,-6.64843 4.6328,-13.13281 7.4453,-19.49609 1.4024,-3.18359 2.8907,-6.33203 4.5,-9.44141 1.5938,-3.10937 3.3008,-6.17968 5.211,-9.17578 z m 0,0"
       id="path4240"
       inkscape:connector-curvature="0" />
    <path
       style="fill:#000000;fill-opacity:1;fill-rule:nonzero;stroke:none"
       d="m 1320.832,325.00391 c 0,0 -8.2578,-12.66407 -2.3789,-18.5 5.8789,-5.83594 12.25,-10.17188 19.5664,-7.83594 C 1345.332,301 1365,302.37891 1365,302.37891 l -14.8828,-2.08594 -6.4805,-2.26953 -4.5898,-2.50782 -3.9492,-3.03906 -12.0821,-0.78125 -8.0976,6.13672 -3.668,7.25 0.668,8 2.164,4.91797 5.793,7.82812 z m 0,0"
       id="path4242"
       inkscape:connector-curvature="0" />
    <path
       style="fill:#000000;fill-opacity:1;fill-rule:nonzero;stroke:none"
       d="m 1495.6602,555.57031 c 0,0 3.6718,4.20313 3.5078,6.31641 -0.168,2.11328 -2.4961,4.82812 -2.4961,4.82812 0,0 3.4961,2.45313 3.9961,6.78516 0.5,4.33203 -1.5039,7.84766 -1.5039,7.84766 l 3.0039,0.39453 c 0,0 1.0703,6.92578 0.9531,9.42578 -0.1211,2.5 -1.4531,8.96875 -1.4531,8.96875 l 5.164,2.36719 -4.9922,-48.9336 z m 0,0"
       id="path4244"
       inkscape:connector-curvature="0" />
    <path
       style="fill:none;stroke:#000000;stroke-width:8;stroke-linecap:butt;stroke-linejoin:miter;stroke-miterlimit:10;stroke-opacity:1"
       d="m 0.00100625,-4.75e-4 c 0,-21.542969 -17.46875025,-39.007812 -39.01171825,-39.007812 -21.546875,0 -39.011719,17.464843 -39.011719,39.007812 0,21.546875 17.464844,39.011719 39.011719,39.011719 21.542968,0 39.01171825,-17.464844 39.01171825,-39.011719 z m 0,0"
       transform="matrix(1,0,0,-1,1405.7529,520.8589)"
       id="path4246"
       inkscape:connector-curvature="0" />
    <path
       style="fill:#000000;fill-opacity:1;fill-rule:nonzero;stroke:none"
       d="m 1305.6328,388.375 c 0,0 -18.8828,-22.36719 -19.3828,-27.37109 -0.5,-5.00391 6,-15.2461 3.75,-20 C 1287.75,336.25 1283.5,324 1280.5,322.25 c -3,-1.75 -18.75,-24.49219 -17.25,-33.24609 1.5,-8.75391 14,-15.75 15.5,-15.87891 1.5,-0.125 -13.5,-13.125 -12.5,-21.125 1,-8 7.5,-17.75 13.25,-19.5 5.75,-1.75 11.5,-5.75 10,-9.75 -1.5,-4 2.25,-8.75 2.25,-8.75 0,0 15.2031,-1.75 18.2266,-4.5 3.0234,-2.75 12.7617,-8.75 15.8906,-9.75 3.1328,-1 7.6328,1.5 10.3828,1.5 2.75,0 9.25,2.5 13.25,3.75 4,1.25 6.7578,0.75 6.7578,0.75 0,0 -6.7578,-2.72266 -9.5078,-6.23828 C 1344,196 1346.25,192.5 1349.25,190 c 3,-2.5 19.668,-10.5 23.332,-10 3.668,0.5 15.086,4.25 17.25,3.5 2.168,-0.75 14.418,-8.5 18.668,-9.25 4.25,-0.75 14,-0.5 15.625,-1.75 1.625,-1.25 9.293,-0.25 10.207,-2.25 0.918,-2 1.836,5.75 3.5,7 1.668,1.25 9.7227,1.98047 9.7227,1.98047 l -5.9531,-6.31641 L 1441.25,169 l -2.918,-3 -4.5,-4.49609 -1.582,6.74609 -1.332,0.53516 -2.1836,-0.37891 -1.9102,-0.16797 -2.6601,1.00391 -2.9141,0.92578 -7.918,0.33594 -8.4492,0.41406 -6.3633,2.71875 -10.1836,1.16797 -22.7851,0.21093 -17.3281,8.11329 -5.4844,4.19531 -3.7813,4.62109 -2.4179,3.91406 -1.1524,-0.33203 -1.8203,-2.89062 -0.7383,-4.38672 -0.5781,-2.76953 -2.3672,5.26172 -4.1914,5.05468 -5.9687,2.80079 -5.8204,1.80859 -4.7656,3.11328 -5.5586,4.05859 -5.7656,2.60547 -6.7852,1.30469 -5.2773,0.32422 -4.5781,-0.27344 -3.3867,-0.71094 -1.4258,-0.27734 0.7226,1.86719 1.586,2.33203 1.832,2.75 1.918,3.16797 1.332,2.16406 -4.918,4.67188 -11.5429,5.40234 -7.2422,5.96094 -0.6289,8.05078 3.6445,12.21484 0.9023,8.02344 -1.7929,6.07422 -3.3399,4.27344 -1.5,4.91406 0,8.58594 1.5,9.5 5.1719,10.32812 7.4141,11 3.582,6 1.5078,4.57031 -0.1328,1.65625 -1.1992,0.57813 -3.1602,-0.3711 -3.6133,-1.19531 -3.2929,-1.26172 11.8906,13.02344 1.1719,2.70703 0.3672,3.79297 0.2968,4.11328 -2.6679,4.47266 -3.336,2.58594 0.836,3.24609 6.75,3.16797 15.414,10.875 z m 0,0"
       id="path4248"
       inkscape:connector-curvature="0" />
    <path
       style="fill:#000000;fill-opacity:1;fill-rule:nonzero;stroke:none"
       d="m 1212.7422,821.24609 -3.9688,19.89844 7.7071,0 -3.7383,-19.89844 m 22.7148,-32.3125 8.6797,0.80469 3.4531,5.23047 2.7032,-5.23047 11.039,0.86328 7.1875,4.42578 3.8516,7.53125 -0.059,16.33203 -3.7344,7.07422 -5.9258,3.39063 6.211,6.55469 3.0508,9.66015 0.9179,17.82422 -14.6054,1.09375 -2.0703,-18.6875 -5.0586,-8.91016 0,28.40235 -14.3204,0.86328 -1.3203,-77.22266 m 14.7188,15.52344 -0.059,12.9375 5.7539,0 3.2187,-3.50781 0,-5.57813 -3.1054,-3.5039 -5.8086,-0.34766 m -18.8008,62.61719 -13.5156,0.6914 -1.7227,-12.36328 -7.1914,0 -2.2969,13.22657 -13.3437,0.46093 1.957,-17.71093 5.8086,-4.65625 -5.0586,-2.12891 8.7969,-58.53516 15.293,1.55078 11.2734,79.46485 m 184.6914,-68.65235 -13.3945,-0.17578 m 32.832,57.10157 -32.3164,0 0,-8.22657 4.4844,-2.75781 -4.9453,-3.39062 0.4609,-41.0586 17.3086,0.28906 3.7383,4.94532 1.8398,-4.77344 10.1758,0 -0.2852,9.14453 -0.1718,4.25391 -0.1172,0 -18.168,-0.46094 0.2266,9.71875 17.8867,-0.46094 0.3437,0 -0.4609,10.0625 -0.2305,0 -17.539,-0.46094 0.4609,9.71875 0.5195,0 17.25,-0.6914 -0.4609,14.14844 m -50.7734,-55.26172 13.8593,0 -11.9609,55.3164 -7.1328,0 -2.3008,-4.59765 -1.7812,4.82812 -4.0235,0 -9.6601,-56.23437 11.957,0 5.8086,28.98047 5.2344,-28.29297 m -41.7461,-1.37891 13.3398,1.09375 0,23.46094 -4.6562,4.59765 5.6328,2.30079 0,12.76562 -4.6563,9.19922 -7.9336,4.65625 -13.9179,0.23437 -7.5313,-6.03906 -3.8554,-10.41015 0,-43.23829 15.0664,0.91797 0,41.28516 4.3711,3.625 3.9687,-4.48438 0.1719,-39.96484 m -50.1992,10.75391 -0.4024,35.53515 5.8047,-1.49609 3.6836,-5.80859 0,-20.125 -2.7031,-5.57813 -6.3828,-2.52734 m -15.4688,-15.92969 24.8984,2.41406 7.3594,5.57813 4.8906,9.03125 0.3438,34.26953 -4.832,8.16406 -8.6797,7.24609 -9.375,0.57422 -2.9336,-5.80859 -2.875,6.67187 -8.1641,0.92188 0.3438,-53.13281 4.6601,-2.875 -5.0625,-2.35938 -0.5742,-10.69531 m 205.4531,5.98047 -0.8047,31.22265 -5.5195,2.64844 6.4961,3.39063 0,19.26172 -12.8203,-0.6875 -15.125,-28.8086 1.2656,29.09375 -15.0078,0 -0.2851,-55.71875 12.3007,0.46094 14.6641,26.56641 0,-27.02735 14.8359,-0.40234 m 124.375,-11.78516 33.1211,-2.07422 -0.5156,18.40235 -17.5977,-0.46094 0.461,15.35547 18.2305,-1.26563 0,19.66407 -18.7461,-0.45704 -0.9219,14.54688 5.0039,0 2.3594,4.42578 2.6992,-4.77344 10.1211,0 -0.6875,18.46094 -33.0078,-2.41797 -0.1719,-67.39062 5.0039,-3.85157 -5.4063,0 0.055,-8.16406 m -26.8515,17.07813 -0.1719,14.25781 5.8086,0 3.8516,-4.02344 0,-6.96094 -4.2579,-3.27343 -5.2304,0 m -15.8125,57.96093 1.207,-57.38671 4.1992,-3.50782 -4.832,-2.30078 -0.4024,-7.1875 25.0157,-1.60937 7.9883,4.65625 4.5468,8.51172 0,15.35156 -3.4531,6.15234 -5.8086,4.25391 6.9609,7.07422 3.0469,9.25781 0,19.72266 -14.8359,-0.46094 -1.0352,-20.125 -5.8086,-9.3711 0,28.40235 -16.789,-1.4336 m -41.5742,-66.47265 15.871,-0.86328 0,46.75 4.254,4.08203 4.2578,-3.67969 0,-48.35937 13.6836,-0.7461 0,42.14844 -4.6016,4.65625 4.4297,2.47266 -1.5547,8.33984 -6.3828,7.07031 -7.3008,2.875 -9.2578,-0.40234 -7.5352,-5.00391 -4.082,-7.76172 -1.7812,-51.57812 m -36.5704,2.875 18.9727,-1.14844 2.9336,4.88672 1.8437,-5.40625 9.3125,-0.46094 0,15.06641 -9.1406,0 0,4.14062 -5.2344,3.10547 5.0625,3.21875 0,34.5 -14.0312,-0.91797 0,-42.66797 -9.2578,0 -0.461,-14.3164"
       id="path4250"
       inkscape:connector-curvature="0" />
  </g>
</svg>
