<?xml version="1.0" encoding="UTF-8" standalone="no"?>
<!-- Created with Inkscape (http://www.inkscape.org/) -->

<svg
   xmlns:dc="http://purl.org/dc/elements/1.1/"
   xmlns:cc="http://creativecommons.org/ns#"
   xmlns:rdf="http://www.w3.org/1999/02/22-rdf-syntax-ns#"
   xmlns:svg="http://www.w3.org/2000/svg"
   xmlns="http://www.w3.org/2000/svg"
   xmlns:sodipodi="http://sodipodi.sourceforge.net/DTD/sodipodi-0.dtd"
   xmlns:inkscape="http://www.inkscape.org/namespaces/inkscape"
   width="254mm"
   height="254mm"
   viewBox="0 0 254 254"
   id="svg2"
   version="1.1"
   inkscape:version="0.91+devel+osxmenu r12922"
   sodipodi:docname="Boxart_Front_V3.svg">
  <defs
     id="defs4" />
  <sodipodi:namedview
     id="base"
     pagecolor="#ffffff"
     bordercolor="#666666"
     borderopacity="1.0"
     inkscape:pageopacity="0.0"
     inkscape:pageshadow="2"
     inkscape:zoom="0.35355339"
     inkscape:cx="32.264312"
     inkscape:cy="1309.3285"
     inkscape:document-units="mm"
     inkscape:current-layer="layer1"
     showgrid="false"
     fit-margin-top="0"
     fit-margin-left="0"
     fit-margin-right="0"
     fit-margin-bottom="0"
     inkscape:window-width="1504"
     inkscape:window-height="1080"
     inkscape:window-x="2820"
     inkscape:window-y="75"
     inkscape:window-maximized="0"
     showguides="true"
     inkscape:guide-bbox="true" />
  <metadata
     id="metadata7">
    <rdf:RDF>
      <cc:Work
         rdf:about="">
        <dc:format>image/svg+xml</dc:format>
        <dc:type
           rdf:resource="http://purl.org/dc/dcmitype/StillImage" />
        <dc:title></dc:title>
      </cc:Work>
    </rdf:RDF>
  </metadata>
  <g
     inkscape:label="Laag 1"
     inkscape:groupmode="layer"
     id="layer1"
     transform="translate(14.363103,-56.607145)">
    <rect
       style="fill:#000000;fill-opacity:1;stroke:none;stroke-width:0.16801041;stroke-miterlimit:4;stroke-dasharray:none;stroke-opacity:1"
       id="rect4250"
       width="254"
       height="254"
       x="-14.363103"
       y="56.607143" />
    <path
       inkscape:connector-curvature="0"
       style="fill:#4d4d4d;stroke-width:0.35277778"
       d="m 141.15663,92.942969 c -22.99266,0 -23.22804,0.007 -23.22804,0.70538 0,0.69829 0.23529,0.70538 22.81927,0.70538 22.35876,0 22.8495,0.0149 24.32824,0.73071 0.88592,0.42887 1.84238,1.26642 2.31613,2.0283 0.77952,1.2536 0.81097,1.61991 0.92501,10.734741 0.0649,5.19024 0.24407,9.43715 0.39791,9.43715 0.15385,0 0.46782,-0.22694 0.69763,-0.50385 0.30473,-0.36716 0.38826,-2.97723 0.30799,-9.64178 l -0.11007,-9.138461 -1.05833,-1.7079 c -0.69453,-1.1207 -1.59294,-1.98966 -2.61328,-2.52853 l -1.55494,-0.82114 z m -45.274757,0.0377 c -3.21008,0.002 -7.482482,0.0196 -13.168712,0.0434 l -22.86837,0.0956 -1.50017,0.9927 c -1.0386,0.68743 -1.76206,1.55594 -2.35179,2.82257 -0.82811,1.77861 -0.8519,2.0721 -0.85524,10.584881 l -0.004,8.75606 0.79375,-0.11317 0.79375,-0.11266 0.17673,-9.17205 c 0.15638,-8.131311 0.24949,-9.280281 0.82269,-10.124961 0.35563,-0.52405 1.31863,-1.27828 2.13993,-1.67587 1.45651,-0.70508 2.03757,-0.72295 23.60682,-0.72295 21.955959,0 22.113909,-0.005 22.113909,-0.71314 0,-0.5319 -0.0694,-0.66639 -9.699677,-0.66042 z m 52.675337,13.352101 -6.57841,0.0961 c -5.94032,0.0866 -6.59016,0.15566 -6.69727,0.71314 -0.10943,0.56953 0.37467,0.61753 6.2451,0.61753 5.93031,0 6.38794,0.0463 6.72827,0.68213 0.20379,0.38078 0.36535,2.95339 0.36535,5.82083 0,4.90328 0.0321,5.13871 0.70539,5.13871 0.67591,0 0.7059,-0.2354 0.7059,-5.59708 0,-5.14276 -0.06,-5.67282 -0.73742,-6.53397 l -0.73691,-0.93741 z m -66.712729,0.0155 c -5.44942,0 -5.59516,0.0198 -6.44147,0.86609 -0.85538,0.85539 -0.86609,0.94298 -0.86609,7.23161 0,3.50131 0.12693,6.36601 0.28215,6.36601 0.15522,0 0.47255,-0.1904 0.70538,-0.42323 0.29253,-0.29253 0.42375,-2.09835 0.42375,-5.84408 0,-3.06199 0.15855,-5.71755 0.36484,-6.10299 0.33836,-0.63224 0.79236,-0.68213 6.17688,-0.68213 5.7231,0 5.80466,-0.0111 5.37073,-0.7059 -0.41043,-0.65721 -0.82261,-0.70538 -6.01617,-0.70538 z m -26.7193,55.73884 0.0925,53.56159 0.093,53.56159 1.05833,1.70894 c 0.69506,1.12222 1.59167,1.9908 2.61277,2.53008 l 1.55494,0.82113 51.923959,0 51.92345,0 1.55494,-0.82113 0,5.2e-4 c 0.85513,-0.45145 2.0312,-1.49697 2.61328,-2.32337 l 1.05833,-1.50275 0.0925,-53.41534 c 0.0923,-53.21049 0.09,-53.41535 -0.61288,-53.41535 -0.70197,0 -0.70617,0.26645 -0.7984,53.00452 -0.0918,52.47697 -0.0996,53.01715 -0.80615,54.23958 -0.42262,0.73122 -1.35206,1.55875 -2.27945,2.02882 l -1.56631,0.79375 -51.3426,-0.006 -51.342609,-0.006 -1.37407,-0.78755 c -0.75591,-0.43337 -1.66907,-1.34138 -2.02882,-2.01745 -0.62863,-1.18137 -0.65371,-3.30576 -0.65371,-54.59202 l 0,-53.36315 -0.88677,0 -0.88625,0 z m 31.47767,17.28783 c -6.61145,0.001 -7.41014,0.0659 -8.42843,0.68678 -0.75586,0.46089 -1.24679,1.126 -1.49707,2.02727 -0.41439,1.49227 -0.50867,8.52984 -0.13901,10.37818 0.17248,0.86239 1.2104,2.19039 3.79254,4.85345 3.35167,3.4567 4.88243,4.58463 6.26577,4.61677 0.32692,0.008 0.99746,-0.13971 1.49034,-0.32711 1.079582,-0.41045 6.265412,-5.28384 7.670342,-7.20835 1.00126,-1.37157 1.00459,-1.39296 1.00459,-6.8249 0,-4.45048 -0.10774,-5.63125 -0.58756,-6.44354 -0.32311,-0.54697 -0.96569,-1.16661 -1.42782,-1.37717 -0.51804,-0.23603 -3.64082,-0.3822 -8.143692,-0.38138 z m 64.487019,14.46217 c -1.78292,0 -4.45148,1.05171 -5.97276,2.35386 -0.84599,0.72415 -1.90348,2.10995 -2.36213,3.0949 -1.51032,3.24344 -0.94264,7.15937 1.45055,10.00353 0.53655,0.63764 1.63066,1.49599 2.43086,1.90737 2.87809,1.47959 5.00161,1.65047 7.74578,0.62374 1.04938,-0.39262 2.50597,-1.29401 3.2365,-2.0035 0.73054,-0.70948 1.64952,-2.01548 2.04225,-2.90214 0.41537,-0.93782 0.72476,-2.42408 0.74001,-3.55276 0.0145,-1.07429 -0.25402,-2.67352 -0.60203,-3.58324 -0.86881,-2.27113 -3.50188,-4.67129 -5.90765,-5.38572 -1.02931,-0.30568 -2.28972,-0.55604 -2.80138,-0.55604 z m -53.666487,0.35295 -3.71812,3.6158 c -2.04483,1.98878 -3.93975,4.04477 -4.21112,4.56871 -0.27137,0.52394 -0.493502,1.36532 -0.493502,1.86966 0,0.50435 0.224562,1.3457 0.498672,1.86965 0.27411,0.52394 2.15608,2.57992 4.18217,4.56871 l 3.6835,3.6158 5.793447,0 c 4.88175,0 5.93077,-0.0944 6.66574,-0.60099 0.47974,-0.33065 1.06589,-0.84675 1.30225,-1.1467 0.30724,-0.38988 0.43277,-2.74311 0.4408,-8.25376 l 0.0114,-7.70806 -1.1994,-1.19941 -1.19942,-1.19941 -5.87819,0 -5.878197,0 z m -24.630542,0.0165 c -0.84454,5.3e-4 -1.93297,0.0201 -3.37086,0.0475 l -5.88956,0.11214 -0.83871,1.05265 c -0.46116,0.57887 -0.9355,1.70034 -1.0542,2.49183 -0.11869,0.79149 -0.16224,4.21477 -0.0971,7.60729 0.10026,5.22523 0.21563,6.31693 0.75603,7.14065 0.35086,0.53481 0.98603,1.11234 1.41128,1.28364 0.42525,0.17129 3.2498,0.32153 6.27662,0.33383 l 5.50303,0.0222 1.37614,-1.00511 c 0.75672,-0.55291 2.65922,-2.34764 4.22817,-3.98839 2.92813,-3.06213 3.5261,-4.25335 3.03857,-6.05492 -0.30168,-1.11481 -5.71345,-7.05171 -7.51427,-8.24343 -0.95728,-0.6335 -1.29148,-0.8017 -3.82509,-0.79995 z m 59.699709,8.47958 c -0.38284,-0.002 -0.81314,0.0156 -1.32085,0.0486 -1.36599,0.0886 -2.95981,0.4111 -3.5419,0.71675 -1.5009,0.7881 -3.28818,2.63797 -4.11499,4.25866 -0.38906,0.76263 -0.79329,2.21753 -0.89814,3.23339 -0.25027,2.42496 0.64841,5.128 2.32337,6.98614 0.70324,0.78014 2.07257,1.789 3.04271,2.24172 1.23191,0.57489 2.40209,0.82269 3.88039,0.82269 1.47829,0 2.64899,-0.2478 3.8809,-0.82269 0.97014,-0.45272 2.35283,-1.47677 3.07268,-2.27531 1.65244,-1.83306 2.56688,-4.7464 2.22002,-7.07141 -0.1347,-0.90288 -0.45218,-2.14002 -0.7059,-2.74918 -0.74904,-1.79836 -2.87352,-3.8667 -4.84053,-4.71289 -1.12531,-0.4841 -1.84923,-0.66956 -2.99776,-0.67645 z m -45.985819,3.97237 c -0.48091,0.008 -0.94674,0.13937 -1.50792,0.40566 -0.67755,0.32152 -2.83272,2.22949 -4.78885,4.24005 l -3.55638,3.65559 0,5.68389 c 0,4.40502 0.12136,5.91855 0.53847,6.72517 0.29602,0.57245 0.57349,1.04302 0.61702,1.04594 0.0435,0.003 0.71424,0.23406 1.49035,0.51366 1.00623,0.36251 3.0814,0.51229 7.23211,0.52193 3.201462,0.007 6.405892,-0.14916 7.121022,-0.34778 0.71513,-0.19862 1.70697,-0.8448 2.20451,-1.43609 0.8873,-1.0545 0.90486,-1.18147 0.90486,-6.63939 0,-5.56145 -5.3e-4,-5.56506 -1.00821,-6.95616 -0.55454,-0.76552 -2.39231,-2.65477 -4.08399,-4.1982 -1.89572,-1.72958 -3.529332,-2.91919 -4.257622,-3.10007 -0.32296,-0.0802 -0.61683,-0.11921 -0.90537,-0.1142 z"
       id="path4210-2"
       sodipodi:nodetypes="ssscssscsccccscsccsccccccsssccccsscssscccscsssscscsccccccccccccsssccccccssccccccsssccsscscsssssssccsssccsssccscccccccccccccccsccccsssccccsssssssssssccccccsscscssscscc" />
    <path
       inkscape:connector-curvature="0"
       style="fill:#c59d21;stroke-width:0.35277778;fill-opacity:1"
       d="m 67.346638,61.545898 c -0.097,0 -0.27437,0.15892 -0.39429,0.35295 -0.11991,0.19402 -0.13887,0.35295 -0.0419,0.35295 0.097,0 0.27438,-0.15893 0.39429,-0.35295 0.11992,-0.19403 0.13887,-0.35295 0.0419,-0.35295 z m 1.28985,0.0568 c -0.0652,0.001 -0.0515,0.0841 0.046,0.24184 0.25133,0.40667 0.56275,0.54593 0.56275,0.25167 0,-0.0856 -0.1832,-0.26929 -0.40721,-0.40773 -0.0946,-0.0585 -0.16239,-0.0866 -0.20154,-0.0858 z m -0.76223,1.1529 c -0.37948,0 -0.5946,0.18555 -0.50023,0.43149 0.091,0.23722 0.39061,0.34479 0.66559,0.23927 0.27499,-0.10553 0.50023,-0.29981 0.50023,-0.4315 0,-0.13169 -0.29958,-0.23926 -0.66559,-0.23926 z m 1.59112,0.17673 c -0.11421,0.01 -0.30554,0.25379 -0.48938,0.64596 -0.41189,0.87863 -0.40205,0.90692 0.12919,0.37568 0.31615,-0.31615 0.51648,-0.7441 0.44545,-0.95084 -0.0178,-0.0517 -0.0472,-0.0741 -0.0853,-0.0708 z m -2.91817,0.15865 c -0.0129,-0.002 -0.0234,7.1e-4 -0.031,0.008 -0.20912,0.20911 0.33647,1.26917 0.65319,1.26917 0.17491,0 0.12418,-0.31065 -0.11266,-0.68988 -0.20723,-0.33183 -0.41926,-0.57292 -0.50953,-0.58756 z m 1.46347,1.27744 c -0.097,0 -0.17673,0.0792 -0.17673,0.17621 0,0.097 0.0797,0.17622 0.17673,0.17622 0.097,0 0.17622,-0.0792 0.17622,-0.17622 0,-0.097 -0.0792,-0.17621 -0.17622,-0.17621 z m -4.50825,0.046 c -0.33868,0.002 -0.71218,0.0265 -1.14825,0.0672 -1.25838,0.11751 -3.08831,0.63193 -4.41937,1.2423 -2.19541,1.00673 -15.84957,7.05366 -41.95919,18.58233 -6.8879899,3.04138 -13.3173599,5.889909 -14.2874999,6.330358 -0.97013998,0.440452 -3.14383,1.392664 -4.83072,2.116151 -1.71879,0.737174 -3.61848,1.850732 -4.32118,2.533179 -0.68965,0.669777 -1.51756,1.726629 -1.8402,2.348177 -0.32263,0.621549 -0.65743,2.241074 -0.7436201,3.599267 -0.14733,2.32176 -0.0752,2.62698 1.2035401,5.10047 0.97149,1.87909 1.78055,2.9257 2.83187,3.66334 0.80955,0.568 2.2383,1.23844 3.175,1.48983 0.93671,0.25139 2.25871002,0.36871 2.93781002,0.26045 0.67909,-0.10826 2.18755998,-0.59213 3.35172998,-1.07487 1.16417,-0.48274 7.5935399,-3.30213 14.2874999,-6.26577 6.69396,-2.96363 17.80612,-7.878252 24.6941,-10.921301 23.57514,-10.415281 26.13839,-11.579201 27.00352,-12.259711 0.47651,-0.37482 1.28218,-1.39057 1.79007,-2.25723 0.63013,-1.07523 0.97717,-2.27176 1.09296,-3.7667 0.13233,-1.70861 -0.004,-2.65036 -0.61857,-4.2788 -0.43352,-1.14842 -1.40518,-2.75762 -2.15955,-3.57601 -0.75504,-0.81912 -2.19615,-1.84244 -3.20601,-2.27687 -1.11748,-0.48072 -1.8179,-0.66335 -2.83394,-0.65577 z m -0.93121,3.19619 c 0.13062,0.01 0.2652,0.0903 0.43719,0.23306 0.98028,0.81356 1.05625,2.38666 0.22841,4.73304 l -0.77567,2.19832 1.07642,2.24637 c 0.88587,1.84902 1.00243,2.3636 0.66094,2.91042 -0.22816,0.36534 -0.59536,0.66404 -0.81596,0.66404 -0.22062,0 -0.56448,-0.19827 -0.7643,-0.4408 -0.19982,-0.24254 -0.75426,-1.32662 -1.23196,-2.40916 -0.82529,-1.87017 -0.97678,-2.00887 -3.04478,-2.78226 -1.19704,-0.44766 -2.40833,-1.14502 -2.69183,-1.54977 -0.2835,-0.40475 -0.51573,-1.07789 -0.51573,-1.49603 0,-0.41814 0.255,-0.972 0.56638,-1.23042 0.48717,-0.40432 0.69614,-0.32022 1.49913,0.601 0.90471,1.03792 2.4303,1.89911 3.3631,1.89911 0.25086,0 0.65796,-0.61202 0.90486,-1.36013 0.33258,-1.00775 0.34845,-1.5474 0.0615,-2.08359 -0.30844,-0.57631 -0.25273,-0.88986 0.27285,-1.53893 0.3459,-0.42717 0.55176,-0.61005 0.76946,-0.59427 z m -11.62771,5.2896 c 0.42951,-0.0298 0.82919,0.0814 1.4981,0.31264 1.36638,0.47238 1.56351,0.72273 3.14503,3.99717 l 1.68723,3.49333 -0.80511,1.62212 c -0.55596,1.11977 -1.24221,1.85605 -2.21641,2.37763 -0.77611,0.41553 -1.72861,0.8428 -2.11667,0.94982 -0.38805,0.10701 -1.2555,-0.074 -1.92752,-0.40257 -0.96992,-0.47413 -1.50166,-1.17292 -2.57814,-3.38893 -0.74587,-1.53541 -1.43422,-3.20229 -1.52962,-3.70417 -0.10608,-0.55802 0.14164,-1.51196 0.63768,-2.45567 0.6379,-1.21357 1.17807,-1.69825 2.52853,-2.26807 0.78803,-0.33252 1.24739,-0.50345 1.6769,-0.5333 z m -0.1633,2.17092 c -0.27882,0.003 -0.58382,0.0867 -0.9834,0.25218 -0.57189,0.23689 -1.20523,0.74002 -1.40767,1.11828 -0.29171,0.54508 -0.0921,1.30107 0.96274,3.64319 0.73201,1.62534 1.57856,3.02158 1.88102,3.10317 1.04208,0.28111 1.47024,0.22858 2.50786,-0.30799 0.60398,-0.31233 1.04076,-0.82208 1.04076,-1.21492 0,-0.37232 -0.54058,-1.86282 -1.20096,-3.31194 -0.67871,-1.48932 -1.53582,-2.81445 -1.97197,-3.04787 -0.29651,-0.15869 -0.54955,-0.23683 -0.82838,-0.2341 z m -9.62163,1.95286 1.55494,0.59376 c 1.12195,0.42848 1.68188,0.8968 2.01228,1.68259 0.30426,0.7236 0.3513,1.36789 0.14108,1.92081 -0.17397,0.45758 -0.31626,0.88388 -0.31626,0.94723 0,0.0633 0.36507,0.20684 0.81132,0.31884 0.46825,0.11753 1.06123,0.72721 1.40198,1.44177 0.56069,1.17577 0.55565,1.31964 -0.10232,2.85461 -0.62951,1.4686 -0.93329,1.72745 -3.31918,2.8298 -1.44434,0.667329 -2.79184,1.213363 -2.99465,1.213363 -0.20279,0 -0.67238,-0.595313 -1.04334,-1.322913 -0.37097,-0.7276 -1.41196,-2.96472 -2.31356,-4.97127 -1.06427,-2.36861 -1.56056,-3.89732 -1.41438,-4.35788 0.14272,-0.44966 1.20591,-1.1564 2.9037,-1.93011 z m -0.22066,2.51354 c -0.36061,0 -1.16343,0.25841 -1.78439,0.57413 -0.62095,0.31572 -1.17566,0.61366 -1.23248,0.66197 -0.15374,0.13073 1.08511,2.6448 1.30328,2.6448 0.10309,0 0.87047,-0.26066 1.70481,-0.57929 1.08223,-0.41331 1.58066,-0.8335 1.73942,-1.46606 0.15931,-0.63473 0.038,-1.02164 -0.42633,-1.36116 -0.35673,-0.26085 -0.9437,-0.47439 -1.30431,-0.47439 z m -7.84035,1.25161 c 0.15041,-0.0215 0.26983,0.06 0.40618,0.23874 0.18875,0.24743 0.59578,1.00556 0.90434,1.68465 0.30855,0.6791 1.12089,2.46593 1.80505,3.97082 1.0978,2.41471 1.19898,2.87096 0.86042,3.880898 -0.211,0.629415 -0.63872,1.438408 -0.95033,1.797823 -0.31162,0.359413 -1.0026,0.87897 -1.53531,1.154451 -2.11001,1.091126 -2.57741,1.14912 -4.02559,0.500745 -1.30159,-0.582737 -1.53662,-0.927258 -3.23236,-4.733047 -1.00592,-2.25758 -1.82935,-4.2386 -1.82935,-4.40179 0,-0.1632 0.30181,-0.56937 0.67024,-0.90279 0.63504,-0.5747 0.69432,-0.57052 1.14619,0.0791 0.26216,0.37687 1.19134,2.28287 2.06447,4.2354 1.76129,3.938682 2.26612,4.332831 4.40645,3.438545 0.87916,-0.367337 1.23765,-0.74023 1.23765,-1.287259 0,-0.423566 -0.71437,-2.349756 -1.5875,-4.280356 -0.87312,-1.9306 -1.5875,-3.71079 -1.5875,-3.95583 0,-0.24504 0.29502,-0.71217 0.65526,-1.03818 0.2602,-0.23548 0.44129,-0.36036 0.59169,-0.38189 z m 9.94823,3.47885 c -0.4274,-0.0188 -0.85881,0.14765 -1.63401,0.54312 l -1.45262,0.74104 0.70641,1.38493 0.70694,1.38544 1.32447,-0.5488 c 0.72851,-0.30178 1.52324,-0.71043 1.76578,-0.90795 0.24253,-0.19753 0.4408,-0.7172 0.4408,-1.15497 0,-0.5451 -0.32118,-0.92873 -1.01958,-1.21802 -0.32657,-0.13526 -0.58175,-0.2135 -0.83819,-0.22479 z m -21.43693,1.76889 c 0.3625,-0.01 0.69219,0.0788 1.15806,0.23254 0.73314,0.24196 1.47317,0.61213 1.64487,0.82269 0.1717,0.21056 0.97129,1.85032 1.77663,3.643702 l 1.464,3.260783 -0.70901,1.604037 c -0.64373,1.455269 -0.95797,1.716807 -3.38893,2.824633 -1.47351,0.6715 -2.81973,1.2206 -2.99155,1.2206 -0.17183,0 -0.39089,-0.126971 -0.4868,-0.282154 -0.0959,-0.155181 -1.13885,-2.404534 -2.3182,-4.998662 -1.37088,-3.01543 -2.0664,-4.962209 -1.92805,-5.398119 0.1324,-0.41717 1.26225,-1.15835 2.91042,-1.90944 1.56915,-0.71509 2.26438,-1.00447 2.86856,-1.02061 z m -0.34985,2.25102 c -0.39148,-0.0334 -0.81408,0.12509 -1.61282,0.51315 -1.46194,0.71026 -1.471,0.72669 -1.017,1.812289 0.25195,0.602451 1.01702,2.321394 1.70016,3.819922 l 1.2423,2.724383 1.76992,-0.735357 c 0.97349,-0.404563 1.82392,-0.995759 1.88981,-1.313613 0.0659,-0.317858 -0.43473,-1.820117 -1.11208,-3.338299 -0.81447,-1.825515 -1.53046,-2.916995 -2.1146,-3.223055 -0.28697,-0.15036 -0.51081,-0.23939 -0.74569,-0.25942 z m -9.59373,1.859836 1.48363,0.582393 c 1.25446,0.492768 1.61227,0.873284 2.31459,2.461347 0.77854,1.760427 0.79809,1.96867 0.31832,3.32848 -0.28151,0.797904 -0.5116,1.48853 -0.5116,1.53479 0,0.04626 0.71438,0.356949 1.58751,0.690398 0.87312,0.333449 1.5875,0.806691 1.5875,1.051616 0,0.244922 -0.29017,0.708332 -0.64493,1.029392 -0.60281,0.54553 -0.78921,0.52513 -2.85099,-0.31264 -2.21849,-0.901461 -3.55947,-0.893409 -3.55947,0.0217 0,0.26884 0.18207,0.88821 0.40463,1.37666 0.31231,0.68545 0.30224,1.01134 -0.0434,1.42782 -0.24631,0.29679 -0.67671,0.5395 -0.95653,0.5395 -0.29369,0 -1.0758699,-1.23039 -1.8500199,-2.91041 -3.17897,-6.898799 -3.26869,-7.131135 -2.95434,-7.668268 0.17175,-0.293466 1.51935,-1.122992 2.99413,-1.843297 z m -0.16537,2.611726 c -0.49744,0.0042 -1.12099,0.156416 -1.6805199,0.42323 -0.68848,0.328316 -1.25212,0.762982 -1.25212,0.965832 0,0.202849 0.34674,1.20486 0.7705,2.227255 0.42376,1.022395 0.9495099,1.859317 1.1683999,1.859317 0.2189,0 1.06279,-0.321582 1.87534,-0.714166 1.15642,-0.558723 1.47743,-0.907452 1.47743,-1.605071 0,-1.351976 -0.92845,-2.863416 -1.91048,-3.109889 -0.13069,-0.0328 -0.28273,-0.04789 -0.44855,-0.04651 z M 0.26649812,95.412525 c 0.19175,0 1.42959998,0.41326 2.75124998,0.918289 l 2.40347,0.918289 1.58802,3.398757 c 1.38191,2.9572 1.53248,3.5024 1.16065,4.19716 -0.23502,0.43916 -0.65194,0.79841 -0.92656,0.79841 -0.27461,0 -0.92,-0.9525 -1.43453,-2.11667 -0.51453,-1.16417 -1.06709,-2.11667 -1.22784,-2.11667 -0.16074,0 -1.07586,0.33684 -2.03346,0.74879 -0.9576,0.41195 -1.74097998,0.8984 -1.74097998,1.08107 0,0.18267 0.33048998,1.1013 0.73483998,2.04122 0.58428,1.35821 0.65432,1.86007 0.34054,2.44636 -0.21714,0.40574 -0.62956,0.73794 -0.91621998,0.73794 -0.29352,0 -0.9196,-0.88595 -1.4335,-2.0283 -2.48436002,-5.52246 -2.34126002,-4.7784 -1.39940002,-7.280688 0.96621002,-2.566977 1.63707002,-3.743957 2.13372002,-3.743957 z m 0.23564,2.529048 -0.37723,1.081072 c -0.20733,0.59473 -0.37673,1.312925 -0.37673,1.595765 0,0.28285 0.19827,0.43548 0.4408,0.339 0.24254,-0.0965 1.11583998,-0.44847 1.94044998,-0.78186 0.82462,-0.333398 1.49914,-0.732567 1.49914,-0.88729 0,-0.15472 -0.70339,-0.52093 -1.56321,-0.813903 z"
       id="path4210-4"
       sodipodi:nodetypes="scscsccscccsccsscsscccccscccsssssccssssscscssssssssscsscccccccssccssssssscsccccsccsccscscccccsssssscccssscsssssssscsscssscscscsscssssscsssssscccscccccsccccscccsscsssccssccccsscccsssssssscssssccccsssssscsccccsssssccssssccscsscc" />
    <path
       inkscape:connector-curvature="0"
       style="fill:#c59d21;stroke-width:0.35277778;fill-opacity:1"
       d="m 131.95406,245.19213 c -0.21432,-0.0203 -0.38925,0.0617 -0.53485,0.2465 -0.51901,0.65861 -0.84698,3.35575 -0.43874,3.60805 0.19508,0.12057 0.35347,1.68487 0.35347,3.49023 0,1.79948 0.10577,3.37741 0.23513,3.50676 0.39042,0.39043 0.83354,0.26615 1.04851,-0.29404 0.11168,-0.29104 0.4448,-0.52917 0.74001,-0.52917 0.45288,0 0.503,-0.42688 0.32091,-2.73368 -0.45131,-5.71713 -0.64758,-6.80221 -1.29346,-7.14788 -0.15953,-0.0854 -0.30239,-0.13458 -0.43098,-0.14677 z m -65.394455,0.1509 c -1.30051,0 -1.79642,0.19394 -2.63343,1.03095 -0.56716,0.56716 -1.03095,1.32588 -1.03095,1.68568 0,0.80467 0.95467,2.22209 1.49655,2.22209 0.21903,0 0.76585,0.34501 1.21492,0.76688 0.85301,0.80137 1.08769,2.19884 0.43718,2.60087 -0.20839,0.12879 -0.73974,-0.10554 -1.18132,-0.52038 -0.71256,-0.66942 -0.85371,-0.6935 -1.25213,-0.21342 -0.2469,0.2975 -0.66754,0.54105 -0.93482,0.54105 -0.89489,0 -0.4985,1.06124 0.66042,1.76785 1.65128,1.00681 3.20237,0.90381 4.55166,-0.30179 0.86325,-0.77131 1.05551,-1.15832 0.83303,-1.67535 -0.31787,-0.73868 -0.39959,-1.07702 -0.48008,-1.98334 -0.0296,-0.3328 -0.53087,-1.1485 -1.11414,-1.81281 l -1.0604,-1.20768 1.41283,-0.56586 c 0.7773,-0.31101 1.41335,-0.65657 1.41335,-0.76791 0,-0.11134 -0.16398,-0.5094 -0.36483,-0.8847 -0.27876,-0.52087 -0.74482,-0.68213 -1.96784,-0.68213 z m 39.653385,0.0341 c -0.44867,0.0615 -0.63148,1.20725 -0.63148,3.67419 0,1.82269 -0.18531,3.71964 -0.41135,4.21576 -0.35518,0.77954 -0.30108,1.01918 0.39739,1.76269 0.53673,0.57132 1.29684,0.90499 2.26291,0.99322 0.80016,0.0731 1.52178,0.1604 1.60352,0.1943 0.0817,0.0339 0.43892,-0.20081 0.79375,-0.52193 0.35483,-0.32111 0.64544,-0.7804 0.64544,-1.02061 0,-0.24021 -0.25119,-0.53334 -0.5581,-0.65112 -0.30691,-0.11777 -1.0832,-0.21394 -1.72496,-0.21394 l -1.16686,0 -0.13229,-3.86798 c -0.0775,-2.26533 -0.30021,-4.03642 -0.53743,-4.27364 -0.2116,-0.2116 -0.39098,-0.31145 -0.54054,-0.29094 z m 50.38246,0.0181 c -0.0406,0.001 -0.0828,0.006 -0.12609,0.0145 -0.54932,0.10543 -0.62779,0.69203 -0.71469,5.32474 -0.083,4.42248 -0.0159,5.23813 0.44545,5.41517 0.94649,0.3632 1.59167,-0.55832 1.60662,-2.29495 l 0.0139,-1.63246 0.62114,1.23455 c 0.88052,1.74932 1.85482,3.175 2.1699,3.175 0.14795,0 0.44824,-0.2158 0.66714,-0.47956 0.24302,-0.29281 0.43159,-2.38359 0.48421,-5.36969 0.08,-4.54177 0.0388,-4.90012 -0.57723,-5.02347 -0.3648,-0.073 -0.79075,0.0738 -0.94671,0.32608 -0.15596,0.25235 -0.38822,1.22038 -0.51625,2.15129 -0.12803,0.93093 -0.36243,1.6924 -0.52089,1.6924 -0.34855,0 -2.11512,-3.46745 -2.11512,-4.15168 0,-0.23852 -0.2075,-0.39186 -0.49144,-0.38189 z m -56.27254,0.0191 c -0.462535,-0.006 -1.067085,0.77931 -1.290355,1.80506 -0.13433,0.61719 -0.5202,1.9952 -0.85731,3.06235 -0.33711,1.06716 -0.72489,2.85309 -0.86196,3.96875 -0.2093,1.70363 -0.16178,2.0283 0.29714,2.0283 0.30053,0 0.80613,-0.39653 1.12396,-0.88161 0.31783,-0.48506 0.89198,-0.88211 1.275885,-0.88211 0.3839,0 0.7727,0.28585 0.86403,0.6351 0.12148,0.46452 0.51542,0.63702 1.46658,0.64286 0.71512,0.004 1.41906,-0.1624 1.56424,-0.37052 0.36694,-0.52603 -0.0291,-2.2025 -0.96428,-4.08244 -0.43433,-0.87313 -1.06956,-2.4608 -1.41128,-3.52795 -0.34173,-1.06715 -0.75376,-2.08422 -0.91571,-2.26033 -0.0852,-0.0926 -0.1842,-0.136 -0.29094,-0.13746 z m -11.876785,0.003 c -0.1984,0.002 -0.4135,0.0283 -0.66198,0.0749 -1.37331,0.25762 -2.66392,1.64025 -2.66392,2.85356 0,0.43515 -0.23812,0.98886 -0.52916,1.23041 -0.29104,0.24154 -0.52917,0.983 -0.52917,1.64797 0,0.66498 0.24081,1.6752 0.53537,2.24482 0.71971,1.39178 2.80068,2.46488 4.58008,2.36213 1.31429,-0.0759 1.41839,-0.15997 1.52135,-1.22783 0.0729,-0.7564 -0.0468,-1.15788 -0.35243,-1.17926 -0.25483,-0.0178 -0.92858,-0.0572 -1.49706,-0.0879 -0.93022,-0.0502 -1.07941,-0.23258 -1.49242,-1.82004 -0.2524,-0.97014 -0.46186,-1.93822 -0.4656,-2.15129 -0.004,-0.21306 0.63338,-0.676 1.41593,-1.02888 1.08416,-0.48889 1.52086,-0.54362 1.83451,-0.22996 0.63319,0.63319 1.3286,0.48874 1.3286,-0.27595 0,-0.37818 -0.55438,-1.11047 -1.23196,-1.62729 -0.75139,-0.57312 -1.19695,-0.79101 -1.79214,-0.78549 z m 51.806135,0.0356 c -1.39597,-0.0239 -4.42311,0.4078 -4.9382,0.78445 -0.49572,0.36247 -0.53073,0.59257 -0.20102,1.3162 0.31464,0.69058 0.5928,0.8397 1.30896,0.7028 l 0.90951,-0.17364 0,3.71657 c 0,2.04404 0.0962,3.96725 0.21394,4.27416 0.3566,0.92929 1.09486,0.62713 1.32912,-0.54415 0.12127,-0.60633 0.22065,-2.43214 0.22065,-4.05712 l 0,-2.95434 1.05834,0 c 0.9969,0 1.05833,-0.081 1.05833,-1.39061 0,-0.76466 -0.13722,-1.47509 -0.30489,-1.57872 -0.0975,-0.0603 -0.33259,-0.0901 -0.65474,-0.0956 z m -58.154075,0.0842 c -0.14754,-10e-4 -0.31549,5.3e-4 -0.50591,0.003 -0.87312,0.0116 -2.06375,0.25297 -2.64583,0.5364 l -1.05833,0.51522 0.13022,4.57904 c 0.0716,2.51834 0.19112,4.68293 0.2651,4.81005 0.18328,0.31489 4.46391,-0.0695 4.86379,-0.43667 0.18884,-0.17342 0.12749,-0.52622 -0.14986,-0.86041 -0.32332,-0.38958 -0.91962,-0.53438 -1.9079,-0.46302 -1.32294,0.0955 -1.43712,0.0343 -1.43712,-0.77102 0,-0.72486 0.19213,-0.89401 1.11931,-0.98392 0.73078,-0.0708 1.32189,-0.41788 1.70326,-0.99993 0.54437,-0.8308 0.54382,-0.93599 -0.009,-1.5472 -0.32644,-0.36071 -0.97911,-0.70432 -1.45004,-0.76377 -0.47094,-0.0594 -0.89081,-0.26693 -0.93328,-0.46096 -0.0425,-0.19402 0.63686,-0.52492 1.50999,-0.73535 1.43098,-0.34488 1.5875,-0.48418 1.5875,-1.41129 0,-0.86356 -0.0488,-1.00258 -1.08159,-1.01027 z m 36.385375,0.15813 c -1.40798,0 -2.01134,0.1705 -2.49494,0.70487 -0.56818,0.62783 -0.61421,1.16721 -0.42426,4.94492 0.11726,2.33212 0.30949,4.39609 0.42736,4.5868 0.26558,0.42973 0.77371,0.44912 1.02733,0.0387 0.10873,-0.17594 0.8982,-0.17659 1.83761,-0.001 1.14466,0.21385 1.79766,0.18267 2.14044,-0.10181 0.27128,-0.22514 0.44596,-0.74063 0.38809,-1.14566 -0.0856,-0.59883 -0.41989,-0.76918 -1.78955,-0.91261 -0.92639,-0.097 -1.68064,-0.29528 -1.67587,-0.4408 0.005,-0.14553 0.008,-0.54257 0.008,-0.88212 -2.7e-4,-0.49122 0.3058,-0.61753 1.49913,-0.61753 1.42767,0 1.49965,-0.0501 1.49965,-1.04696 0,-0.96044 -0.13148,-1.07295 -1.5875,-1.35444 -0.87312,-0.1688 -1.71619,-0.42966 -1.87379,-0.57981 -0.15759,-0.15016 0.39362,-0.38172 1.22525,-0.5147 1.55484,-0.24863 2.76521,-1.04222 2.76521,-1.81281 0,-0.24021 -0.2512,-0.53283 -0.55811,-0.65061 -0.30693,-0.11783 -1.39311,-0.21445 -2.41432,-0.21445 z m 7.00681,0 c -0.81288,0 -1.64028,0.19879 -1.83813,0.44132 -0.19785,0.24254 -0.47368,2.13627 -0.61288,4.20853 -0.1925,2.86559 -0.13775,4.031 0.22841,4.86689 0.37583,0.85796 0.63621,1.05146 1.187,0.8816 0.38806,-0.11969 1.25397,-0.29341 1.92392,-0.38551 0.66995,-0.0921 1.44838,-0.35858 1.73012,-0.59221 0.81136,-0.6728 1.46261,-2.56236 1.44901,-4.20543 -0.007,-0.83086 -0.20566,-1.83519 -0.44131,-2.23139 -0.23567,-0.3962 -0.81525,-1.22963 -1.2883,-1.85208 -0.72717,-0.95682 -1.08829,-1.13172 -2.33784,-1.13172 z m 24.45845,0.008 c -0.33649,-0.004 -1.13058,0.45555 -1.76423,1.02164 -1.11527,0.99637 -1.15187,1.11775 -1.15187,3.79253 0,1.82123 0.21756,3.32671 0.63821,4.41679 0.35101,0.90961 0.90646,1.72282 1.23455,1.80712 0.7669,0.19705 1.69195,-0.0409 3.28713,-0.84542 0.70368,-0.35489 1.39283,-0.92963 1.53118,-1.27745 0.13834,-0.3478 0.33738,-1.83457 0.44235,-3.30367 0.1259,-1.76204 0.0452,-2.94281 -0.23668,-3.46955 -0.43612,-0.81489 -2.87623,-2.128 -3.98064,-2.14199 z m -55.407975,0.006 c -0.29067,0.0209 -0.63109,0.29415 -0.86662,0.78031 -0.2115,0.43656 -0.49049,1.82597 -0.62011,3.08715 -0.12963,1.26118 -0.22116,2.4518 -0.20361,2.64583 0.0844,0.93222 0.44748,3.22346 0.57309,3.6158 0.23244,0.72595 1.15544,0.49864 1.43351,-0.35295 0.26912,-0.82422 0.43397,-8.57319 0.19895,-9.34827 -0.0933,-0.30754 -0.28914,-0.44417 -0.51521,-0.42787 z m 48.924135,0.0486 c -0.0858,-0.002 -0.16594,0.009 -0.23564,0.0362 -0.40294,0.15462 -0.52108,1.21476 -0.57516,5.16713 -0.0374,2.73501 0.0291,5.13021 0.14779,5.32216 0.33001,0.53398 1.23197,0.41475 1.23197,-0.16278 0,-0.2814 0.26353,-0.65906 0.58549,-0.83923 0.51585,-0.28869 0.55721,-0.82439 0.34675,-4.50929 -0.16287,-2.85166 -0.39634,-4.33873 -0.73432,-4.67671 -0.20443,-0.20443 -0.50959,-0.33171 -0.76688,-0.33745 z m -71.868985,0.0579 c -0.46094,-0.006 -0.67474,0.17122 -1.02526,0.60409 -0.34099,0.42112 -0.61583,1.10527 -0.61082,1.52033 0.02,1.65837 0.69598,7.70032 0.89813,8.02741 0.453,0.73295 1.03747,0.0209 1.14154,-1.39113 0.0857,-1.16264 0.24696,-1.47226 0.76687,-1.47226 0.36202,0 1.1466,-0.4108 1.74357,-0.91312 0.93444,-0.78628 1.0852,-1.14865 1.0852,-2.60656 0,-1.0872 -0.22118,-1.96674 -0.61753,-2.45618 -0.33955,-0.41929 -1.33025,-0.92244 -2.20193,-1.11828 -0.53764,-0.12079 -0.90322,-0.19051 -1.17977,-0.1943 z m 1.14773,1.82055 c 0.27487,0 0.64832,0.44584 0.82992,0.99064 0.25863,0.77588 0.19577,1.13921 -0.2899,1.67587 -0.34103,0.37683 -0.76283,0.68471 -0.93741,0.68471 -0.17459,0 -0.26895,-0.75371 -0.20981,-1.67535 0.0744,-1.15991 0.26126,-1.67587 0.6072,-1.67587 z m 52.891335,0.17622 c 0.45047,0 1.35093,1.13118 1.63091,2.04897 0.13661,0.44783 0.06,1.59911 -0.17001,2.55798 -0.31931,1.33099 -0.57704,1.74305 -1.08883,1.74305 -0.60899,0 -0.67024,-0.29074 -0.67024,-3.175 0,-1.74625 0.13421,-3.175 0.29817,-3.175 z m 24.4812,0.28887 1.01595,1.11208 c 0.55872,0.61171 1.01596,1.50733 1.01596,1.99006 0,1.13189 -0.87108,2.81177 -1.60352,3.09283 -1.3989,0.53681 -1.57148,0.29788 -1.57148,-2.17196 0,-1.63331 0.18104,-2.64951 0.57154,-3.20704 z m -50.05069,4.41937 c 0.0321,0.005 0.0699,0.0593 0.11213,0.16485 0.10191,0.25466 0.0898,0.55871 -0.0274,0.67593 -0.11722,0.11723 -0.200825,-0.0911 -0.185505,-0.46303 0.0106,-0.25685 0.0473,-0.38585 0.100765,-0.37775 z"
       id="path4210-7"
       sodipodi:nodetypes="cccsccssccsssscsssssscccccssscssccccscsccscccsscccscsccsssccccssscsccsssccccscssscccscscsscccccccscsscssccccccsccscscccccsscccsscccsccccssscsscccscsscssccsscssssssscccsscccccccscscssccccccsssssscsssscssscsssccssscccccccc" />
    <path
       inkscape:connector-curvature="0"
       style="fill:#c59d21;stroke-width:0.35277778"
       d="m 112.16716,74.124939 c -2.60028,0.02294 -6.09931,0.629254 -6.79752,1.208712 -0.29733,0.246759 -0.49402,1.081046 -0.49402,2.096513 0,1.276505 0.30067,2.218496 1.23506,3.871598 0.67909,1.201446 1.23455,2.497435 1.23455,2.879928 0,0.561908 0.15241,0.646218 0.79375,0.43925 0.43656,-0.140885 1.50813,-0.275587 2.38125,-0.299207 0.90461,-0.02447 2.01799,-0.330004 2.58796,-0.710035 0.77182,-0.51461 1.06263,-0.565282 1.27434,-0.222724 0.15091,0.244168 0.65361,0.390009 1.11673,0.324527 0.63305,-0.08951 1.12656,-0.679917 1.98851,-2.378666 0.76886,-1.515269 1.14618,-2.762458 1.14618,-3.786332 0,-1.48353 -0.0511,-1.552829 -1.81436,-2.446363 -1.35086,-0.68453 -2.41081,-0.933563 -4.14548,-0.9741 -0.16427,-0.0038 -0.3336,-0.0046 -0.50695,-0.0031 z M 111.7,76.010095 c 0.87149,0 1.84186,0.09858 2.15595,0.219108 0.64309,0.24678 1.603,1.917032 1.603,2.788977 0,0.315602 -0.46378,1.037912 -1.03095,1.60507 -0.79269,0.792707 -1.35436,1.030945 -2.42879,1.030945 -1.09625,0 -1.52046,-0.18719 -1.96732,-0.869197 -0.6241,-0.952498 -0.76409,-2.305803 -0.23823,-2.305803 0.18258,0 0.43045,0.158923 0.55036,0.35295 0.11992,0.194028 0.83435,0.35295 1.58801,0.35295 1.01364,0 1.51235,-0.203267 1.91616,-0.779797 0.36053,-0.514725 0.4272,-0.897789 0.19638,-1.128613 -0.34441,-0.344399 -2.15889,-0.442816 -3.15072,-0.171049 -0.27952,0.07659 -0.56911,-0.138975 -0.64337,-0.478524 -0.11292,-0.516369 0.12422,-0.617017 1.44952,-0.617017 z m -3.12022,6.70244 c 0.097,0 0.17674,0.07971 0.17674,0.176733 0,0.09701 -0.0798,0.176217 -0.17674,0.176217 -0.097,0 -0.17621,-0.07921 -0.17621,-0.176217 0,-0.09701 0.0792,-0.176733 0.17621,-0.176733 z m 1.82108,2.584337 c -0.78387,0.02048 -1.0239,0.197477 -1.37976,0.627869 -0.57235,0.692238 -0.81276,1.764777 -0.47232,2.108914 0.08,0.08085 1.57779,0.09657 3.32848,0.03462 2.16361,-0.07657 3.31272,-0.268913 3.58789,-0.600479 0.22266,-0.268284 0.30933,-0.789664 0.19224,-1.158584 -0.17791,-0.560538 -0.69009,-0.708919 -3.11609,-0.901237 -1.00403,-0.07959 -1.67012,-0.123385 -2.14044,-0.111106 z m -0.0362,3.446819 c -0.99744,-0.01897 -1.39322,0.140533 -1.96112,0.608232 l -0.88212,0.726053 0.7767,0.788064 c 0.70727,0.717918 0.89927,0.75111 2.15749,0.374137 0.75966,-0.2276 1.70322,-0.413411 2.09651,-0.413411 0.39329,0 0.80219,0.227586 0.90899,0.505912 0.15866,0.413438 0.39133,0.431734 1.27227,0.09922 0.59305,-0.223851 1.07849,-0.664377 1.07849,-0.978749 0,-0.314376 -0.43095,-0.767747 -0.95756,-1.007692 -0.52663,-0.239946 -1.99524,-0.522902 -3.26337,-0.628386 -0.4949,-0.04116 -0.8938,-0.06706 -1.22628,-0.07338 z m 1.59783,3.846793 c -1.78187,0 -2.6236,0.16338 -3.18327,0.617532 -0.6779,0.550087 -0.7061,0.691515 -0.25941,1.301213 0.47016,0.64172 0.62565,0.65456 2.50114,0.204639 1.79773,-0.431271 2.0593,-0.420137 2.58899,0.109553 0.32408,0.324081 0.79813,0.589114 1.05368,0.589114 0.25556,0 0.55643,-0.23921 0.66869,-0.531752 0.11226,-0.292542 -0.0547,-0.927714 -0.37155,-1.411282 -0.52143,-0.795809 -0.80584,-0.879017 -2.99827,-0.879017 z m 0.30851,3.259748 c -0.41714,-0.0057 -0.79984,0.160462 -1.48001,0.455271 -0.82798,0.358871 -1.70412,0.800391 -1.94665,0.981335 -0.46751,0.348779 -0.60109,1.728496 -0.20568,2.1239 0.45406,0.454057 1.32706,0.226584 2.651,-0.690912 1.29082,-0.894532 1.36736,-0.905761 2.25206,-0.32608 0.50377,0.330081 1.15228,0.509831 1.44126,0.398944 0.65258,-0.250423 0.49334,-1.625484 -0.22944,-1.980242 -1.35323,-0.664197 -1.94621,-0.954934 -2.48254,-0.962216 z m 1.17099,3.44837 c -1.5642,0.0085 -4.02591,0.869598 -4.40077,1.539438 -0.495,0.88451 -0.0773,1.72391 0.73019,1.46761 0.36609,-0.11619 1.5763,-0.26028 2.68976,-0.32039 1.28656,-0.0694 2.12291,-0.29102 2.29443,-0.6072 0.14844,-0.27365 0.13462,-0.85432 -0.031,-1.29088 -0.21357,-0.563129 -0.58628,-0.79238 -1.28261,-0.788578 z m 12.03596,2.888198 c -1.29665,-0.004 -2.64676,0.1194 -4.50464,0.3855 -2.81646,0.40341 -5.71931,0.52502 -10.26552,0.43047 -3.48629,-0.0725 -7.03492,-0.002 -7.88582,0.15709 -0.85089,0.15896 -2.60214,0.15448 -3.891749,-0.0103 -2.636559,-0.33687 -7.191769,-0.0447 -6.891049,0.44184 0.10806,0.17484 0.81034,0.56331 1.56062,0.86351 1.02737,0.41107 1.46224,0.84206 1.76062,1.74615 0.21791,0.66027 0.64502,1.33972 0.9493,1.50999 0.45598,0.25518 0.48536,0.50443 0.16743,1.41645 -0.2943,0.84423 -0.26942,1.49299 0.1049,2.73678 0.308059,1.02361 0.925199,1.99422 1.658299,2.60913 1.14416,0.95975 1.17985,0.96611 1.798339,0.30801 0.3471,-0.36934 1.07642,-0.67128 1.62057,-0.67128 0.54415,0 1.84745,-0.29425 2.89646,-0.65371 1.39383,-0.4776 3.3794,-0.70501 7.37526,-0.84491 4.56591,-0.15985 5.87531,-0.0866 7.9375,0.44545 1.35827,0.35044 2.94587,0.88866 3.52795,1.1958 0.58208,0.30714 1.4063,0.55948 1.83141,0.56069 0.42511,10e-4 0.90035,-0.19621 1.05575,-0.43874 0.52267,-0.81574 1.15944,-2.90307 1.16479,-3.81785 0.003,-0.49901 -0.24448,-1.63956 -0.54932,-2.53421 -0.42884,-1.25859 -0.46372,-1.79515 -0.15503,-2.37195 0.21944,-0.41003 1.2228,-1.2542 2.22984,-1.87586 l 1.83089,-1.13016 -2.95227,-0.31729 c -0.83804,-0.0901 -1.59655,-0.13828 -2.37453,-0.14056 z m 7.33598,1.40921 c -0.1534,-0.006 -0.31703,0.0113 -0.48369,0.0548 -1.29299,0.33729 -3.1695,1.61538 -2.93315,1.99781 0.31881,0.51585 1.68085,0.42112 2.93419,-0.20412 0.60803,-0.30333 1.20583,-0.71395 1.3286,-0.9126 0.29238,-0.47309 -0.1812,-0.91227 -0.84595,-0.93587 z m -21.48706,0.63614 c 0.75899,0 1.89757,0.24583 2.5306,0.54622 1.09669,0.52041 1.9544,1.74673 1.9544,2.79466 0,0.26702 -0.4108,0.97399 -0.91312,1.57096 -0.79546,0.94535 -1.12583,1.07899 -2.55799,1.03715 -0.90439,-0.0264 -2.00301,-0.11665 -2.44171,-0.20102 -0.87615,-0.16849 -1.84846,-1.73436 -1.84846,-2.97708 0,-0.43559 0.42689,-1.2371 0.94826,-1.78129 0.72227,-0.75389 1.27656,-0.9896 2.32802,-0.9896 z m 0.77722,0.39481 c -0.44606,-0.0128 -1.06077,0.12541 -1.45986,0.33899 -0.79362,0.42473 -1.09215,1.35526 -0.59428,1.85312 0.12935,0.12935 0.82408,0.23513 1.54409,0.23513 0.76409,0 1.50236,-0.23251 1.77302,-0.55862 0.33516,-0.40385 0.36127,-0.72185 0.0951,-1.14671 -0.2026,-0.32327 -0.73304,-0.64164 -1.17874,-0.70744 -0.0557,-0.008 -0.11559,-0.0126 -0.17931,-0.0145 z m -7.69152,0.016 c 0.37719,0.0206 1.03022,0.29758 1.56011,0.67489 1.02867,0.73248 1.0869,0.88866 0.88366,2.37143 -0.11965,0.87291 -0.39535,1.80133 -0.61288,2.06344 -0.21753,0.26211 -0.90449,0.47646 -1.526,0.47646 -0.72508,0 -1.40486,-0.2926 -1.89704,-0.81649 -0.42187,-0.44906 -0.76688,-1.13993 -0.76688,-1.5353 0,-0.95747 1.4581,-3.08135 2.21537,-3.22718 0.0414,-0.008 0.0898,-0.0102 0.14366,-0.007 z m -14.013098,0.0134 c -0.23013,0.0121 -0.34054,0.11392 -0.34054,0.3085 0,0.49947 1.37162,2.08928 1.80247,2.08928 0.14758,0 0.70557,-0.16589 1.23972,-0.36897 l 0.97099,-0.36949 -1.12034,-0.68109 c -0.61616,-0.37472 -1.51916,-0.78148 -2.0066,-0.90382 -0.22667,-0.0569 -0.40762,-0.0817 -0.5457,-0.0744 z m 30.897338,0.63407 c 1.27106,0 1.66023,0.1615 2.13578,0.88729 0.55691,0.84995 0.54021,0.94715 -0.39274,2.29339 -0.98391,1.41978 -1.19873,1.49177 -3.43493,1.15291 -0.65899,-0.0999 -1.03606,-0.41387 -1.17822,-0.98031 -0.11501,-0.45822 -0.10508,-1.16075 0.0222,-1.56166 0.40526,-1.27686 1.2232,-1.79162 2.84789,-1.79162 z m -15.57166,0.76895 c -0.0843,-0.0127 -0.14366,0.0954 -0.14366,0.28938 0,0.25871 0.10577,0.36448 0.23513,0.23513 0.12934,-0.12935 0.12934,-0.3409 0,-0.47025 -0.0323,-0.0323 -0.0634,-0.05 -0.0915,-0.0543 z m 15.20217,0.28939 c -0.097,0 -0.17673,0.0792 -0.17673,0.17621 0,0.097 0.0798,0.17674 0.17673,0.17674 0.097,0 0.17622,-0.0797 0.17622,-0.17674 0,-0.097 -0.0792,-0.17621 -0.17622,-0.17621 z m 0.88677,0.42374 c -0.0297,8e-4 -0.0607,0.006 -0.093,0.0171 -0.24253,0.0808 -0.49227,0.41136 -0.555,0.73484 -0.0675,0.3481 0.11227,0.58808 0.44079,0.58808 0.32725,0 0.55501,-0.30152 0.55501,-0.73485 0,-0.3772 -0.13961,-0.61038 -0.34778,-0.60513 z m -17.52296,0.0382 c -0.43761,-0.0334 -0.82631,0.28891 -0.82631,0.87902 0,1.04274 0.77258,1.52332 1.23817,0.76998 0.12187,-0.1972 0.36921,-0.26719 0.54984,-0.15555 0.48642,0.30063 0.37796,-0.27298 -0.19483,-1.02939 -0.2239,-0.29569 -0.50431,-0.44399 -0.76687,-0.46406 z m 25.76225,0.59583 c -1.49024,0 -1.51618,0.02 -1.17977,0.90486 0.18921,0.49769 0.3438,1.41034 0.34364,2.0283 -2.6e-4,1.26968 -1.70133,5.10603 -2.59002,5.8415 -0.32176,0.26629 -0.58498,0.68349 -0.58498,0.92708 0,0.24359 0.2494,1.03889 0.55398,1.76785 l 0.55397,1.3255 1.42006,-1.37046 c 0.78123,-0.75376 1.99223,-2.24375 2.69079,-3.31091 1.07009,-1.63468 1.29354,-2.31746 1.41801,-4.33669 0.11953,-1.93921 0.0283,-2.52878 -0.47697,-3.08715 -0.43628,-0.48208 -1.08402,-0.68988 -2.14871,-0.68988 z m -36.217938,0.5793 c -0.26845,0.0197 -0.74133,0.15265 -1.2113,0.34985 -1.66396,0.69813 -1.82357,1.85426 -0.60719,4.39921 0.54681,1.14408 1.10016,2.07998 1.22989,2.07998 0.12973,0 0.98449,0.9525 1.89911,2.11666 0.91463,1.16417 1.832949,2.11667 2.041219,2.11667 0.20827,0 0.58974,-0.27798 0.8475,-0.61753 0.25775,-0.33955 0.4739,-0.89899 0.48007,-1.24334 0.006,-0.34435 -0.36517,-0.76887 -0.82476,-0.94361 -0.991079,-0.37681 -2.210039,-1.84806 -2.900599,-3.50056 -0.27341,-0.65428 -0.49712,-1.95424 -0.49712,-2.88923 0,-0.935 -0.11906,-1.76656 -0.26458,-1.84795 -0.0364,-0.0203 -0.10276,-0.0267 -0.19224,-0.0202 z m 24.895628,0.5364 c -0.0652,0.001 -0.052,0.0836 0.0455,0.24133 0.25133,0.40666 0.56327,0.54592 0.56327,0.25166 0,-0.0856 -0.1832,-0.26877 -0.40721,-0.40721 -0.0946,-0.0585 -0.16239,-0.0866 -0.20154,-0.0858 z m -5.16196,5.99188 c -0.099,-7.9e-4 -0.1996,0.004 -0.30334,0.0145 l -1.12241,0.11007 0.0956,2.02107 c 0.0526,1.11172 -0.0349,2.22314 -0.1943,2.46962 -0.17309,0.26762 -0.36077,-0.54677 -0.46612,-2.02159 -0.17619,-2.46677 -0.17758,-2.46902 -1.19373,-2.39623 -1.06053,0.076 -3.57127,1.61038 -3.85816,2.35799 -0.23124,0.6026 0.55124,3.52431 1.13068,4.22248 0.37527,0.45218 1.12792,0.57826 3.4494,0.57826 2.21785,0 3.30072,-0.16873 4.27829,-0.66766 0.71987,-0.36741 1.60091,-0.99109 1.95802,-1.38596 0.5757,-0.6366 0.59782,-0.8606 0.19482,-1.97507 -0.24998,-0.69131 -1.06116,-1.74417 -1.80247,-2.33991 -0.87223,-0.70094 -1.47355,-0.98261 -2.16628,-0.98754 z m -79.841628,2.10788 c -1.07035,0.0217 -2.37533,0.32636 -2.62775,0.72451 -0.1631,0.25725 -0.30284,0.8642 -0.31058,1.34927 -0.008,0.48507 -0.33483,1.83462 -0.72657,2.99878 -0.39541,1.17511 -0.94063,4.39228 -1.22576,7.23212 -0.28248,2.8134 -0.69422,6.38528 -0.91519,7.9375 -0.22098,1.55222 -0.34293,3.13937 -0.27079,3.52743 0.0721,0.38805 0.10294,2.74724 0.0682,5.24257 l -0.063,4.5372 2.36213,-0.25012 c 1.29911,-0.13758 2.55752,-0.41074 2.79673,-0.60668 0.54851,-0.44929 1.14826,-2.57096 1.15084,-4.0721 0.001,-0.63059 0.1085,-1.1467 0.23874,-1.1467 0.13024,0 0.53054,0.26599 0.88987,0.59118 0.35933,0.32519 0.89911,1.43661 1.19941,2.46961 0.3003,1.033 0.65373,1.87285 0.78548,1.86604 0.13175,-0.007 1.27148,-0.30315 2.53266,-0.65836 2.03433,-0.57298 2.28696,-0.74057 2.23863,-1.48673 -0.03,-0.46259 -0.31009,-2.95407 -0.62219,-5.5361 -0.3121,-2.58201 -0.53645,-5.51872 -0.49868,-6.52621 0.0752,-2.00571 -0.44558,-5.29625 -1.49706,-9.45886 -0.37348,-1.47855 -0.68824,-3.38354 -0.69918,-4.23333 -0.0109,-0.84978 -0.21026,-2.10059 -0.44339,-2.77968 -0.35547,-1.03548 -0.59429,-1.23745 -1.47949,-1.24953 -0.58054,-0.008 -1.34103,-0.14661 -1.68982,-0.30851 -0.26862,-0.12469 -0.70669,-0.17318 -1.19321,-0.1633 z m 160.776228,0.009 c -0.53144,0.002 -1.22328,0.19208 -1.64073,0.46561 -0.64127,0.42017 -1.61097,0.55244 -3.71812,0.50746 -2.71634,-0.058 -2.89002,-0.0144 -3.6959,0.92346 -0.82863,0.96434 -1.12408,2.42405 -0.5612,2.77192 0.15629,0.0966 0.10848,1.41602 -0.10594,2.93161 -0.23877,1.68776 -0.34513,6.85663 -0.27492,13.33872 l 0.11472,10.58333 3.95945,0.78032 c 2.1779,0.42905 4.19809,0.9354 4.48913,1.12551 0.29104,0.19012 0.77003,0.35497 1.06454,0.36638 0.2945,0.0114 1.12794,-0.38177 1.85208,-0.87384 0.72414,-0.49207 1.31119,-1.16659 1.30431,-1.49914 -0.007,-0.33256 -0.23947,-1.00166 -0.51676,-1.48673 -0.27729,-0.48507 -0.50989,-1.65351 -0.51676,-2.59674 l -0.0124,-1.71514 -1.32292,0.24702 c -0.7276,0.13571 -1.60677,0.54992 -1.95389,0.92087 -0.67142,0.71754 -1.66191,0.90952 -1.66191,0.32194 0,-0.19403 -0.31359,-0.66654 -0.6966,-1.04954 -0.383,-0.38301 -0.91247,-1.63192 -1.17667,-2.77555 l -0.48059,-2.07945 2.51406,-0.19017 c 1.5722,-0.11891 3.0614,-0.47521 3.97495,-0.95137 0.80346,-0.41879 1.65404,-0.99387 1.88981,-1.27796 0.33757,-0.40675 0.32936,-0.72067 -0.0377,-1.47639 -0.25641,-0.52784 -0.42878,-1.10781 -0.38292,-1.28933 0.0459,-0.18152 -0.002,-0.67213 -0.10697,-1.08985 -0.11391,-0.45383 -0.77354,-1.0222 -1.63866,-1.41232 -1.08497,-0.48925 -1.59847,-0.55866 -2.04949,-0.27699 -0.33101,0.20672 -1.24705,0.48527 -2.03605,0.61857 l -1.43454,0.24236 -0.22014,-1.87482 c -0.20279,-1.72767 0.0158,-4.52014 0.35399,-4.52014 0.0794,0 0.7669,0.31734 1.52755,0.70539 0.76065,0.38806 1.61936,0.7059 1.90841,0.7059 0.28904,0 1.26463,-0.4989 2.16783,-1.10846 l 1.64228,-1.10846 -0.14108,-2.33113 c -0.0774,-1.28221 -0.37291,-2.80737 -0.65681,-3.38945 -0.35955,-0.7372 -0.81654,-1.09325 -1.50637,-1.17254 -0.0681,-0.008 -0.14112,-0.0111 -0.21704,-0.0108 z m -140.194548,2.0774 c -0.47752,-0.003 -0.92951,0.11922 -1.19062,0.38034 -0.21701,0.21701 -1.06401,0.32915 -1.89291,0.25011 -1.34223,-0.128 -1.55874,-0.0396 -2.05879,0.83974 -0.30739,0.54055 -0.65969,0.98372 -0.7829,0.98495 -0.1232,0.001 -0.48419,-0.39498 -0.80201,-0.88004 -0.45463,-0.69385 -0.87437,-0.88161 -1.96836,-0.88161 -1.00222,0 -1.49017,0.18587 -1.74718,0.66611 -0.24028,0.44897 -0.2403,4.85041 0,13.49375 0.19615,7.05509 0.42545,13.02591 0.50953,13.26844 0.0947,0.27317 0.82026,0.44081 1.90686,0.44081 1.02241,0 1.86802,-0.18379 2.02727,-0.44081 0.15027,-0.24253 0.22991,-1.90892 0.17673,-3.70313 -0.0732,-2.46971 0.0333,-3.44813 0.43925,-4.02766 l 0.5364,-0.76584 0.39481,1.02939 c 1.08173,2.81754 2.10168,6.34538 2.10168,7.26932 0,1.02942 0.009,1.03353 1.67587,0.82114 0.92163,-0.11744 2.20428,-0.29512 2.85047,-0.39532 l 1.17512,-0.18242 -0.23409,-3.94756 c -0.20788,-3.51099 -0.36676,-4.22321 -1.43919,-6.44302 -0.66317,-1.37267 -1.20562,-2.69258 -1.20562,-2.93316 0,-0.24059 0.49877,-0.85742 1.10847,-1.37045 0.60969,-0.51302 1.39977,-1.57386 1.75596,-2.358 0.80803,-1.77887 0.88542,-4.61672 0.13384,-4.90513 -0.29407,-0.11285 -0.52962,-0.63861 -0.53071,-1.1839 -0.003,-1.42027 -0.68682,-3.70533 -1.32292,-4.42092 -0.34697,-0.39034 -1.003,-0.60134 -1.61696,-0.60513 z m 121.358488,0.21756 c -2.81935,-0.0235 -6.29475,0.60895 -7.23418,1.31619 -0.31106,0.23417 -0.40112,0.75214 -0.26459,1.52136 0.11383,0.64137 0.30355,1.72066 0.42168,2.39882 0.11813,0.67815 0.12506,1.46687 0.0155,1.75235 -0.28466,0.74182 -0.51014,18.53771 -0.24805,19.5771 0.187,0.74154 0.53303,0.92282 2.40244,1.2609 1.20101,0.2172 2.38,0.27318 2.62051,0.12454 0.62885,-0.38866 0.82263,-5.03776 0.27853,-6.68641 -0.35883,-1.08726 -0.3589,-1.55885 5.3e-4,-2.42621 0.24529,-0.59219 0.57379,-1.07694 0.73019,-1.07694 0.60275,0 1.69746,1.85104 2.10892,3.56619 0.24323,1.01391 0.36042,2.99867 0.26975,4.5651 -0.14994,2.5901 -0.11227,2.781 0.57412,2.91662 0.40395,0.0798 1.62877,0.16685 2.7218,0.19326 1.78257,0.0431 2.00907,-0.0337 2.19987,-0.74569 0.117,-0.43656 0.21491,-2.09357 0.21755,-3.68194 0.004,-2.37036 -0.18502,-3.38048 -1.05368,-5.63635 -0.58208,-1.51164 -1.05833,-2.91436 -1.05833,-3.11712 0,-0.20275 0.51611,-0.9951 1.1467,-1.76114 l 1.14618,-1.39319 -0.0842,-4.7718 c -0.0704,-3.97412 -0.19173,-4.9162 -0.72554,-5.63118 -0.35256,-0.47221 -1.2402,-1.16924 -1.97249,-1.54926 -0.98763,-0.51253 -2.07544,-0.69742 -4.21318,-0.7152 z m -11.49232,1.32291 c -0.3407,0.019 -0.71067,0.13223 -1.22163,0.34572 -0.70426,0.29426 -1.28959,0.6621 -1.3007,0.81752 -0.0111,0.15542 -0.0897,3.42261 -0.17467,7.26002 -0.12617,5.69991 -0.26074,7.13926 -0.73535,7.8636 -0.4688,0.71549 -0.50336,1.05701 -0.17829,1.77044 0.22155,0.48625 0.40256,1.1941 0.40256,1.57303 0,0.71594 -0.58662,0.85328 -2.01331,0.47077 -1.35348,-0.36289 -1.63442,-2.10086 -1.35754,-8.39432 0.13732,-3.12106 0.39637,-5.82565 0.57567,-6.00997 0.1793,-0.18433 0.32608,-1.07783 0.32608,-1.98541 0,-1.05229 -0.19614,-1.81233 -0.54105,-2.09858 -0.29748,-0.24689 -1.28984,-0.51717 -2.20503,-0.60048 -1.07202,-0.0976 -1.89252,0.0199 -2.30632,0.33073 -0.44324,0.33295 -0.74032,1.24349 -0.9586,2.93832 -0.17396,1.35077 -0.32128,5.65611 -0.32763,9.56738 l -0.0114,7.11171 1.60508,1.97042 c 0.88291,1.08388 2.03419,2.21459 2.55798,2.51251 0.70839,0.40292 1.62317,0.49956 3.57187,0.37724 1.83686,-0.1153 2.8908,-0.36687 3.52692,-0.84181 0.49898,-0.37254 1.06791,-1.24928 1.26401,-1.9482 0.1961,-0.69893 0.55336,-1.46754 0.79426,-1.70843 0.61827,-0.61828 0.54375,-2.06534 -0.14573,-2.82721 -0.53221,-0.58808 -0.53453,-0.69969 -0.0274,-1.26246 0.44448,-0.49326 0.62483,-2.13818 0.89865,-8.18296 0.1885,-4.16109 0.26908,-7.75804 0.1788,-7.99331 -0.0903,-0.23527 -0.60837,-0.61173 -1.15135,-0.83665 -0.39395,-0.16317 -0.70523,-0.23856 -1.04593,-0.21962 z m -23.98304,0.38758 c -0.46392,0 -0.96082,0.23812 -1.1038,0.52916 -0.68922,1.40282 -1.05162,3.25848 -1.05162,5.38417 0,1.39426 0.16543,2.43765 0.41031,2.58899 0.2256,0.13943 0.90063,0.35318 1.49965,0.47491 1.05878,0.21517 1.091,0.2799 1.16686,2.32492 0.17398,4.69046 0.90372,12.00845 1.23868,12.42198 0.19645,0.24253 0.85355,0.45248 1.46038,0.46612 0.60682,0.0136 1.42113,0.16087 1.80919,0.32763 1.16125,0.499 1.89407,0.39269 2.28151,-0.33125 0.25481,-0.47612 0.25204,-0.75467 -0.008,-0.9157 -0.22009,-0.13602 -0.27789,-0.67101 -0.14005,-1.29863 0.12897,-0.58719 0.1195,-3.2909 -0.0212,-6.0079 -0.22224,-4.29231 -0.33706,-4.96134 -0.87695,-5.10253 -0.53341,-0.13949 -0.57024,-0.33002 -0.25838,-1.34618 0.36333,-1.18382 1.0226,-1.61665 3.18275,-2.08927 0.98455,-0.21541 0.98494,-0.21573 0.88212,-2.90164 -0.0769,-2.00772 -0.24626,-2.77717 -0.67128,-3.04425 -0.43814,-0.27531 -0.9019,-0.0895 -2.019,0.80822 -1.21016,0.97251 -1.5393,1.09102 -1.98902,0.71778 -0.29639,-0.24597 -0.539,-0.75655 -0.539,-1.13481 0,-0.62353 -0.17294,-0.66631 -1.85208,-0.45889 -1.70844,0.21105 -1.8791,0.1649 -2.20452,-0.59221 -0.22864,-0.53195 -0.64962,-0.82062 -1.19631,-0.82062 z m -74.236288,0.25218 c -0.56666,-0.0205 -1.11496,0.0851 -1.52084,0.3023 -0.68578,0.36702 -1.10661,0.3793 -1.95957,0.0574 -0.69816,-0.26353 -1.30431,-0.29268 -1.69757,-0.0822 -0.33648,0.18007 -0.71779,0.84874 -0.84698,1.48621 -0.19859,0.97994 -0.0909,1.27483 0.6966,1.9079 0.92871,0.74659 0.92959,0.75159 0.28267,1.76371 -0.35685,0.5583 -0.93712,1.2284 -1.28984,1.4888 -0.59081,0.43617 -0.63497,1.08934 -0.56069,8.29045 0.0444,4.29925 0.2347,8.1339 0.42323,8.52196 0.18853,0.38806 0.51773,0.82225 0.73122,0.9648 0.68792,0.45934 1.60469,0.2877 2.32802,-0.43563 0.38806,-0.38806 0.94257,-0.70538 1.23197,-0.70538 0.2894,0 0.72453,0.31732 0.96687,0.70538 0.26249,0.42031 0.82246,0.7059 1.38544,0.7059 1.30562,0 4.49734,-2.98132 5.52783,-5.16351 0.44561,-0.94364 0.97493,-2.01766 1.17667,-2.38642 0.20174,-0.36876 0.50967,-2.3148 0.6842,-4.3248 0.34094,-3.92644 0.10658,-5.7214 -1.11776,-8.55296 -0.52925,-1.22402 -1.1855,-1.94315 -2.67942,-2.93678 -1.08805,-0.72367 -2.52542,-1.41864 -3.19412,-1.54409 -0.18838,-0.0353 -0.37904,-0.0562 -0.56793,-0.063 z m 36.350758,0.11369 c -0.23599,0.002 -0.42746,0.14886 -0.74259,0.41289 -0.40998,0.34349 -0.80934,0.6639 -0.88781,0.7121 -0.33918,0.20834 -1.069499,5.06733 -1.101219,7.32824 -0.0399,2.84058 -0.84412,7.66598 -1.1467,6.87916 -0.35273,-0.91723 -1.29507,-6.76886 -1.53376,-9.525 -0.126019,-1.45521 -0.344399,-2.80475 -0.485239,-2.99878 -0.14084,-0.19403 -0.36144,-0.7942 -0.49041,-1.33377 -0.22891,-0.95772 -0.27804,-0.97543 -2.07688,-0.74982 -1.01344,0.12711 -1.97542,0.35168 -2.13733,0.49919 -0.16191,0.14751 -0.36601,1.72995 -0.45372,3.51658 -0.13583,2.76673 -7.9e-4,3.90171 0.91157,7.65277 0.58918,2.42224 1.07126,5.08658 1.07126,5.92108 0,0.91832 0.20889,1.69067 0.52916,1.95647 0.29104,0.24155 0.52917,0.72437 0.52917,1.0728 0,1.0754 0.40081,1.74925 1.03973,1.74925 0.33615,0 0.7945,-0.40229 1.01854,-0.894 l 0.40721,-0.894 1.035079,0.76532 c 0.60113,0.44444 1.27789,0.67193 1.61489,0.54261 0.3191,-0.12245 0.866369,-0.0698 1.215939,0.1173 0.46861,0.2508 0.77814,0.18119 1.17771,-0.26562 0.78922,-0.88252 1.58789,-4.00767 2.00401,-7.83828 0.20023,-1.84327 0.52919,-4.54184 0.7307,-5.99705 0.20151,-1.4552 0.45114,-3.60254 0.55449,-4.7718 l 0.18759,-2.12597 -1.48415,-0.97151 c -0.80681,-0.52824 -1.18383,-0.76323 -1.48724,-0.76016 z m 21.23952,0.86816 c -0.93519,0 -1.81261,0.18944 -1.95647,0.4222 -0.35159,0.56889 -0.8199,18.39463 -0.53537,20.37653 0.18431,1.28374 0.38721,1.61694 1.10743,1.81694 1.51118,0.41966 3.77452,0.33874 4.17959,-0.14934 0.22118,-0.2665 0.42761,-2.37174 0.48421,-4.93872 0.0543,-2.46084 0.13659,-4.47459 0.18293,-4.47466 0.0463,-8e-5 0.69874,1.23049 1.45004,2.7342 0.7513,1.50372 1.56081,3.55772 1.79834,4.56458 0.36594,1.55119 0.57492,1.85909 1.3715,2.01745 1.53721,0.3056 4.83427,0.35109 5.28443,0.0729 0.27872,-0.17226 0.41858,-1.47247 0.41858,-3.89847 0,-2.89718 -0.1147,-3.73563 -0.56121,-4.10621 -0.51127,-0.42431 -0.50803,-0.50395 0.0367,-0.90227 0.5293,-0.38704 0.58345,-1.10515 0.47284,-6.26835 -0.0986,-4.60307 -0.23647,-5.93694 -0.65422,-6.33553 -0.29905,-0.28534 -1.49245,-0.56946 -2.74454,-0.65319 -1.56733,-0.10481 -2.32978,-0.0104 -2.60604,0.32246 -0.23435,0.28237 -0.36271,1.73803 -0.32091,3.63957 0.0383,1.74279 0.005,3.16828 -0.0734,3.16828 -0.0787,0 -0.95967,-1.33661 -1.95802,-2.97036 -0.99835,-1.63374 -2.23512,-3.30062 -2.74815,-3.70416 -0.65083,-0.51194 -1.44525,-0.73381 -2.62827,-0.73381 z m -37.541888,0.185 c -0.27552,-0.006 -0.52066,0.15686 -0.89038,0.52659 -0.40025,0.40024 -0.85743,1.07859 -1.01648,1.5074 -0.15904,0.42882 -0.14047,2.03325 0.0413,3.56515 0.22162,1.86733 0.2052,3.50444 -0.0496,4.96766 -0.20904,1.20039 -0.38034,2.92349 -0.38034,3.82922 0,1.56969 -0.0461,1.64693 -0.99063,1.64693 -0.545,0 -1.29924,-0.22542 -1.67587,-0.50126 -0.59206,-0.43361 -0.68577,-0.9473 -0.69195,-3.79253 -0.007,-3.09747 -0.38292,-8.37402 -0.71572,-10.03712 -0.10085,-0.504 -0.50877,-0.82047 -1.2485,-0.96841 -0.81161,-0.16232 -1.37862,-0.0209 -2.16783,0.54105 l -1.06866,0.76119 0.19327,8.14524 c 0.10678,4.50428 0.37431,8.74664 0.59841,9.49089 0.66318,2.20249 1.23924,2.54313 4.45812,2.63654 1.85342,0.0538 3.38084,-0.10645 4.38268,-0.45992 0.84574,-0.29841 1.83961,-0.81582 2.20865,-1.14981 0.36905,-0.33397 0.91225,-1.07404 1.20716,-1.64434 0.29492,-0.57029 0.61968,-2.37749 0.72193,-4.01629 0.17673,-2.83287 0.14429,-3.01232 -0.66043,-3.64267 -0.82805,-0.64863 -0.8314,-0.67418 -0.16433,-1.18546 0.4771,-0.36568 0.76199,-1.18579 0.94878,-2.73006 0.29675,-2.45337 0.039,-6.21211 -0.47026,-6.86005 -0.18157,-0.231 -0.54446,-0.33813 -0.80615,-0.23771 -0.26169,0.10042 -0.80167,0.008 -1.20044,-0.20516 -0.22102,-0.11828 -0.39745,-0.18323 -0.56276,-0.18707 z m 29.903078,0.20464 c -0.8026,0.0212 -0.99269,0.24331 -1.4242,1.00149 -0.41648,0.73182 -0.88444,1.07542 -1.46606,1.07694 -0.46979,0.001 -1.13772,-0.25497 -1.48467,-0.56896 -0.34695,-0.31399 -1.3184,-0.64841 -2.15852,-0.74311 -1.07076,-0.12069 -1.65399,-0.0195 -1.95027,0.33745 -0.65326,0.78713 -1.18853,5.54745 -1.09347,9.72499 0.0473,2.07653 0.017,4.08112 -0.0672,4.45502 -0.10588,0.47046 0.20369,0.92359 1.0051,1.47175 1.06903,0.73122 1.1027,0.8099 0.43719,1.02112 -0.39651,0.12585 -0.96656,0.70449 -1.26711,1.28571 -0.30056,0.58121 -0.49733,1.48281 -0.43718,2.0035 0.0933,0.80734 0.31695,0.97823 1.52032,1.16117 2.41724,0.36748 6.60267,0.29998 8.99583,-0.1447 l 2.2934,-0.42581 0.10439,-2.38228 c 0.10176,-2.32257 0.0795,-2.3917 -0.88212,-2.75849 -0.98482,-0.37563 -2.20139,-0.30607 -3.36775,0.19275 -0.54676,0.23382 -0.61702,0.0336 -0.61702,-1.75235 l 0,-2.01693 1.14619,0.17829 c 0.63059,0.098 1.48011,0.28678 1.88774,0.41909 1.08547,0.35231 1.90479,-0.64456 1.90479,-2.31769 0,-1.19471 -0.13891,-1.44904 -0.96997,-1.7725 -0.53358,-0.20767 -1.96406,-0.30101 -3.17861,-0.20774 -2.10746,0.16183 -2.2181,0.13002 -2.42363,-0.68884 -0.11844,-0.47191 -0.10772,-0.96512 0.0238,-1.09658 0.13146,-0.13147 0.82505,-0.26771 1.54151,-0.30231 0.71646,-0.0346 2.09634,-0.28555 3.06648,-0.5581 l 1.76423,-0.49558 0.32505,-2.03036 c 0.20092,-1.25517 0.19807,-2.39237 -0.007,-2.97863 -0.29551,-0.84445 -0.53447,-0.95958 -2.18281,-1.05472 -0.43528,-0.0251 -0.77064,-0.0406 -1.03818,-0.0336 z m 57.66883,2.08773 c 0.10195,-0.0146 0.32542,0.16636 0.53589,0.44338 0.24053,0.31658 1.19142,0.89472 2.11305,1.28468 1.58939,0.6725 1.67535,0.77945 1.67535,2.07791 0,0.86661 -0.22621,1.56347 -0.61702,1.89911 -1.0529,0.90429 -1.752,0.98024 -2.40296,0.26096 -0.33933,-0.37497 -0.91958,-0.68161 -1.28932,-0.68161 -0.62172,0 -0.65377,-0.19202 -0.4284,-2.55747 0.13403,-1.4067 0.30401,-2.62551 0.37776,-2.70836 0.009,-0.0104 0.0211,-0.0165 0.0357,-0.0186 z m -123.833778,0.37724 c 0.17997,0.004 0.41382,0.0416 0.7245,0.092 0.69009,0.11198 1.40264,0.35155 1.58337,0.53227 0.18073,0.18073 0.35339,1.13299 0.38344,2.11615 0.0362,1.18597 -0.12534,1.96711 -0.47956,2.32182 -0.29364,0.29404 -1.03504,0.635 -1.64796,0.75758 -1.09588,0.21917 -1.11883,0.1966 -1.35444,-1.3746 -0.13178,-0.87876 -0.12715,-2.2636 0.0104,-3.07733 0.18568,-1.09904 0.2404,-1.38084 0.78031,-1.36787 z m 15.94942,2.08514 c 0.37397,0 0.98999,0.39422 1.3689,0.87592 0.49561,0.63007 0.75869,1.71259 0.93742,3.85816 0.24149,2.89908 0.21535,3.04909 -0.92811,5.37435 -0.64699,1.31567 -1.37494,2.45035 -1.61747,2.52129 -0.34128,0.0998 -0.44081,-1.31314 -0.44081,-6.25026 0,-6.06414 0.0337,-6.37946 0.68007,-6.37946 z m -31.55312,3.35122 c 0.5539,0 1.26601,1.79426 1.65209,4.16357 0.24701,1.51581 0.24121,2.48388 -0.0191,3.15639 -0.31117,0.80381 -0.58875,0.97049 -1.61902,0.97049 l -1.24385,0 0,-2.2934 c 0,-1.26118 0.15045,-2.29289 0.33434,-2.29289 0.18389,0 0.38267,-0.83343 0.44132,-1.85208 0.0587,-1.01864 0.26282,-1.85208 0.45424,-1.85208 z m 80.295868,15.38132 c -0.20453,0.003 -0.40746,0.0124 -0.59686,0.0279 l -1.37718,0.11264 -0.10593,2.02882 -0.10594,2.0283 2.1177,0 c 2.11728,0 2.11768,-2.6e-4 2.45618,-1.22628 0.18621,-0.67439 0.25416,-1.5492 0.15089,-1.94407 -0.10325,-0.39488 -0.54119,-0.80679 -0.97306,-0.91519 -0.3239,-0.0813 -0.95221,-0.12255 -1.5658,-0.11213 z m -3.77548,0.0181 c -0.75113,-0.005 -2.06489,0.32402 -2.78019,0.79271 -0.68733,0.45035 -0.86485,1.03514 -1.23713,4.07417 -0.23908,1.95171 -0.33452,4.22286 -0.21188,5.04673 0.12264,0.82386 0.20031,5.06997 0.1726,9.43559 -0.0645,10.15569 -0.0439,12.74308 0.12093,15.34739 0.11231,1.77417 0.44597,2.67557 2.05362,5.5485 1.05573,1.88663 2.00905,3.4338 2.11873,3.43803 0.10969,0.004 0.25219,-2.8104 0.31678,-6.2544 0.22253,-11.86436 0.18883,-20.03308 -0.10336,-24.87083 -0.26031,-4.3099 -0.2308,-4.85035 0.26459,-4.85035 0.30666,0 0.55759,0.1476 0.55759,0.32814 0,0.18053 0.35719,0.3788 0.79375,0.4408 0.74138,0.10529 0.79375,0.28514 0.79375,2.72025 0,2.07316 0.12319,2.68447 0.60151,2.98638 0.47564,0.30023 0.79596,0.19765 1.53221,-0.49041 0.86843,-0.81158 0.91543,-1.01021 0.69763,-2.95434 -0.2215,-1.97713 -0.18376,-2.12409 0.73174,-2.85409 1.48761,-1.18618 0.96112,-1.79551 -1.79524,-2.07791 -1.78808,-0.18319 -2.61048,-0.11131 -3.43649,0.30076 -0.59725,0.29795 -1.10112,0.54095 -1.11982,0.54002 -0.0187,-10e-4 -0.0669,-1.26559 -0.10698,-2.81069 -0.04,-1.54508 0.0795,-2.90323 0.26511,-3.0179 0.18554,-0.11468 0.33693,-0.37855 0.33693,-0.58653 0,-0.15857 -0.22496,-0.22975 -0.56638,-0.23202 z m -35.945598,0.0801 c -0.17278,-0.023 -0.17674,0.3205 -0.17674,1.22265 0,1.2306 0.11304,1.46554 0.70539,1.46554 0.50497,0 0.7059,-0.23526 0.7059,-0.82734 0,-0.455 -0.31785,-1.11435 -0.7059,-1.46554 -0.26055,-0.23579 -0.42499,-0.38156 -0.52865,-0.39533 z m 75.108588,1.34048 c -0.0843,-0.0127 -0.14366,0.0954 -0.14366,0.28938 0,0.25871 0.10577,0.36448 0.23512,0.23513 0.12935,-0.12935 0.12935,-0.34091 0,-0.47026 -0.0323,-0.0323 -0.0634,-0.05 -0.0915,-0.0543 z m -2.04484,2.82412 c -0.0489,-0.006 -0.10072,-0.003 -0.15555,0.007 -0.7503,0.1445 -1.10881,2.10573 -1.05885,5.79086 0.0214,1.57547 -0.0865,3.06787 -0.24029,3.31659 -0.16693,0.2701 -0.0651,0.60925 0.25373,0.84233 0.67761,0.49548 5.72924,0.19215 6.29936,-0.37827 0.22551,-0.22564 0.30347,-0.58281 0.17311,-0.79375 -0.13037,-0.21096 -1.10074,-0.38347 -2.15645,-0.38347 l -1.91927,0 0,-2.45205 c 0,-1.34864 -0.17414,-3.26259 -0.38654,-4.25297 -0.25613,-1.19428 -0.46675,-1.6562 -0.80925,-1.69653 z m 9.01495,0.34726 c -0.054,-7.9e-4 -0.10591,0.002 -0.15503,0.01 -1.18221,0.17702 -2.05975,1.75082 -2.27014,4.07107 -0.22847,2.51958 0.15351,6.09007 0.65164,6.09007 0.19282,0 0.65772,-0.16449 1.03301,-0.36535 0.43909,-0.23499 0.68213,-0.73775 0.68213,-1.41077 0,-0.57526 0.15892,-1.04593 0.35295,-1.04593 0.19402,0 0.35295,0.36643 0.35295,0.81442 0,0.44798 0.22742,1.1225 0.5054,1.49913 0.38386,0.52009 0.605,0.58667 0.91984,0.27647 0.22799,-0.22463 0.49643,-1.42656 0.59634,-2.67116 0.12305,-1.533 -0.004,-2.90189 -0.39481,-4.24418 -0.3168,-1.08974 -0.83188,-2.238 -1.14514,-2.55127 -0.27411,-0.2741 -0.75104,-0.4676 -1.12914,-0.47232 z m -36.74349,0.0331 c -0.1615,-0.002 -0.3213,0.0844 -0.53278,0.25993 -0.29104,0.24154 -0.52917,0.70545 -0.52917,1.03095 0,0.32549 -0.19118,0.78286 -0.42478,1.01647 -0.24727,0.24726 -0.48569,1.82497 -0.57102,3.776 -0.10241,2.34153 -0.0147,3.51052 0.29145,3.87935 0.24096,0.29034 0.61847,0.52813 0.83923,0.52813 0.22075,0 0.84141,-0.40822 1.37924,-0.90692 0.82903,-0.76872 0.94329,-1.0909 0.75086,-2.11667 -0.21344,-1.13771 -0.16961,-1.20974 0.73484,-1.20974 0.95971,0 0.96149,0.004 0.72037,1.93373 -0.1329,1.06377 -0.13646,2.10505 -0.007,2.31355 0.12887,0.2085 0.57,0.33039 0.9803,0.27079 0.44451,-0.0646 0.8448,-0.46512 0.99012,-0.99064 l -5.3e-4,0 c 0.13413,-0.48507 0.25971,-2.20102 0.27905,-3.8132 0.0223,-1.8561 0.16471,-2.85108 0.38809,-2.71302 0.19402,0.11992 0.35295,1.56838 0.35295,3.21893 0,1.65054 0.16399,3.30819 0.36484,3.68349 0.29125,0.5442 0.74779,0.68213 2.25412,0.68213 1.32488,0 2.13427,-0.19853 2.71043,-0.66507 0.67339,-0.54529 0.74255,-0.7598 0.38499,-1.19063 -0.31458,-0.37904 -0.87669,-0.47578 -2.01693,-0.34726 -1.27229,0.14341 -1.58078,0.0711 -1.58078,-0.37104 0,-0.30221 0.49962,-0.94092 1.11053,-1.41903 0.70637,-0.55282 1.03509,-1.06579 0.9033,-1.40922 -0.11397,-0.29702 -0.57209,-0.59221 -1.01854,-0.65577 -0.44644,-0.0636 -0.86185,-0.37797 -0.92294,-0.69867 -0.0828,-0.43484 0.2476,-0.64348 1.29914,-0.82114 0.77554,-0.13103 1.59572,-0.46195 1.82263,-0.73536 0.80708,-0.97246 0.11804,-1.4566 -2.36988,-1.66501 -2.13122,-0.17852 -2.47608,-0.11991 -2.96158,0.50333 -0.5413,0.69486 -0.55563,0.69125 -0.97513,-0.22944 -0.23418,-0.51397 -0.61509,-0.8714 -0.84646,-0.79427 -0.23138,0.0771 -0.67853,0.6059 -0.99374,1.1746 -0.32427,0.58508 -0.86708,1.03405 -1.25005,1.03405 -0.52009,0 -0.65185,-0.21161 -0.57051,-0.9126 0.0589,-0.50745 -0.13715,-1.11337 -0.44132,-1.36581 -0.21853,-0.18137 -0.38162,-0.27272 -0.54312,-0.27492 z m -45.168808,0.007 c -0.51477,-0.0331 -1.01068,0.58086 -1.17874,1.59732 -0.11836,0.71585 -0.21646,2.65862 -0.2186,4.31756 -0.002,1.88051 0.15517,3.17565 0.4191,3.43958 0.23283,0.23283 0.5396,0.42323 0.68161,0.42323 0.14201,0 0.5526,-0.43638 0.91209,-0.96996 0.56628,-0.8405 0.62799,-1.45105 0.46457,-4.56975 -0.10374,-1.97983 -0.36042,-3.7713 -0.5705,-3.98064 -0.16446,-0.16387 -0.33795,-0.24632 -0.50953,-0.25734 z m 25.717288,0.25269 c -0.36726,-0.009 -0.676629,0.094 -0.836639,0.35295 -0.11992,0.19403 -0.60288,0.35295 -1.0728,0.35295 -0.6266,0 -0.91587,0.24512 -1.08521,0.91984 -0.12701,0.50602 -0.12018,2.52538 0.015,4.48758 0.22751,3.30328 0.56133,4.47002 1.27899,4.47002 0.15641,0 0.49395,-0.20705 0.75034,-0.46044 0.2564,-0.2534 0.765969,-0.57431 1.132229,-0.71313 0.57507,-0.21797 0.63938,-0.51084 0.47077,-2.14458 -0.11945,-1.15738 -0.0456,-2.04115 0.19017,-2.27686 0.27854,-0.27854 0.21614,-0.57168 -0.22427,-1.05833 -0.58451,-0.64587 -0.56518,-0.68858 0.4718,-1.05007 0.59444,-0.20723 1.18267,-0.64283 1.30742,-0.9679 0.32646,-0.85075 -1.296,-1.88503 -2.39779,-1.91203 z m 69.44537,0.004 c -1.12715,-0.003 -1.39011,0.1452 -1.71152,0.96635 -0.22886,0.58466 -0.29647,2.09987 -0.17054,3.8132 0.14174,1.92853 0.0785,2.97296 -0.19637,3.24787 -0.30516,0.30516 -0.29351,0.53958 0.0465,0.9493 0.31004,0.37358 1.07993,0.54415 2.45722,0.54415 1.12601,0 2.29155,-0.20843 2.65668,-0.47543 0.39815,-0.29112 0.54305,-0.64931 0.37362,-0.92345 -0.19134,-0.3096 -0.75949,-0.38178 -1.84071,-0.23358 -1.53932,0.21099 -1.56215,0.19899 -1.45263,-0.74931 0.0733,-0.63445 0.35191,-1.00738 0.81649,-1.09244 0.38805,-0.071 0.90805,-0.29357 1.15548,-0.49454 0.35854,-0.2912 0.32579,-0.50303 -0.16226,-1.04232 -0.33795,-0.37342 -0.89551,-0.60268 -1.24385,-0.51159 -0.38549,0.10081 -0.63097,-0.0283 -0.63097,-0.33125 0,-0.33183 0.40873,-0.49609 1.23455,-0.49609 0.76435,0 1.50368,-0.26862 1.94045,-0.70539 0.38806,-0.38805 0.70538,-1.0021 0.70538,-1.36477 0,-0.48791 -0.34403,-0.7167 -1.32291,-0.8785 -0.7276,-0.12026 -1.92222,-0.22008 -2.65462,-0.22221 z m -99.939628,0.0522 c -0.40993,-0.004 -0.84975,0.053 -1.16324,0.16329 -0.60569,0.21301 -1.23752,0.97067 -1.88102,2.25568 -0.68837,1.3746 -0.99591,2.57728 -1.06247,4.15478 -0.0688,1.63005 0.0415,2.30426 0.41445,2.53473 0.27937,0.17266 0.65069,0.22573 0.82527,0.11783 0.17458,-0.1079 0.54252,-0.73504 0.81752,-1.3932 0.4413,-1.05618 0.61274,-1.1695 1.46296,-0.96635 0.52982,0.1266 1.08231,0.29715 1.22783,0.37879 0.14552,0.0816 0.26459,0.45642 0.26459,0.83302 0,0.4952 0.24429,0.68471 0.88211,0.68471 0.48507,0 0.90145,-0.19826 0.92553,-0.4408 0.14595,-1.47035 -0.1576,-4.58432 -0.60152,-6.16913 -0.41978,-1.49867 -0.69153,-1.89155 -1.44022,-2.07946 -0.19036,-0.0478 -0.42584,-0.0716 -0.67179,-0.0739 z m 71.722228,0.10748 c -0.31624,0.01 -0.63221,0.0976 -1.01286,0.26614 l -1.01182,0.44803 0,3.81785 c 0,2.09971 0.1645,4.12469 0.36535,4.49999 0.28466,0.53188 0.74556,0.68213 2.09083,0.68213 1.46083,0 1.84292,-0.14809 2.48615,-0.96583 l 0,-5.3e-4 c 0.57964,-0.73689 0.71137,-1.25964 0.55604,-2.20452 -0.112,-0.68132 -0.19726,-2.04163 -0.18965,-3.02255 0.01,-1.28056 -0.16485,-1.9449 -0.6196,-2.35645 -0.34835,-0.31525 -1.0907,-0.74717 -1.64951,-0.95963 -0.38225,-0.14533 -0.6987,-0.21425 -1.01493,-0.20464 z m -65.171728,0.18912 0,4.16253 c 0,2.76734 0.14181,4.30486 0.42323,4.58629 0.23283,0.23283 1.26982,0.42323 2.30425,0.42323 1.36975,0 1.93766,-0.14769 2.0898,-0.54415 0.12606,-0.32852 -0.19339,-0.95413 -0.80512,-1.57769 -0.55755,-0.56832 -1.21216,-1.03795 -1.45469,-1.04335 -0.31742,-0.007 -0.4408,-0.8496 -0.4408,-3.00808 l 0,-2.99878 -1.05834,0 z m 86.296538,0 c -0.65478,0 -1.37581,0.22308 -1.60197,0.49557 -0.28418,0.34242 -0.34527,1.51347 -0.19792,3.79202 0.11726,1.8133 0.28582,3.65415 0.37465,4.09071 0.10312,0.5068 0.41836,0.79375 0.87178,0.79375 0.3906,0 1.2944,-0.24416 2.00867,-0.54261 0.71428,-0.29844 1.60046,-0.81403 1.96939,-1.14618 0.3689,-0.33214 0.79957,-0.94077 0.95704,-1.35237 0.15952,-0.41698 0.12295,-1.39203 -0.0827,-2.20193 -0.24144,-0.95123 -0.84238,-1.88134 -1.73891,-2.69131 -0.9961,-0.89992 -1.69443,-1.23765 -2.56005,-1.23765 z m -102.695028,0.0537 c -0.51867,-0.007 -0.91545,0.017 -1.06505,0.0744 -0.81726,0.3136 -1.0772,1.32557 -0.45682,1.77921 0.43099,0.31515 0.50448,0.93637 0.36536,3.10421 -0.0957,1.49084 -0.0796,2.95756 0.0362,3.25923 0.11576,0.30166 0.42173,0.5488 0.68006,0.5488 0.25832,0 0.66013,-0.19091 0.89297,-0.42374 0.23283,-0.23283 0.42374,-0.86749 0.42374,-1.41077 0,-0.54328 0.14712,-0.98805 0.32711,-0.98805 0.17999,0 0.6074,0.63517 0.94982,1.41128 0.3826,0.86718 0.85936,1.41128 1.23662,1.41128 0.33764,0 0.7127,-0.31173 0.83354,-0.69246 0.12084,-0.38072 0.0518,-1.0054 -0.15296,-1.38803 -0.20478,-0.38262 -0.37207,-0.82727 -0.37207,-0.98805 0,-0.16077 0.35719,-0.44874 0.79375,-0.64027 0.6103,-0.26776 0.81856,-0.69039 0.90123,-1.82832 0.15267,-2.10117 -0.65434,-2.7999 -3.5972,-3.11505 -0.63736,-0.0683 -1.27759,-0.10653 -1.79627,-0.11369 z m -5.12113,0.29921 c -1.2962,0 -1.84384,0.15168 -1.99781,0.55294 -0.11669,0.30408 -0.0327,0.7326 0.18707,0.95239 0.2286,0.22861 0.39997,1.56468 0.39997,3.12229 0,1.49755 0.0962,2.97403 0.21394,3.28094 0.11777,0.30692 0.40363,0.5581 0.63511,0.5581 0.23147,0 0.61104,-0.19091 0.84387,-0.42374 0.25575,-0.25575 0.42375,-1.49525 0.42375,-3.1316 0,-2.39 0.0903,-2.76883 0.7674,-3.2184 0.50327,-0.33417 0.68897,-0.71306 0.54001,-1.10123 -0.17119,-0.44612 -0.66708,-0.59169 -2.01331,-0.59169 z m 36.8639,0.0155 c -0.65999,-0.008 -1.23081,0.12339 -1.51515,0.40773 -0.2511,0.2511 -0.42374,1.4596 -0.42374,2.97088 l 0,2.54816 1.67586,1.43609 c 1.09203,0.936 2.01996,1.43719 2.66392,1.43867 0.79505,0.002 1.08785,-0.23678 1.49914,-1.22111 0.58786,-1.40697 0.66897,-3.96062 0.16743,-5.27979 -0.1892,-0.49761 -0.86423,-1.22179 -1.49965,-1.6092 -0.72374,-0.44126 -1.71925,-0.68135 -2.56781,-0.69143 z m 64.512338,1.20768 c 0.0812,-0.0167 0.15505,0.11962 0.25787,0.3824 0.48994,1.25214 0.35546,1.92185 -0.38654,1.92185 -0.38806,0 -0.7059,-0.0555 -0.7059,-0.12351 0,-0.0681 0.1854,-0.65521 0.41186,-1.30483 0.20234,-0.58043 0.31834,-0.85445 0.42271,-0.87591 z m -86.678938,0.18757 c 0.75845,0 0.54407,1.32096 -0.31161,1.9203 -0.82961,0.58109 -1.47815,0.72743 -1.26246,0.28473 0.86463,-1.77457 1.17185,-2.20503 1.57407,-2.20503 z m 93.367418,0 c 0.29396,0 0.46433,0.42568 0.45889,1.1467 -0.005,0.63059 0.10936,1.54323 0.25373,2.0283 0.16938,0.56908 0.0885,1.11965 -0.22789,1.55184 -0.4608,0.62948 -0.50382,0.60011 -0.72089,-0.48524 -0.12703,-0.63517 -0.23099,-1.84915 -0.23099,-2.69802 0,-1.04614 0.15031,-1.54358 0.46715,-1.54358 z m -20.42614,0.15813 c 0.20922,-0.0222 0.32462,0.10027 0.43408,0.38551 0.12951,0.33748 -0.0626,0.85587 -0.46612,1.25935 -0.37729,0.37729 -0.79595,0.57606 -0.93069,0.44132 -0.48533,-0.48534 -0.23074,-1.52128 0.4656,-1.89394 0.21202,-0.11347 0.37159,-0.17894 0.49713,-0.19224 z m -50.109598,0.72347 c 0.18636,-0.0151 0.46167,0.11802 0.6997,0.35605 0.33836,0.33836 0.57722,1.15001 0.57722,1.96267 0,0.76225 -0.13421,1.38596 -0.29817,1.38596 -0.16396,0 -0.59959,-0.33301 -0.9679,-0.74 -0.40018,-0.44219 -0.62287,-1.11669 -0.55345,-1.67587 0.0639,-0.51465 0.23966,-1.06467 0.39067,-1.22266 0.0377,-0.0395 0.0898,-0.0611 0.15193,-0.0661 z m -30.78417,0.17673 c 0.19403,0 0.25427,0.15892 0.13436,0.35295 -0.11992,0.19403 -0.37648,0.35295 -0.57051,0.35295 -0.19403,0 -0.25479,-0.15892 -0.13488,-0.35295 0.11992,-0.19403 0.377,-0.35295 0.57103,-0.35295 z m 23.73292,3.52795 c -1.31457,0 -1.54978,0.1069 -1.54978,0.70539 0,0.61148 0.23502,0.7059 1.76372,0.7059 0.97014,0 1.76423,-0.0667 1.76423,-0.1478 0,-0.0812 -0.0967,-0.39847 -0.21445,-0.70538 -0.1503,-0.39166 -0.67598,-0.55811 -1.76372,-0.55811 z m 49.955598,0 c -0.97014,0 -1.76371,0.0667 -1.76371,0.1478 0,0.0811 0.0962,0.39847 0.21394,0.70538 0.15029,0.39167 0.67649,0.55811 1.76423,0.55811 1.31457,0 1.54978,-0.10742 1.54978,-0.7059 0,-0.61148 -0.23554,-0.70539 -1.76424,-0.70539 z m 7.07657,0 c 0.3995,0 0.62842,0.15892 0.5085,0.35295 -0.11991,0.19403 -0.44698,0.35244 -0.72657,0.35244 -0.27959,0 -0.5085,-0.15841 -0.5085,-0.35244 0,-0.19403 0.32706,-0.35295 0.72657,-0.35295 z m -26.55186,2.82205 c -0.22042,0 -0.66915,0.24296 -0.99684,0.53951 -0.44896,0.40631 -0.81632,0.45542 -1.49087,0.19895 l -0.89503,-0.34055 0.0517,8.35608 c 0.0286,4.59581 -0.0806,10.8564 -0.24288,13.91233 -0.20244,3.81175 -0.17965,5.55625 0.0729,5.55625 0.20246,0 1.32473,-1.86566 2.4939,-4.14548 l 2.12597,-4.14497 0.006,-9.28367 c 0.004,-5.73686 -0.13348,-9.54414 -0.35915,-9.9658 -0.20087,-0.3753 -0.54541,-0.68265 -0.76585,-0.68265 z"
       id="path4210-8"
       sodipodi:nodetypes="cssssssscssscccssscssscsscscscsssccscssccccscsscsscccssssssssssssssscsccsscccccsccccsscssccscssscscsscccccccscsccssssccssscsssccccccssssssccccssccccccssscccsscscccccccssccssscccsssccsscssccccscscccsssccsssccccccccccccccscscsscssccccccssccccscssscscssscscscccccscssccccscsccccscccssscccsssccssscccsccccccscsssssssscccsscccssssccccccssccscscsssccccsscccsscccscsscssscsscssccssssscscsccccscccsssccsccsscsccscsssssccccsssscsssscsssssscccccccssssssssscsscccscssscccccccssccssscscsssssssssccccccsssscsscccsscccsssscscccccssscccscccsccsscscccscsccsccccccccscsccsscccccscssscccsssscsscscscssccccccccsccsccscssscscsssssscssssscccsscsssccccscsccccccccsscsscccccscssssssccccccscscsssscccccccscscsssscccsssssccscccccscsssscccccccsssscscccccccccsccscccccssssscccccccssccsscscccccsscsccscsscccscscscsccccccssccccscccccccscssssscssscccscsscsssccscsscccccsccsssscsscsscscssscssscccscscccccscscssssscssscssssccsscccccsscccccccc" />
  </g>
</svg>
