<?xml version="1.0" encoding="UTF-8" standalone="no"?>
<!-- Created with Inkscape (http://www.inkscape.org/) -->

<svg
   xmlns:dc="http://purl.org/dc/elements/1.1/"
   xmlns:cc="http://creativecommons.org/ns#"
   xmlns:rdf="http://www.w3.org/1999/02/22-rdf-syntax-ns#"
   xmlns:svg="http://www.w3.org/2000/svg"
   xmlns="http://www.w3.org/2000/svg"
   xmlns:sodipodi="http://sodipodi.sourceforge.net/DTD/sodipodi-0.dtd"
   xmlns:inkscape="http://www.inkscape.org/namespaces/inkscape"
   width="169.94704mm"
   height="33.804806mm"
   viewBox="0 0 169.94704 33.804806"
   id="svg2"
   version="1.1"
   inkscape:version="0.91+devel+osxmenu r12922"
   sodipodi:docname="Title.svg">
  <defs
     id="defs4" />
  <sodipodi:namedview
     id="base"
     pagecolor="#ffffff"
     bordercolor="#666666"
     borderopacity="1.0"
     inkscape:pageopacity="0.0"
     inkscape:pageshadow="2"
     inkscape:zoom="1"
     inkscape:cx="180.95992"
     inkscape:cy="298.9365"
     inkscape:document-units="mm"
     inkscape:current-layer="layer1"
     showgrid="false"
     fit-margin-top="0"
     fit-margin-left="0"
     fit-margin-right="0"
     fit-margin-bottom="0"
     inkscape:window-width="1504"
     inkscape:window-height="1080"
     inkscape:window-x="2820"
     inkscape:window-y="53"
     inkscape:window-maximized="0"
     showguides="true"
     inkscape:guide-bbox="true" />
  <metadata
     id="metadata7">
    <rdf:RDF>
      <cc:Work
         rdf:about="">
        <dc:format>image/svg+xml</dc:format>
        <dc:type
           rdf:resource="http://purl.org/dc/dcmitype/StillImage" />
        <dc:title></dc:title>
      </cc:Work>
    </rdf:RDF>
  </metadata>
  <g
     inkscape:label="Laag 1"
     inkscape:groupmode="layer"
     id="layer1"
     transform="translate(-27.630076,-116.62076)">
    <path
       inkscape:connector-curvature="0"
       style="fill:#000000;stroke-width:0.35277778"
       d="m 33.727482,116.622 c -1.07035,0.0217 -2.37533,0.32636 -2.62775,0.72451 -0.1631,0.25725 -0.30284,0.8642 -0.31058,1.34927 -0.008,0.48507 -0.33483,1.83462 -0.72657,2.99878 -0.39541,1.17511 -0.94063,4.39228 -1.22576,7.23212 -0.28248,2.8134 -0.69422,6.38528 -0.91519,7.9375 -0.22098,1.55222 -0.34293,3.13937 -0.27079,3.52743 0.0721,0.38805 0.10294,2.74724 0.0682,5.24257 l -0.063,4.5372 2.36213,-0.25012 c 1.29911,-0.13758 2.55752,-0.41074 2.79673,-0.60668 0.54851,-0.44929 1.14826,-2.57096 1.15084,-4.0721 0.001,-0.63059 0.1085,-1.1467 0.23874,-1.1467 0.13024,0 0.53054,0.26599 0.88987,0.59118 0.35933,0.32519 0.89911,1.43661 1.19941,2.46961 0.3003,1.033 0.65373,1.87285 0.78548,1.86604 0.13175,-0.007 1.27148,-0.30315 2.53266,-0.65836 2.03433,-0.57298 2.28696,-0.74057 2.23863,-1.48673 -0.03,-0.46259 -0.31009,-2.95407 -0.62219,-5.5361 -0.3121,-2.58201 -0.53645,-5.51872 -0.49868,-6.52621 0.0752,-2.00571 -0.44558,-5.29625 -1.49706,-9.45886 -0.37348,-1.47855 -0.68824,-3.38354 -0.69918,-4.23333 -0.0109,-0.84978 -0.21026,-2.10059 -0.44339,-2.77968 -0.35547,-1.03548 -0.59429,-1.23745 -1.47949,-1.24953 -0.58054,-0.008 -1.34103,-0.14661 -1.68982,-0.30851 -0.26862,-0.12469 -0.70669,-0.17318 -1.19321,-0.1633 z m 160.776228,0.009 c -0.53144,0.002 -1.22328,0.19208 -1.64073,0.46561 -0.64127,0.42017 -1.61097,0.55244 -3.71812,0.50746 -2.71634,-0.058 -2.89002,-0.0144 -3.6959,0.92346 -0.82863,0.96434 -1.12408,2.42405 -0.5612,2.77192 0.15629,0.0966 0.10848,1.41602 -0.10594,2.93161 -0.23877,1.68776 -0.34513,6.85663 -0.27492,13.33872 l 0.11472,10.58333 3.95945,0.78032 c 2.1779,0.42905 4.19809,0.9354 4.48913,1.12551 0.29104,0.19012 0.77003,0.35497 1.06454,0.36638 0.2945,0.0114 1.12794,-0.38177 1.85208,-0.87384 0.72414,-0.49207 1.31119,-1.16659 1.30431,-1.49914 -0.007,-0.33256 -0.23947,-1.00166 -0.51676,-1.48673 -0.27729,-0.48507 -0.50989,-1.65351 -0.51676,-2.59674 l -0.0124,-1.71514 -1.32292,0.24702 c -0.7276,0.13571 -1.60677,0.54992 -1.95389,0.92087 -0.67142,0.71754 -1.66191,0.90952 -1.66191,0.32194 0,-0.19403 -0.31359,-0.66654 -0.6966,-1.04954 -0.383,-0.38301 -0.91247,-1.63192 -1.17667,-2.77555 l -0.48059,-2.07945 2.51406,-0.19017 c 1.5722,-0.11891 3.0614,-0.47521 3.97495,-0.95137 0.80346,-0.41879 1.65404,-0.99387 1.88981,-1.27796 0.33757,-0.40675 0.32936,-0.72067 -0.0377,-1.47639 -0.25641,-0.52784 -0.42878,-1.10781 -0.38292,-1.28933 0.0459,-0.18152 -0.002,-0.67213 -0.10697,-1.08985 -0.11391,-0.45383 -0.77354,-1.0222 -1.63866,-1.41232 -1.08497,-0.48925 -1.59847,-0.55866 -2.04949,-0.27699 -0.33101,0.20672 -1.24705,0.48527 -2.03605,0.61857 l -1.43454,0.24236 -0.22014,-1.87482 c -0.20279,-1.72767 0.0158,-4.52014 0.35399,-4.52014 0.0794,0 0.7669,0.31734 1.52755,0.70539 0.76065,0.38806 1.61936,0.7059 1.90841,0.7059 0.28904,0 1.26463,-0.4989 2.16783,-1.10846 l 1.64228,-1.10846 -0.14108,-2.33113 c -0.0774,-1.28221 -0.37291,-2.80737 -0.65681,-3.38945 -0.35955,-0.7372 -0.81654,-1.09325 -1.50637,-1.17254 -0.0681,-0.008 -0.14112,-0.0111 -0.21704,-0.0108 z m -140.194548,2.0774 c -0.47752,-0.003 -0.92951,0.11922 -1.19062,0.38034 -0.21701,0.21701 -1.06401,0.32915 -1.89291,0.25011 -1.34223,-0.128 -1.55874,-0.0396 -2.05879,0.83974 -0.30739,0.54055 -0.65969,0.98372 -0.7829,0.98495 -0.1232,0.001 -0.48419,-0.39498 -0.80201,-0.88004 -0.45463,-0.69385 -0.87437,-0.88161 -1.96836,-0.88161 -1.00222,0 -1.49017,0.18587 -1.74718,0.66611 -0.24028,0.44897 -0.2403,4.85041 0,13.49375 0.19615,7.05509 0.42545,13.02591 0.50953,13.26844 0.0947,0.27317 0.82026,0.44081 1.90686,0.44081 1.02241,0 1.86802,-0.18379 2.02727,-0.44081 0.15027,-0.24253 0.22991,-1.90892 0.17673,-3.70313 -0.0732,-2.46971 0.0333,-3.44813 0.43925,-4.02766 l 0.5364,-0.76584 0.39481,1.02939 c 1.08173,2.81754 2.10168,6.34538 2.10168,7.26932 0,1.02942 0.009,1.03353 1.67587,0.82114 0.92163,-0.11744 2.20428,-0.29512 2.85047,-0.39532 l 1.17512,-0.18242 -0.23409,-3.94756 c -0.20788,-3.51099 -0.36676,-4.22321 -1.43919,-6.44302 -0.66317,-1.37267 -1.20562,-2.69258 -1.20562,-2.93316 0,-0.24059 0.49877,-0.85742 1.10847,-1.37045 0.60969,-0.51302 1.39977,-1.57386 1.75596,-2.358 0.80803,-1.77887 0.88542,-4.61672 0.13384,-4.90513 -0.29407,-0.11285 -0.52962,-0.63861 -0.53071,-1.1839 -0.003,-1.42027 -0.68682,-3.70533 -1.32292,-4.42092 -0.34697,-0.39034 -1.003,-0.60134 -1.61696,-0.60513 z m 121.358488,0.21756 c -2.81935,-0.0235 -6.29475,0.60895 -7.23418,1.31619 -0.31106,0.23417 -0.40112,0.75214 -0.26459,1.52136 0.11383,0.64137 0.30355,1.72066 0.42168,2.39882 0.11813,0.67815 0.12506,1.46687 0.0155,1.75235 -0.28466,0.74182 -0.51014,18.53771 -0.24805,19.5771 0.187,0.74154 0.53303,0.92282 2.40244,1.2609 1.20101,0.2172 2.38,0.27318 2.62051,0.12454 0.62885,-0.38866 0.82263,-5.03776 0.27853,-6.68641 -0.35883,-1.08726 -0.3589,-1.55885 5.3e-4,-2.42621 0.24529,-0.59219 0.57379,-1.07694 0.73019,-1.07694 0.60275,0 1.69746,1.85104 2.10892,3.56619 0.24323,1.01391 0.36042,2.99867 0.26975,4.5651 -0.14994,2.5901 -0.11227,2.781 0.57412,2.91662 0.40395,0.0798 1.62877,0.16685 2.7218,0.19326 1.78257,0.0431 2.00907,-0.0337 2.19987,-0.74569 0.117,-0.43656 0.21491,-2.09357 0.21755,-3.68194 0.004,-2.37036 -0.18502,-3.38048 -1.05368,-5.63635 -0.58208,-1.51164 -1.05833,-2.91436 -1.05833,-3.11712 0,-0.20275 0.51611,-0.9951 1.1467,-1.76114 l 1.14618,-1.39319 -0.0842,-4.7718 c -0.0704,-3.97412 -0.19173,-4.9162 -0.72554,-5.63118 -0.35256,-0.47221 -1.2402,-1.16924 -1.97249,-1.54926 -0.98763,-0.51253 -2.07544,-0.69742 -4.21318,-0.7152 z m -11.49232,1.32291 c -0.3407,0.019 -0.71067,0.13223 -1.22163,0.34572 -0.70426,0.29426 -1.28959,0.6621 -1.3007,0.81752 -0.0111,0.15542 -0.0897,3.42261 -0.17467,7.26002 -0.12617,5.69991 -0.26074,7.13926 -0.73535,7.8636 -0.4688,0.71549 -0.50336,1.05701 -0.17829,1.77044 0.22155,0.48625 0.40256,1.1941 0.40256,1.57303 0,0.71594 -0.58662,0.85328 -2.01331,0.47077 -1.35348,-0.36289 -1.63442,-2.10086 -1.35754,-8.39432 0.13732,-3.12106 0.39637,-5.82565 0.57567,-6.00997 0.1793,-0.18433 0.32608,-1.07783 0.32608,-1.98541 0,-1.05229 -0.19614,-1.81233 -0.54105,-2.09858 -0.29748,-0.24689 -1.28984,-0.51717 -2.20503,-0.60048 -1.07202,-0.0976 -1.89252,0.0199 -2.30632,0.33073 -0.44324,0.33295 -0.74032,1.24349 -0.9586,2.93832 -0.17396,1.35077 -0.32128,5.65611 -0.32763,9.56738 l -0.0114,7.11171 1.60508,1.97042 c 0.88291,1.08388 2.03419,2.21459 2.55798,2.51251 0.70839,0.40292 1.62317,0.49956 3.57187,0.37724 1.83686,-0.1153 2.8908,-0.36687 3.52692,-0.84181 0.49898,-0.37254 1.06791,-1.24928 1.26401,-1.9482 0.1961,-0.69893 0.55336,-1.46754 0.79426,-1.70843 0.61827,-0.61828 0.54375,-2.06534 -0.14573,-2.82721 -0.53221,-0.58808 -0.53453,-0.69969 -0.0274,-1.26246 0.44448,-0.49326 0.62483,-2.13818 0.89865,-8.18296 0.1885,-4.16109 0.26908,-7.75804 0.1788,-7.99331 -0.0903,-0.23527 -0.60837,-0.61173 -1.15135,-0.83665 -0.39395,-0.16317 -0.70523,-0.23856 -1.04593,-0.21962 z m -23.98304,0.38758 c -0.46392,0 -0.96082,0.23812 -1.1038,0.52916 -0.68922,1.40282 -1.05162,3.25848 -1.05162,5.38417 0,1.39426 0.16543,2.43765 0.41031,2.58899 0.2256,0.13943 0.90063,0.35318 1.49965,0.47491 1.05878,0.21517 1.091,0.2799 1.16686,2.32492 0.17398,4.69046 0.90372,12.00845 1.23868,12.42198 0.19645,0.24253 0.85355,0.45248 1.46038,0.46612 0.60682,0.0136 1.42113,0.16087 1.80919,0.32763 1.16125,0.499 1.89407,0.39269 2.28151,-0.33125 0.25481,-0.47612 0.25204,-0.75467 -0.008,-0.9157 -0.22009,-0.13602 -0.27789,-0.67101 -0.14005,-1.29863 0.12897,-0.58719 0.1195,-3.2909 -0.0212,-6.0079 -0.22224,-4.29231 -0.33706,-4.96134 -0.87695,-5.10253 -0.53341,-0.13949 -0.57024,-0.33002 -0.25838,-1.34618 0.36333,-1.18382 1.0226,-1.61665 3.18275,-2.08927 0.98455,-0.21541 0.98494,-0.21573 0.88212,-2.90164 -0.0769,-2.00772 -0.24626,-2.77717 -0.67128,-3.04425 -0.43814,-0.27531 -0.9019,-0.0895 -2.019,0.80822 -1.21016,0.97251 -1.5393,1.09102 -1.98902,0.71778 -0.29639,-0.24597 -0.539,-0.75655 -0.539,-1.13481 0,-0.62353 -0.17294,-0.66631 -1.85208,-0.45889 -1.70844,0.21105 -1.8791,0.1649 -2.20452,-0.59221 -0.22864,-0.53195 -0.64962,-0.82062 -1.19631,-0.82062 z m -74.236288,0.25218 c -0.56666,-0.0205 -1.11496,0.0851 -1.52084,0.3023 -0.68578,0.36702 -1.10661,0.3793 -1.95957,0.0574 -0.69816,-0.26353 -1.30431,-0.29268 -1.69757,-0.0822 -0.33648,0.18007 -0.71779,0.84874 -0.84698,1.48621 -0.19859,0.97994 -0.0909,1.27483 0.6966,1.9079 0.92871,0.74659 0.92959,0.75159 0.28267,1.76371 -0.35685,0.5583 -0.93712,1.2284 -1.28984,1.4888 -0.59081,0.43617 -0.63497,1.08934 -0.56069,8.29045 0.0444,4.29925 0.2347,8.1339 0.42323,8.52196 0.18853,0.38806 0.51773,0.82225 0.73122,0.9648 0.68792,0.45934 1.60469,0.2877 2.32802,-0.43563 0.38806,-0.38806 0.94257,-0.70538 1.23197,-0.70538 0.2894,0 0.72453,0.31732 0.96687,0.70538 0.26249,0.42031 0.82246,0.7059 1.38544,0.7059 1.30562,0 4.49734,-2.98132 5.52783,-5.16351 0.44561,-0.94364 0.97493,-2.01766 1.17667,-2.38642 0.20174,-0.36876 0.50967,-2.3148 0.6842,-4.3248 0.34094,-3.92644 0.10658,-5.7214 -1.11776,-8.55296 -0.52925,-1.22402 -1.1855,-1.94315 -2.67942,-2.93678 -1.08805,-0.72367 -2.52542,-1.41864 -3.19412,-1.54409 -0.18838,-0.0353 -0.37904,-0.0562 -0.56793,-0.063 z m 36.350758,0.11369 c -0.23599,0.002 -0.42746,0.14886 -0.74259,0.41289 -0.40998,0.34349 -0.80934,0.6639 -0.88781,0.7121 -0.33918,0.20834 -1.069499,5.06733 -1.101219,7.32824 -0.0399,2.84058 -0.84412,7.66598 -1.1467,6.87916 -0.35273,-0.91723 -1.29507,-6.76886 -1.53376,-9.525 -0.126019,-1.45521 -0.344399,-2.80475 -0.485239,-2.99878 -0.14084,-0.19403 -0.36144,-0.7942 -0.49041,-1.33377 -0.22891,-0.95772 -0.27804,-0.97543 -2.07688,-0.74982 -1.01344,0.12711 -1.97542,0.35168 -2.13733,0.49919 -0.16191,0.14751 -0.36601,1.72995 -0.45372,3.51658 -0.13583,2.76673 -7.9e-4,3.90171 0.91157,7.65277 0.58918,2.42224 1.07126,5.08658 1.07126,5.92108 0,0.91832 0.20889,1.69067 0.52916,1.95647 0.29104,0.24155 0.52917,0.72437 0.52917,1.0728 0,1.0754 0.40081,1.74925 1.03973,1.74925 0.33615,0 0.7945,-0.40229 1.01854,-0.894 l 0.40721,-0.894 1.035079,0.76532 c 0.60113,0.44444 1.27789,0.67193 1.61489,0.54261 0.3191,-0.12245 0.866369,-0.0698 1.215939,0.1173 0.46861,0.2508 0.77814,0.18119 1.17771,-0.26562 0.78922,-0.88252 1.58789,-4.00767 2.00401,-7.83828 0.20023,-1.84327 0.52919,-4.54184 0.7307,-5.99705 0.20151,-1.4552 0.45114,-3.60254 0.55449,-4.7718 l 0.18759,-2.12597 -1.48415,-0.97151 c -0.80681,-0.52824 -1.18383,-0.76323 -1.48724,-0.76016 z m 21.23952,0.86816 c -0.93519,0 -1.81261,0.18944 -1.95647,0.4222 -0.35159,0.56889 -0.8199,18.39463 -0.53537,20.37653 0.18431,1.28374 0.38721,1.61694 1.10743,1.81694 1.51118,0.41966 3.77452,0.33874 4.17959,-0.14934 0.22118,-0.2665 0.42761,-2.37174 0.48421,-4.93872 0.0543,-2.46084 0.13659,-4.47459 0.18293,-4.47466 0.0463,-8e-5 0.69874,1.23049 1.45004,2.7342 0.7513,1.50372 1.56081,3.55772 1.79834,4.56458 0.36594,1.55119 0.57492,1.85909 1.3715,2.01745 1.53721,0.3056 4.83427,0.35109 5.28443,0.0729 0.27872,-0.17226 0.41858,-1.47247 0.41858,-3.89847 0,-2.89718 -0.1147,-3.73563 -0.56121,-4.10621 -0.51127,-0.42431 -0.50803,-0.50395 0.0367,-0.90227 0.5293,-0.38704 0.58345,-1.10515 0.47284,-6.26835 -0.0986,-4.60307 -0.23647,-5.93694 -0.65422,-6.33553 -0.29905,-0.28534 -1.49245,-0.56946 -2.74454,-0.65319 -1.56733,-0.10481 -2.32978,-0.0104 -2.60604,0.32246 -0.23435,0.28237 -0.36271,1.73803 -0.32091,3.63957 0.0383,1.74279 0.005,3.16828 -0.0734,3.16828 -0.0787,0 -0.95967,-1.33661 -1.95802,-2.97036 -0.99835,-1.63374 -2.23512,-3.30062 -2.74815,-3.70416 -0.65083,-0.51194 -1.44525,-0.73381 -2.62827,-0.73381 z m -37.541888,0.185 c -0.27552,-0.006 -0.52066,0.15686 -0.89038,0.52659 -0.40025,0.40024 -0.85743,1.07859 -1.01648,1.5074 -0.15904,0.42882 -0.14047,2.03325 0.0413,3.56515 0.22162,1.86733 0.2052,3.50444 -0.0496,4.96766 -0.20904,1.20039 -0.38034,2.92349 -0.38034,3.82922 0,1.56969 -0.0461,1.64693 -0.99063,1.64693 -0.545,0 -1.29924,-0.22542 -1.67587,-0.50126 -0.59206,-0.43361 -0.68577,-0.9473 -0.69195,-3.79253 -0.007,-3.09747 -0.38292,-8.37402 -0.71572,-10.03712 -0.10085,-0.504 -0.50877,-0.82047 -1.2485,-0.96841 -0.81161,-0.16232 -1.37862,-0.0209 -2.16783,0.54105 l -1.06866,0.76119 0.19327,8.14524 c 0.10678,4.50428 0.37431,8.74664 0.59841,9.49089 0.66318,2.20249 1.23924,2.54313 4.45812,2.63654 1.85342,0.0538 3.38084,-0.10645 4.38268,-0.45992 0.84574,-0.29841 1.83961,-0.81582 2.20865,-1.14981 0.36905,-0.33397 0.91225,-1.07404 1.20716,-1.64434 0.29492,-0.57029 0.61968,-2.37749 0.72193,-4.01629 0.17673,-2.83287 0.14429,-3.01232 -0.66043,-3.64267 -0.82805,-0.64863 -0.8314,-0.67418 -0.16433,-1.18546 0.4771,-0.36568 0.76199,-1.18579 0.94878,-2.73006 0.29675,-2.45337 0.039,-6.21211 -0.47026,-6.86005 -0.18157,-0.231 -0.54446,-0.33813 -0.80615,-0.23771 -0.26169,0.10042 -0.80167,0.008 -1.20044,-0.20516 -0.22102,-0.11828 -0.39745,-0.18323 -0.56276,-0.18707 z m 29.903078,0.20464 c -0.8026,0.0212 -0.99269,0.24331 -1.4242,1.00149 -0.41648,0.73182 -0.88444,1.07542 -1.46606,1.07694 -0.46979,0.001 -1.13772,-0.25497 -1.48467,-0.56896 -0.34695,-0.31399 -1.3184,-0.64841 -2.15852,-0.74311 -1.07076,-0.12069 -1.65399,-0.0195 -1.95027,0.33745 -0.65326,0.78713 -1.18853,5.54745 -1.09347,9.72499 0.0473,2.07653 0.017,4.08112 -0.0672,4.45502 -0.10588,0.47046 0.20369,0.92359 1.0051,1.47175 1.06903,0.73122 1.1027,0.8099 0.43719,1.02112 -0.39651,0.12585 -0.96656,0.70449 -1.26711,1.28571 -0.30056,0.58121 -0.49733,1.48281 -0.43718,2.0035 0.0933,0.80734 0.31695,0.97823 1.52032,1.16117 2.41724,0.36748 6.60267,0.29998 8.99583,-0.1447 l 2.2934,-0.42581 0.10439,-2.38228 c 0.10176,-2.32257 0.0795,-2.3917 -0.88212,-2.75849 -0.98482,-0.37563 -2.20139,-0.30607 -3.36775,0.19275 -0.54676,0.23382 -0.61702,0.0336 -0.61702,-1.75235 l 0,-2.01693 1.14619,0.17829 c 0.63059,0.098 1.48011,0.28678 1.88774,0.41909 1.08547,0.35231 1.90479,-0.64456 1.90479,-2.31769 0,-1.19471 -0.13891,-1.44904 -0.96997,-1.7725 -0.53358,-0.20767 -1.96406,-0.30101 -3.17861,-0.20774 -2.10746,0.16183 -2.2181,0.13002 -2.42363,-0.68884 -0.11844,-0.47191 -0.10772,-0.96512 0.0238,-1.09658 0.13146,-0.13147 0.82505,-0.26771 1.54151,-0.30231 0.71646,-0.0346 2.09634,-0.28555 3.06648,-0.5581 l 1.76423,-0.49558 0.32505,-2.03036 c 0.20092,-1.25517 0.19807,-2.39237 -0.007,-2.97863 -0.29551,-0.84445 -0.53447,-0.95958 -2.18281,-1.05472 -0.43528,-0.0251 -0.77064,-0.0406 -1.03818,-0.0336 z m 57.66883,2.08773 c 0.10195,-0.0146 0.32542,0.16636 0.53589,0.44338 0.24053,0.31658 1.19142,0.89472 2.11305,1.28468 1.58939,0.6725 1.67535,0.77945 1.67535,2.07791 0,0.86661 -0.22621,1.56347 -0.61702,1.89911 -1.0529,0.90429 -1.752,0.98024 -2.40296,0.26096 -0.33933,-0.37497 -0.91958,-0.68161 -1.28932,-0.68161 -0.62172,0 -0.65377,-0.19202 -0.4284,-2.55747 0.13403,-1.4067 0.30401,-2.62551 0.37776,-2.70836 0.009,-0.0104 0.0211,-0.0165 0.0357,-0.0186 z m -123.833778,0.37724 c 0.17997,0.004 0.41382,0.0416 0.7245,0.092 0.69009,0.11198 1.40264,0.35155 1.58337,0.53227 0.18073,0.18073 0.35339,1.13299 0.38344,2.11615 0.0362,1.18597 -0.12534,1.96711 -0.47956,2.32182 -0.29364,0.29404 -1.03504,0.635 -1.64796,0.75758 -1.09588,0.21917 -1.11883,0.1966 -1.35444,-1.3746 -0.13178,-0.87876 -0.12715,-2.2636 0.0104,-3.07733 0.18568,-1.09904 0.2404,-1.38084 0.78031,-1.36787 z m 15.94942,2.08514 c 0.37397,0 0.98999,0.39422 1.3689,0.87592 0.49561,0.63007 0.75869,1.71259 0.93742,3.85816 0.24149,2.89908 0.21535,3.04909 -0.92811,5.37435 -0.64699,1.31567 -1.37494,2.45035 -1.61747,2.52129 -0.34128,0.0998 -0.44081,-1.31314 -0.44081,-6.25026 0,-6.06414 0.0337,-6.37946 0.68007,-6.37946 z m -31.55312,3.35122 c 0.5539,0 1.26601,1.79426 1.65209,4.16357 0.24701,1.51581 0.24121,2.48388 -0.0191,3.15639 -0.31117,0.80381 -0.58875,0.97049 -1.61902,0.97049 l -1.24385,0 0,-2.2934 c 0,-1.26118 0.15045,-2.29289 0.33434,-2.29289 0.18389,0 0.38267,-0.83343 0.44132,-1.85208 0.0587,-1.01864 0.26282,-1.85208 0.45424,-1.85208 z"
       id="path4210-8"
       sodipodi:nodetypes="ccssccccscssscscssscscscccccscssccccscsccccscccssscccsssccssscccsccccccscsssssssscccsscccssssccccccssccscscsssccccsscccsscccscsscssscsscssccssssscscsccccscccsssccsccsscsccscsssssccccsssscsssscsssssscccccccssssssssscsscccscssscccccccssccssscscsssssssssccccccsssscsscccsscccsssscscccccssscccscccsccsscscccscsccsccccccccscsccsscccccscssscccsssscsscscscssccccc" />
  </g>
</svg>
